<?xml version="1.0" encoding="iso-8859-1"?>
<!-- Generator: Adobe Illustrator 19.0.0, SVG Export Plug-In . SVG Version: 6.00 Build 0)  -->
<svg version="1.1" id="Capa_1" xmlns="http://www.w3.org/2000/svg" xmlns:xlink="http://www.w3.org/1999/xlink" x="0px" y="0px"
	 viewBox="0 0 512 512" style="enable-background:new 0 0 512 512;" xml:space="preserve">
<g>
	<path style="fill:#FFB69E;" d="M171.731,260.303l-17.468-61.013c-1.939-6.77-6.448-12.511-12.566-15.997L94.217,156.24l0.339-63.38
		l51.363-41.113c6.289-5.035,7.307-14.216,2.272-20.506c-5.034-6.289-14.213-7.308-20.506-2.273L70.888,74.431
		c-3.437,2.751-5.448,6.908-5.472,11.311l-0.428,80.085L0,279.884l85.854,23.601l8.627-15.141l67.076-6.968
		C171.136,279.532,176.248,268.959,171.731,260.303z M111.621,258.262l18.75-32.905l8.585,30.811L111.621,258.262z"/>
	<path style="fill:#FFB69E;" d="M69.216,469.407L43.671,282.391c-1.451-10.645,6.001-20.45,16.646-21.901
		c10.632-1.45,20.449,6,21.901,16.645l25.545,187.016c1.451,10.644-6.001,20.45-16.646,21.901
		C80.467,487.504,70.668,480.044,69.216,469.407z"/>
	<path style="fill:#FFB69E;" d="M143.068,184.074l-66.791-38.058L0,279.884l0.299,186.895c0,10.619,8.508,19.25,19.079,19.448
		c10.901,0.205,19.823-9.055,19.823-19.958V290.66l46.653,12.825l60.729-106.582C149.156,192.389,147.581,186.646,143.068,184.074z"
		/>
</g>
<path style="fill:#47A7FF;" d="M53.853,356.737l38.312-6.823l-9.947-71.348c-1.452-10.645-11.269-18.095-21.901-16.645
	c-10.645,1.451-18.097,11.257-16.646,21.901L53.853,356.737z"/>
<path style="fill:#61B3FF;" d="M143.068,184.075l-13.791-7.859c-2.992,4.941-8.624,8.36-14.434,8.36
	c-9.327,0-16.233-7.623-16.637-16.637c-0.132-2.954,0.694-5.758,2.154-8.2l-24.084-13.722L0,279.884l0.123,76.854h39.078V290.66
	l46.653,12.825l60.729-106.582C149.156,192.389,147.581,186.646,143.068,184.075z"/>
<path style="fill:#78BEFF;" d="M171.731,260.303l-17.468-61.013c-4.291-14.984-17.442-17.737-24.987-23.074
	c-2.992,4.941-8.624,8.36-14.434,8.36c-9.327,0-16.233-7.623-16.637-16.637c-0.132-2.954,0.694-5.758,2.154-8.199l-6.143-3.5
	l0.232-43.386H65.272l-0.283,52.975L0,279.884l85.854,23.601l8.627-15.141l67.076-6.968
	C171.136,279.532,176.248,268.96,171.731,260.303z M111.621,258.262l18.75-32.905l8.585,30.811L111.621,258.262z"/>
<g>
	<path style="fill:#FFB69E;" d="M167.247,244.611h-31.512l3.22,11.557l-56.995,4.254c-7.911,1.523-13.09,9.173-11.566,17.084
		c1.522,7.904,9.163,13.092,17.084,11.567l74.078-7.695c9.579-1.845,14.691-12.416,10.174-21.073L167.247,244.611z"/>
	<circle style="fill:#FFB69E;" cx="136.803" cy="126.935" r="33.759"/>
</g>
<g>
	<path style="fill:#BA6746;" d="M287.603,437.52c-9.962-2.343-16.14-12.319-13.797-22.282l35.914-152.721
		c2.343-9.964,12.321-16.14,22.283-13.797c9.962,2.343,16.14,12.319,13.797,22.282l-35.914,152.721
		C307.54,433.698,297.554,439.859,287.603,437.52z"/>
	<path style="fill:#BA6746;" d="M386.897,423.722l-35.915-152.721c-2.343-9.963,3.835-19.94,13.797-22.282
		c9.959-2.343,19.94,3.833,22.283,13.797l35.915,152.721c2.343,9.963-3.835,19.94-13.797,22.282
		C399.234,439.858,389.244,433.702,386.897,423.722z"/>
</g>
<path style="fill:#3C5A73;" d="M345.8,271.001c2.343-9.963-3.835-19.94-13.797-22.282c-9.961-2.343-19.941,3.833-22.283,13.797
	l-14.955,63.6l37.095,4.173C335.862,313.262,341.679,288.525,345.8,271.001z"/>
<path style="fill:#55879B;" d="M364.925,330.289l37.095-4.173l-14.956-63.6c-2.344-9.964-12.323-16.14-22.283-13.797
	c-9.962,2.343-16.14,12.319-13.797,22.282C354.843,287.415,360.531,311.6,364.925,330.289z"/>
<path style="fill:#BA6746;" d="M511.069,133.738c-2.793-7.36-11.023-11.059-18.383-8.268l-47.087,17.869l-56.307-4.544h-81.802
	l-56.307,4.544l-47.087-17.869c-7.359-2.791-15.589,0.908-18.383,8.268c-2.792,7.359,0.91,15.589,8.269,18.381l50.073,19.003
	c1.964,0.745,4.068,1.049,6.175,0.884l57.258-4.504V271.35h81.802V167.502l57.258,4.504c2.107,0.165,4.213-0.139,6.175-0.884
	l50.073-19.003C510.16,149.327,513.862,141.097,511.069,133.738z"/>
<path style="fill:#FA2D14;" d="M389.292,138.794H364.92c0.002,0.034,0.007,0.067,0.009,0.1c0.402,8.984-7.935,16.637-16.637,16.637
	c-9.327,0-16.233-7.623-16.637-16.637c-0.002-0.034,0.003-0.067,0.001-0.1h-24.166l-38.462,3.104v28.629l38.462-3.026v103.848
	h81.802V167.502l39.36,3.097v-28.627L389.292,138.794z"/>
<circle style="fill:#BA6746;" cx="348.389" cy="81.137" r="32.008"/>
<g>
</g>
<g>
</g>
<g>
</g>
<g>
</g>
<g>
</g>
<g>
</g>
<g>
</g>
<g>
</g>
<g>
</g>
<g>
</g>
<g>
</g>
<g>
</g>
<g>
</g>
<g>
</g>
<g>
</g>
</svg>
