<svg width="1440" height="1024" viewBox="0 0 1440 1024" fill="none" xmlns="http://www.w3.org/2000/svg">
<rect width="1440" height="1024" fill="white"/>
<path d="M684.111 -83H944.111C944.111 -83 1038.11 26 944.111 168C850.111 310 772.111 274 684.111 168C596.111 62 684.111 -83 684.111 -83Z" fill="#8DAAA5"/>
<path d="M-2 6.09729C-2 6.09729 614 -190.805 284 6.09729C-46 203 340 153 284 278.097C228 403.194 -2 278.097 -2 278.097V6.09729Z" fill="#F5BBA9"/>
<path d="M728 623.572C1064.55 998.511 1163.16 -67.2491 1440 106.263V1023.57L442.5 1049L-555 990.466C-555 990.466 391.446 248.633 728 623.572Z" fill="#8DAAA5"/>
</svg>
