<svg width="522" height="429" viewBox="0 0 522 429" fill="none" xmlns="http://www.w3.org/2000/svg">
<g clip-path="url(#clip0)">
<path d="M522 246.522C346.998 180.178 172.973 178.474 0 246.522V0H522V246.522Z" fill="#686397"/>
<path d="M121.383 15.6357H18.7545V20.3263H121.383V15.6357Z" fill="#D0CDE1"/>
<path d="M121.383 27.623H18.7545V32.3137H121.383V27.623Z" fill="#D0CDE1"/>
<path d="M121.383 39.6103H18.7545V44.301H121.383V39.6103Z" fill="#D0CDE1"/>
<path d="M46.3653 59.4155H35.9461V69.8393H46.3653V59.4155Z" fill="#D0CDE1"/>
<path d="M75.5389 59.4155H65.1198V69.8393H75.5389V59.4155Z" fill="#E06045"/>
<path d="M104.713 59.4155H94.2934V69.8393H104.713V59.4155Z" fill="#FF6584"/>
<path d="M114.09 98.5047H26.5689V113.555H114.09V98.5047Z" fill="#D0CDE1"/>
<path d="M114.09 121.599H26.5689V136.65H114.09V121.599Z" fill="#E06045"/>
<path d="M114.09 144.694H26.5689V159.744H114.09V144.694Z" fill="#F99F45"/>
<path opacity="0.15" d="M62.7755 98.5047H26.5689V113.555H62.7755V98.5047Z" fill="black"/>
<path opacity="0.15" d="M38.2904 121.599H26.5688V136.65H38.2904V121.599Z" fill="black"/>
<path opacity="0.15" d="M84.9162 144.694H26.5689V159.744H84.9162V144.694Z" fill="black"/>
<path d="M256.311 11.9873V183.98C279.109 183.98 300.973 174.919 317.093 158.792C333.213 142.664 342.269 120.791 342.269 97.9834C342.269 75.1759 333.213 53.3024 317.093 37.175C300.973 21.0476 279.109 11.9873 256.311 11.9873V11.9873Z" fill="#D0CDE1"/>
<path d="M250.581 15.7678C235.931 15.7647 221.57 19.8388 209.103 27.5344C196.636 35.23 186.554 46.2438 179.986 59.3438L250.581 101.15V15.7678Z" fill="#F99F45"/>
<path d="M174.255 60.4646C167.687 73.5774 164.58 88.1526 165.228 102.805C165.876 117.458 170.258 131.702 177.959 144.183C185.659 156.664 196.421 166.968 209.223 174.116C222.025 181.264 236.441 185.018 251.102 185.022V105.973L174.255 60.4646Z" fill="#E06045"/>
<path d="M452.713 56.8096H400.096V61.5003H452.713V56.8096Z" fill="#D0CDE1"/>
<path d="M393.323 53.6824H382.904V64.1062H393.323V53.6824Z" fill="#E06045"/>
<path d="M452.713 72.4452H400.096V77.1359H452.713V72.4452Z" fill="#D0CDE1"/>
<path d="M393.323 69.3181H382.904V79.7419H393.323V69.3181Z" fill="#E06045"/>
<path d="M452.713 88.0809H400.096V92.7716H452.713V88.0809Z" fill="#D0CDE1"/>
<path d="M393.323 84.9537H382.904V95.3775H393.323V84.9537Z" fill="#E06045"/>
<path d="M228.548 130.666L227.811 129.929L282.665 75.0511H378.216V76.0935H283.096L228.548 130.666Z" fill="#2F2E41"/>
<path d="M522 381.51H0V263.2C167.748 197.807 341.748 197.807 522 263.2V381.51Z" fill="#686397"/>
<path d="M521.5 381.01H0.5V263.542C167.927 198.36 341.586 198.357 521.5 263.551V381.01Z" stroke="black" stroke-opacity="0.69"/>
<path d="M214.532 315.257L219.292 329.997C219.292 329.997 214.985 343.83 217.025 359.25C219.065 374.671 217.932 375.124 217.932 375.124C217.932 375.124 197.549 373.95 199.589 380.073C201.629 386.196 221.559 382.608 221.559 382.608C221.559 382.608 225.386 381.577 227.2 370.692C229.013 359.807 233.572 338.841 233.572 338.841L229.285 319.049L214.532 315.257Z" fill="#FFB8B8"/>
<path d="M216.119 285.097C216.119 285.097 207.505 288.272 207.505 296.889C207.505 305.506 210.679 317.298 212.719 317.978C214.759 318.659 228.359 327.956 230.852 321.38C233.346 314.804 216.119 285.097 216.119 285.097Z" fill="#D0CDE1"/>
<path d="M288.2 387.143L306.333 386.463L320.16 384.422L316.08 398.028L282.533 398.935L288.2 387.143Z" fill="#FFB8B8"/>
<path d="M314.267 388.957C314.267 388.957 314.04 383.968 312 384.195C309.96 384.422 311.32 382.381 313.133 381.927C314.947 381.474 320.16 379.206 320.16 379.206L340.787 380.567C340.787 380.567 354.16 392.359 348.72 398.708C343.28 405.058 329.227 399.389 329.227 399.389L314.04 399.615C314.04 399.615 309.053 391.452 314.267 388.957Z" fill="#2F2E41"/>
<path d="M322.427 371.496L329 402.337L342.6 399.616L334.894 361.065L326.733 356.756L322.427 371.496Z" fill="#FFB8B8"/>
<path d="M244.226 367.641C244.226 367.641 206.145 384.875 222.239 402.337C222.239 402.337 222.239 410.5 239.239 408.913C256.239 407.326 289.106 404.378 290.693 405.285C292.28 406.192 297.266 387.37 292.96 386.463C288.653 385.556 283.44 384.422 283.44 384.422C283.44 384.422 287.973 383.742 287.973 379.886C287.973 379.886 300.893 378.979 304.746 370.816C308.6 362.652 312.227 356.529 312.227 356.529L321.067 379.206C321.067 379.206 331.267 360.384 338.974 368.775C338.974 368.775 330.36 314.577 323.787 309.588C317.213 304.599 312.68 303.012 306.56 307.547C300.44 312.082 294.773 323.648 294.773 323.648L244.226 367.641Z" fill="#2F2E41"/>
<path d="M335.12 393.039C333.535 394.235 332.022 395.522 330.587 396.894C328.773 398.708 326.28 397.801 326.053 396.894C325.827 395.987 321.747 397.575 321.293 404.151C320.84 410.727 318.12 416.623 325.373 418.664C332.627 420.705 332.4 426.601 332.4 426.601C338.139 429.356 344.726 429.762 350.76 427.735C360.961 424.333 357.334 420.705 357.334 420.705L343.734 398.255C343.734 398.255 340.107 391.452 335.12 393.039Z" fill="#2F2E41"/>
<path d="M297.493 280.561C297.493 280.561 319.253 288.045 321.52 289.632C323.787 291.219 333.987 298.703 329 302.558C324.013 306.413 319.933 308.908 310.187 305.96C300.44 303.012 289.56 293.941 289.56 293.941L297.493 280.561Z" fill="#FFB8B8"/>
<path d="M275.733 270.583C275.733 270.583 284.346 268.996 290.466 272.398C296.586 275.799 301.8 282.602 301.8 282.602C301.8 282.602 296.133 294.621 292.053 296.435C287.973 298.249 280.493 289.179 280.493 289.179L275.733 270.583Z" fill="#D0CDE1"/>
<path d="M236.066 264.007C236.066 264.007 236.292 272.851 235.386 273.758C234.479 274.665 246.266 301.424 259.186 289.632C272.106 277.84 262.133 273.078 262.133 273.078C262.133 273.078 257.373 264.234 257.599 263.327C257.826 262.42 236.519 263.327 236.519 263.327L236.066 264.007Z" fill="#FFB8B8"/>
<path opacity="0.1" d="M236.066 264.007C236.066 264.007 236.292 272.851 235.386 273.758C234.479 274.665 246.266 301.424 259.186 289.632C272.106 277.84 262.133 273.078 262.133 273.078C262.133 273.078 257.373 264.234 257.599 263.327C257.826 262.42 236.519 263.327 236.519 263.327L236.066 264.007Z" fill="black"/>
<path d="M239.692 281.015C239.692 281.015 248.306 286.911 251.932 285.55C255.559 284.19 260.093 278.294 260.546 277.84C260.999 277.386 284.12 323.874 284.12 323.874C284.12 323.874 280.72 340.882 271.653 345.871C262.586 350.86 262.699 354.828 261.566 358.23C260.433 361.631 245.812 347.458 245.812 347.458L236.519 308V283.963L239.692 281.015Z" fill="#D0CDE1"/>
<path d="M225.93 309.635L225.868 309.591L225.805 309.57C225.805 309.57 225.805 309.57 225.805 309.57C225.8 309.568 225.788 309.563 225.769 309.553C225.732 309.535 225.667 309.5 225.581 309.441C225.408 309.323 225.145 309.107 224.834 308.731C224.211 307.978 223.389 306.574 222.723 304.019C222.031 301.365 220.143 296.794 218.36 292.801C217.466 290.799 216.592 288.93 215.899 287.504C215.553 286.791 215.25 286.187 215.012 285.73C214.854 285.428 214.715 285.171 214.606 284.991C214.652 284.926 214.721 284.841 214.822 284.732C215.117 284.411 215.592 283.981 216.212 283.465C217.446 282.437 219.192 281.12 221.062 279.745C222.265 278.86 223.523 277.95 224.723 277.081C227.229 275.267 229.488 273.632 230.495 272.779C231.89 271.599 233.247 271.15 234.245 270.992C234.746 270.913 235.158 270.907 235.441 270.92C235.505 270.923 235.562 270.927 235.612 270.931C235.683 271.089 235.787 271.316 235.919 271.604C236.19 272.196 236.581 273.044 237.061 274.07C238.023 276.12 239.342 278.882 240.776 281.722C242.209 284.561 243.759 287.486 245.182 289.861C245.892 291.048 246.576 292.105 247.2 292.948C247.814 293.778 248.403 294.444 248.929 294.806C249.061 294.897 249.273 295.14 249.552 295.605C249.821 296.053 250.122 296.653 250.449 297.389C251.104 298.861 251.847 300.839 252.643 303.156C254.232 307.789 256.014 313.738 257.685 319.617C259.355 325.495 260.913 331.296 262.053 335.627C262.623 337.793 263.088 339.591 263.411 340.848C263.573 341.476 263.699 341.969 263.784 342.305L263.881 342.688L263.893 342.732C263.567 345.743 262.97 348.718 262.108 351.62C261.965 352.071 261.583 352.71 260.971 353.509C260.366 354.298 259.568 355.205 258.639 356.181C256.783 358.134 254.428 360.342 252.109 362.421C249.791 364.5 247.514 366.445 245.817 367.871C244.968 368.584 244.265 369.167 243.773 369.571C243.528 369.773 243.335 369.931 243.204 370.038L243.055 370.159L243.034 370.177L243.033 370.177L242.933 370.235C242.846 370.286 242.717 370.361 242.555 370.455C242.229 370.643 241.765 370.91 241.212 371.224C240.106 371.854 238.644 372.674 237.218 373.436C235.788 374.201 234.411 374.9 233.468 375.294C233.367 375.336 233.273 375.374 233.188 375.407C233.372 374.935 233.523 374.354 233.63 373.691C233.796 372.661 233.861 371.396 233.759 369.958C233.556 367.082 232.686 363.498 230.611 359.691C230.139 358.825 229.75 357.536 229.445 355.902C229.141 354.277 228.926 352.346 228.783 350.217C228.498 345.96 228.505 340.947 228.66 336.079C228.816 331.213 229.12 326.502 229.427 322.853C229.581 321.029 229.736 319.472 229.872 318.295C230.011 317.1 230.128 316.337 230.201 316.069C230.419 315.271 230.189 314.453 229.811 313.732C229.43 313.004 228.864 312.307 228.296 311.709C227.725 311.109 227.135 310.592 226.689 310.226C226.466 310.042 226.278 309.895 226.145 309.794C226.078 309.744 226.025 309.704 225.988 309.677L225.946 309.646L225.934 309.638L225.931 309.636L225.93 309.635L225.93 309.635C225.93 309.635 225.93 309.635 225.639 310.041L225.93 309.635ZM214.544 285.092C214.544 285.092 214.544 285.092 214.544 285.091L214.544 285.092Z" fill="#F99F45" stroke="#2F2E41"/>
<path d="M290.235 315.056L290.235 315.056L290.235 315.056L290.129 315.298L290.269 315.522L295.72 324.248C295.704 324.264 295.687 324.28 295.669 324.297C295.444 324.512 295.115 324.825 294.696 325.221C293.858 326.012 292.664 327.131 291.237 328.442C288.382 331.064 284.599 334.452 280.883 337.519C277.156 340.595 273.531 343.32 270.98 344.643C270.345 344.972 269.793 345.206 269.334 345.338C268.864 345.473 268.545 345.487 268.347 345.437C268.19 345.397 268.095 345.318 268.034 345.135C267.961 344.913 267.942 344.532 268.063 343.928C268.126 343.611 268.135 343.381 268.11 343.207C268.098 343.118 268.076 343.04 268.044 342.971L268.025 342.889L267.925 342.458C267.838 342.081 267.709 341.527 267.547 340.82C267.222 339.408 266.759 337.387 266.208 334.954C265.107 330.086 263.655 323.569 262.253 316.967C260.851 310.364 259.5 303.682 258.598 298.483C258.147 295.882 257.81 293.661 257.636 292.009C257.548 291.182 257.502 290.509 257.502 290.008C257.501 289.757 257.512 289.56 257.532 289.413C257.551 289.267 257.575 289.211 257.578 289.204C257.578 289.204 257.578 289.203 257.578 289.204C258.007 288.467 258.499 287.135 258.98 285.545C259.466 283.939 259.955 282.027 260.369 280.101C260.784 278.175 261.125 276.226 261.316 274.55C261.48 273.103 261.539 271.805 261.408 270.898C261.557 270.809 261.756 270.691 261.994 270.555C262.529 270.248 263.253 269.848 264.008 269.478C264.769 269.106 265.542 268.772 266.184 268.587C266.506 268.494 266.772 268.445 266.974 268.438C267.188 268.432 267.255 268.475 267.26 268.479C267.395 268.588 267.565 268.663 267.724 268.72C267.891 268.779 268.085 268.831 268.297 268.878C268.72 268.972 269.249 269.052 269.835 269.124C270.958 269.261 272.34 269.371 273.694 269.48C273.756 269.485 273.818 269.489 273.88 269.494C275.3 269.608 276.674 269.72 277.706 269.86C278.224 269.93 278.635 270.004 278.916 270.083C279.004 270.108 279.069 270.13 279.116 270.149C279.122 270.204 279.128 270.27 279.135 270.35C279.152 270.557 279.172 270.837 279.197 271.184L279.203 271.265C279.251 271.95 279.316 272.871 279.41 273.961C279.606 276.226 279.926 279.225 280.482 282.377C281.038 285.527 281.831 288.844 282.978 291.74C284.121 294.626 285.638 297.153 287.677 298.652C291.331 301.34 292.001 305.378 291.725 308.839C291.587 310.566 291.213 312.124 290.873 313.253C290.703 313.816 290.542 314.27 290.424 314.582C290.366 314.738 290.318 314.858 290.285 314.939C290.268 314.979 290.255 315.009 290.247 315.029L290.238 315.05L290.236 315.055L290.235 315.056ZM279.206 270.194C279.205 270.194 279.202 270.192 279.196 270.187C279.203 270.192 279.206 270.194 279.206 270.194Z" fill="#F99F45" stroke="#2F2E41"/>
<path d="M308.373 291.446L277.546 302.104C277.546 302.104 246.946 309.361 251.706 317.752C256.466 326.142 276.639 311.856 276.639 311.856L317.691 307.254C317.691 307.254 333.987 293.487 308.373 291.446Z" fill="#FFB8B8"/>
<path d="M248.306 272.398C257.57 272.398 265.079 264.885 265.079 255.617C265.079 246.349 257.57 238.836 248.306 238.836C239.042 238.836 231.532 246.349 231.532 255.617C231.532 264.885 239.042 272.398 248.306 272.398Z" fill="#FFB8B8"/>
<path d="M234.948 238.939L231.845 237.81C231.845 237.81 238.333 231.32 247.359 231.884L244.82 229.345C244.82 229.345 251.026 227.087 256.667 233.013C259.633 236.128 263.064 239.79 265.203 243.915H268.526L267.139 246.69L271.993 249.465L267.011 248.966C267.483 251.362 267.32 253.84 266.54 256.153L265.411 259.257C265.411 259.257 260.898 250.227 260.898 249.098V251.92C260.898 251.92 257.795 249.38 257.795 247.687L256.103 249.663L255.257 246.558L244.82 249.663L246.513 247.123L240.025 247.969L242.564 244.865C242.564 244.865 235.23 248.534 234.948 251.638C234.666 254.742 230.999 258.693 230.999 258.693L229.307 255.871C229.307 255.871 226.768 243.172 234.948 238.939Z" fill="#2F2E41"/>
<path d="M453.79 382.528L452.748 382.508C453.151 370.918 454.387 359.372 456.446 347.959C460.952 323.526 468.444 307.479 478.714 300.265L479.312 301.118C455.321 317.97 453.802 381.884 453.79 382.528Z" fill="#D0CDE1"/>
<path d="M466.813 382.278L465.772 382.258C465.794 381.104 466.445 353.898 477.151 346.379L477.749 347.232C467.475 354.448 466.819 382.001 466.813 382.278Z" fill="#D0CDE1"/>
<path d="M485.239 301.212C488.117 301.212 490.449 298.879 490.449 296C490.449 293.122 488.117 290.788 485.239 290.788C482.362 290.788 480.03 293.122 480.03 296C480.03 298.879 482.362 301.212 485.239 301.212Z" fill="#E06045"/>
<path d="M482.659 346.034C485.537 346.034 487.869 343.701 487.869 340.823C487.869 337.944 485.537 335.611 482.659 335.611C479.782 335.611 477.45 337.944 477.45 340.823C477.45 343.701 479.782 346.034 482.659 346.034Z" fill="#E06045"/>
<path d="M464.385 304.337C465.364 310.593 462.812 316.189 462.812 316.189C462.812 316.189 458.673 311.641 457.694 305.385C456.715 299.128 459.267 293.532 459.267 293.532C459.267 293.532 463.406 298.08 464.385 304.337Z" fill="#E06045"/>
<path d="M481.398 319.484C475.41 321.538 469.466 320.023 469.466 320.023C469.466 320.023 473.229 315.176 479.216 313.121C485.203 311.067 491.148 312.582 491.148 312.582C491.148 312.582 487.385 317.429 481.398 319.484Z" fill="#D0CDE1"/>
<path d="M481.606 359.226C478.896 360.077 476.011 360.202 473.237 359.587C474.998 357.344 477.37 355.659 480.066 354.733C482.762 353.808 485.669 353.683 488.435 354.372C486.623 356.56 484.268 358.234 481.606 359.226V359.226Z" fill="#D0CDE1"/>
<path d="M419.884 288.913C418.545 288.913 417.235 288.516 416.121 287.771C415.008 287.027 414.14 285.969 413.627 284.731C413.114 283.493 412.98 282.13 413.242 280.816C413.503 279.502 414.148 278.294 415.095 277.347C416.042 276.399 417.249 275.754 418.563 275.492C419.876 275.231 421.238 275.365 422.476 275.878C423.713 276.391 424.771 277.259 425.515 278.374C426.259 279.488 426.656 280.798 426.656 282.138C426.654 283.934 425.94 285.656 424.671 286.926C423.401 288.197 421.68 288.911 419.884 288.913V288.913ZM419.884 276.405C418.751 276.405 417.643 276.741 416.7 277.371C415.758 278.001 415.023 278.896 414.59 279.944C414.156 280.991 414.042 282.144 414.264 283.256C414.485 284.368 415.03 285.39 415.832 286.192C416.633 286.993 417.654 287.539 418.766 287.761C419.878 287.982 421.03 287.868 422.077 287.434C423.124 287 424.019 286.266 424.649 285.323C425.278 284.38 425.615 283.272 425.615 282.138C425.613 280.618 425.009 279.161 423.934 278.086C422.86 277.011 421.403 276.406 419.884 276.405V276.405Z" fill="#D0CDE1"/>
<path d="M388.114 324.179C390.416 324.179 392.281 322.313 392.281 320.01C392.281 317.707 390.416 315.84 388.114 315.84C385.812 315.84 383.946 317.707 383.946 320.01C383.946 322.313 385.812 324.179 388.114 324.179Z" fill="#D0CDE1"/>
<path d="M18.7545 276.751C21.0562 276.751 22.9222 274.884 22.9222 272.582C22.9222 270.279 21.0562 268.412 18.7545 268.412C16.4527 268.412 14.5868 270.279 14.5868 272.582C14.5868 274.884 16.4527 276.751 18.7545 276.751Z" fill="#D0CDE1"/>
<path d="M44.8024 342.421H31.2575V328.87H44.8024V342.421ZM32.2994 341.379H43.7605V329.912H32.2994V341.379Z" fill="#D0CDE1"/>
<path d="M130.76 294.472C125.609 294.472 120.573 296 116.289 298.863C112.005 301.727 108.667 305.797 106.695 310.558C104.724 315.32 104.208 320.56 105.213 325.615C106.218 330.67 108.699 335.313 112.342 338.958C115.985 342.602 120.626 345.084 125.679 346.09C130.732 347.095 135.969 346.579 140.729 344.607C145.488 342.634 149.556 339.294 152.419 335.009C155.281 330.723 156.808 325.685 156.808 320.531C156.808 313.62 154.064 306.991 149.179 302.104C144.294 297.217 137.669 294.472 130.76 294.472ZM126.267 332.193L115.063 320.983L118.205 317.839L126.278 325.915L143.316 308.869L146.458 312.014L126.267 332.193Z" fill="#F99F45"/>
</g>
<defs>
<clipPath id="clip0">
<rect width="522" height="429" fill="white"/>
</clipPath>
</defs>
</svg>
