<svg width="30" height="30" viewBox="0 0 30 30" fill="none" xmlns="http://www.w3.org/2000/svg">
<circle cx="15" cy="15" r="15" fill="#E8F7F6"/>
<path d="M24.8842 13.4118C24.7917 13.3194 24.659 13.2793 24.5309 13.3051L21.1646 13.9826C21.0235 14.011 20.9094 14.1147 20.8678 14.2525C20.8261 14.3903 20.8637 14.5399 20.9655 14.6417L21.4209 15.0971L19.6335 16.8846L18.2497 15.5008C18.1765 15.4276 18.0771 15.3864 17.9735 15.3864C17.87 15.3864 17.7706 15.4276 17.6974 15.5008L15.9994 17.1988L16.6363 14.9103C16.7912 14.354 16.6796 13.7712 16.3303 13.3114C16.1163 13.0297 15.8339 12.8221 15.5145 12.7031L16.0237 11.2487C16.1642 11.261 16.3043 11.2673 16.4428 11.2673C17.5707 11.2673 18.6704 10.8698 19.5394 10.148L19.6324 10.0707C20.0906 9.69007 20.1688 9.0286 19.8107 8.56488C19.6292 8.32971 19.3668 8.18222 19.0719 8.14964C18.7768 8.11703 18.4886 8.20358 18.2603 8.39322L18.1546 8.48106C17.9988 8.61047 17.8284 8.72222 17.6482 8.81311C17.0459 9.11691 16.2937 8.98161 15.794 8.487C16.521 8.26182 17.0505 7.5832 17.0505 6.78318C17.0506 5.79994 16.2506 5 15.2673 5C14.284 5 13.484 5.79994 13.484 6.78322C13.484 7.17452 13.611 7.53653 13.8255 7.83088C13.4198 7.91822 13.0547 8.12738 12.7754 8.4231C12.7591 8.43739 12.7435 8.45286 12.7293 8.47028C12.0408 9.31608 11.1228 9.92275 10.0747 10.2246C9.79092 10.3064 9.56633 10.4949 9.43154 10.7337L8.63097 9.93318C8.28069 9.58293 7.71081 9.58297 7.36048 9.93318L6.31279 10.9809L5.2651 12.0286C5.09538 12.1983 5.00195 12.4238 5.00195 12.6639C5.00195 12.9039 5.09542 13.1294 5.26506 13.2991L8.15175 16.1858C8.32147 16.3555 8.54703 16.4489 8.78702 16.4489C9.02704 16.4489 9.25261 16.3555 9.42228 16.1858L10.5071 15.101L9.99271 16.4498C9.91584 16.6514 10.0169 16.8771 10.2185 16.954C10.2643 16.9714 10.3113 16.9797 10.3576 16.9797C10.5149 16.9797 10.6632 16.8839 10.7227 16.7282L12.0037 13.3691H14.4492H14.872C15.2032 13.3691 15.508 13.5203 15.7083 13.784C15.9086 14.0477 15.9726 14.3819 15.8838 14.7009L14.9962 17.8899C14.9563 18.0334 14.8244 18.1336 14.6754 18.1336C14.5417 18.1336 14.4593 18.0605 14.4221 18.0168C14.3849 17.9732 14.3255 17.8803 14.3465 17.7483L14.8187 14.7793C14.8367 14.6664 14.8043 14.5513 14.7301 14.4644C14.6559 14.3774 14.5473 14.3274 14.433 14.3274H13.507C13.3597 14.3274 13.2249 14.4102 13.1584 14.5417C13.1356 14.5867 10.8693 19.0677 10.1056 20.5818C10.0292 20.7334 9.86299 20.8199 9.69257 20.7966L9.67406 20.7941C9.55778 20.7784 9.45677 20.7115 9.39681 20.6106C9.33686 20.5098 9.32651 20.389 9.36834 20.2794L9.60902 19.6483C9.68589 19.4468 9.58481 19.2211 9.38326 19.1442C9.18175 19.0673 8.95603 19.1685 8.87912 19.37L8.63843 20.001C8.51114 20.3348 8.54278 20.7024 8.72522 21.0096C8.90767 21.3167 9.21534 21.5204 9.56907 21.5683L9.58758 21.5707C9.64113 21.578 9.69449 21.5815 9.74749 21.5815C10.1897 21.5815 10.601 21.3344 10.8032 20.9336C11.4702 19.611 13.2844 16.0236 13.7471 15.1086H13.9754L13.575 17.6256C13.5237 17.9481 13.6159 18.2756 13.828 18.524C13.9644 18.6838 14.141 18.7994 14.3365 18.8618L9.9854 23.2129C9.91217 23.2862 9.871 23.3855 9.871 23.4891C9.871 23.5927 9.91217 23.6921 9.9854 23.7653L11.1057 24.8856C11.182 24.9618 11.282 25 11.3819 25C11.4819 25 11.5818 24.9618 11.6581 24.8856L13.8119 22.7318C13.9644 22.5793 13.9644 22.332 13.8119 22.1794C13.6593 22.0269 13.4121 22.0269 13.2595 22.1794L11.3819 24.057L10.814 23.4891L17.9736 16.3294L19.3573 17.7131C19.4306 17.7863 19.5299 17.8275 19.6335 17.8275C19.7371 17.8275 19.8364 17.7863 19.9097 17.7131L22.2495 15.3733C22.402 15.2207 22.402 14.9734 22.2495 14.8209L22.0332 14.6045L24.1092 14.1868L23.6914 16.2627L23.3699 15.9412C23.2173 15.7887 22.9701 15.7887 22.8175 15.9412L19.6335 19.1252L18.2498 17.7415C18.0972 17.589 17.85 17.589 17.6974 17.7415L15.469 19.9699C15.3164 20.1224 15.3164 20.3697 15.469 20.5223C15.6215 20.6748 15.8688 20.6748 16.0214 20.5223L17.9735 18.5701L19.3573 19.9539C19.5098 20.1063 19.7571 20.1063 19.9097 19.9539L23.0937 16.7699L23.6543 17.3305C23.7561 17.4323 23.9057 17.4699 24.0435 17.4282C24.1813 17.3866 24.2851 17.2725 24.3135 17.1314L24.9909 13.765C25.0167 13.6369 24.9766 13.5043 24.8842 13.4118ZM15.2673 5.78119C15.8198 5.78119 16.2693 6.23073 16.2693 6.78322C16.2693 7.33576 15.8198 7.7853 15.2673 7.7853C14.7148 7.7853 14.2652 7.33576 14.2652 6.78322C14.2652 6.23073 14.7148 5.78119 15.2673 5.78119ZM11.4023 12.7045L10.9269 12.2291C11.1527 12.1555 11.3744 12.0712 11.5915 11.977L11.4023 12.7045ZM10.0841 11.3496C10.0379 11.1894 10.1307 11.0215 10.291 10.9753C10.9331 10.7903 11.532 10.5047 12.0715 10.1318L11.851 10.9797C11.4119 11.2224 10.9444 11.4164 10.4582 11.5565C10.4492 11.559 10.4397 11.5613 10.4304 11.5631C10.3583 11.5768 10.2862 11.5625 10.2257 11.5279L10.1113 11.4135C10.1 11.3936 10.0906 11.3723 10.0841 11.3496ZM7.91283 10.4856C7.93568 10.4627 7.96571 10.4513 7.99571 10.4513C8.02571 10.4513 8.05574 10.4627 8.07855 10.4856L9.50235 11.9094C9.5684 11.9995 9.64715 12.0782 9.73585 12.1429L10.9653 13.3723C11.011 13.418 11.011 13.4923 10.9653 13.538L10.1938 14.3095L9.33576 13.4515L9.49919 13.288C9.65172 13.1355 9.65172 12.8882 9.49919 12.7356L8.61996 11.8564C8.46739 11.7039 8.22015 11.7039 8.06754 11.8564L7.90412 12.0198L7.14132 11.257L7.91283 10.4856ZM8.44747 13.235C8.41009 13.2724 8.36646 13.278 8.34377 13.278C8.32111 13.278 8.27749 13.2724 8.24011 13.235V13.235L8.12062 13.1156C8.08328 13.0782 8.07766 13.0345 8.07766 13.0119C8.07766 12.9892 8.08328 12.9456 8.12066 12.9082L8.34377 12.6851L8.67058 13.0119L8.44747 13.235ZM8.86986 15.6334C8.84147 15.6618 8.80916 15.6677 8.78702 15.6677C8.76491 15.6677 8.73253 15.6618 8.70417 15.6334L5.81748 12.7467C5.78908 12.7183 5.78314 12.686 5.78314 12.6639C5.78314 12.6417 5.78908 12.6094 5.81748 12.581L6.58894 11.8095L7.38826 12.6088C7.3283 12.7329 7.29647 12.8699 7.29647 13.0119C7.29647 13.2598 7.39302 13.4928 7.56824 13.668L7.68769 13.7874V13.7874C7.86291 13.9626 8.09594 14.0592 8.34377 14.0592C8.48571 14.0592 8.62273 14.0274 8.74686 13.9674L9.6414 14.8619L8.86986 15.6334ZM14.4492 12.5879H12.2398L13.0422 9.50321C13.1857 8.95169 13.6839 8.56652 14.2538 8.56652C14.6059 8.56652 14.9315 8.70847 15.1707 8.96622C15.9046 9.75694 17.0681 9.98079 18.0001 9.51063C18.2328 9.39326 18.4528 9.24909 18.6538 9.08199L18.7596 8.99415C18.8233 8.94118 18.9037 8.91689 18.9862 8.92619C19.0684 8.93525 19.1417 8.97649 19.1925 9.04239C19.2907 9.16945 19.2641 9.36123 19.1333 9.46985L19.0403 9.54715C18.3113 10.1527 17.3888 10.4862 16.4429 10.4862C16.2375 10.4862 16.0275 10.4698 15.8188 10.4373C15.6326 10.4081 15.4524 10.5164 15.3901 10.6942L14.7272 12.5879H14.4492Z" fill="#2D7992"/>
<path d="M14.6479 20.9675C14.5452 20.9675 14.4444 21.0093 14.3718 21.082C14.2991 21.1546 14.2573 21.2554 14.2573 21.3581C14.2573 21.4612 14.2991 21.5616 14.3718 21.6342C14.4444 21.7073 14.5452 21.7487 14.6479 21.7487C14.7506 21.7487 14.8514 21.7073 14.924 21.6342C14.9967 21.5616 15.0385 21.4612 15.0385 21.3581C15.0385 21.2554 14.9967 21.1546 14.924 21.082C14.8514 21.0093 14.7506 20.9675 14.6479 20.9675Z" fill="#2D7992"/>
<path d="M9.80026 18.4419C9.90299 18.4419 10.0038 18.4002 10.0764 18.3275C10.149 18.2549 10.1909 18.1541 10.1909 18.0514C10.1909 17.9486 10.1491 17.8478 10.0764 17.7752C10.0034 17.7025 9.90299 17.6608 9.80026 17.6608C9.69754 17.6608 9.59676 17.7025 9.52372 17.7752C9.45111 17.8478 9.40967 17.9486 9.40967 18.0514C9.40967 18.1541 9.45111 18.2549 9.52372 18.3275C9.59676 18.4001 9.69715 18.4419 9.80026 18.4419Z" fill="#2D7992"/>
</svg>
