<svg width="30" height="30" viewBox="0 0 30 30" fill="none" xmlns="http://www.w3.org/2000/svg">
<circle cx="15" cy="15" r="15" fill="#E8F7F6"/>
<path d="M21.4955 12.6384C21.3429 12.4859 21.0956 12.4859 20.943 12.6384C20.7905 12.7909 20.7905 13.0383 20.943 13.1908C20.949 13.1968 20.9553 13.203 20.9613 13.2086C21.0367 13.2792 21.1326 13.3141 21.2283 13.3141C21.3325 13.3141 21.4366 13.2726 21.5135 13.1905C21.661 13.0331 21.6529 12.7859 21.4955 12.6384Z" fill="#2D7992"/>
<path d="M20.7018 11.9968C20.4783 11.845 20.2487 11.7095 20.0195 11.5942C18.7232 10.9419 17.3495 10.811 16.0469 11.2155C15.8408 11.2795 15.7256 11.4984 15.7897 11.7044C15.8537 11.9104 16.0724 12.0255 16.2786 11.9616C17.3842 11.6182 18.5563 11.7325 19.6683 12.292C19.8644 12.3908 20.0701 12.5123 20.2631 12.6432C20.3303 12.6888 20.4066 12.7107 20.4821 12.7107C20.6072 12.7107 20.7301 12.6508 20.8056 12.5394C20.9268 12.3609 20.8803 12.118 20.7018 11.9968Z" fill="#2D7992"/>
<path d="M24.2554 17.0519C24.0953 16.7159 23.8301 16.1596 23.8253 15.9756C24.2821 14.8496 24.1155 13.6037 23.3546 12.4639C22.1846 10.7111 19.7865 9.43884 17.6527 9.43884C16.5247 9.43884 15.4233 9.70782 14.4323 10.2213C14.148 8.66361 12.782 7.47881 11.1434 7.47881C9.29947 7.47881 7.79932 8.97896 7.79932 10.8229C7.79932 11.9961 8.3972 13.0627 9.39853 13.6762C9.6872 13.8531 9.75251 14.006 9.77571 14.2565V15.5902V16.5423C9.77571 16.9784 10.1305 17.3333 10.5665 17.3333H10.6993C10.9139 19.0433 11.7415 20.5958 13.0552 21.7382C13.0675 21.7768 13.1037 21.9577 12.9484 22.4975C12.8275 22.9179 12.642 23.385 12.4784 23.7971C12.3688 24.0728 12.2742 24.311 12.217 24.4911C12.1793 24.6098 12.2005 24.7394 12.2741 24.84C12.3477 24.9405 12.4648 25 12.5893 25H18.1653C18.3485 25 18.6001 24.918 18.7585 24.5271C18.8275 24.3571 18.8725 24.1525 18.9202 23.9358C18.9666 23.7247 19.0754 23.2303 19.1836 23.1705C19.1837 23.1705 19.19 23.1695 19.2053 23.1718C19.2253 23.175 19.2456 23.1766 19.2659 23.1766C19.8499 23.1766 20.327 23.203 20.748 23.2264C21.9827 23.2949 22.728 23.3362 23.3818 22.3945C23.7143 21.9155 23.6766 21.217 23.6367 20.4774C23.6162 20.0963 23.595 19.7028 23.6326 19.3758C23.7008 19.3086 23.8715 19.1914 23.9785 19.1179C24.3468 18.865 24.6945 18.6262 24.6945 18.2631C24.6946 17.9872 24.5277 17.6231 24.2554 17.0519ZM9.80673 13.01C9.03896 12.5396 8.5806 11.7221 8.5806 10.8229C8.5806 9.40966 9.73032 8.26002 11.1435 8.26002C12.5567 8.26002 13.7064 9.4097 13.7064 10.8229C13.7064 11.7221 13.248 12.5397 12.4802 13.01C12.1154 13.2337 11.8985 13.4945 11.7956 13.8469L11.1434 13.8467L10.4915 13.8469C10.3885 13.4945 10.1717 13.2337 9.80673 13.01ZM11.73 14.6282V15.1995H10.557V14.6282H11.73V14.6282ZM10.5666 16.552C10.5623 16.552 10.557 16.5466 10.557 16.5422V15.9808H11.73V16.5422C11.73 16.5466 11.7247 16.552 11.7203 16.552H10.5666ZM23.5364 18.4738C23.2002 18.7048 22.9098 18.9042 22.867 19.2059C22.8081 19.6198 22.8328 20.0772 22.8566 20.5194C22.8862 21.0681 22.9198 21.6901 22.7401 21.9489C22.3514 22.5089 22.0152 22.5143 20.7913 22.4463C20.3875 22.4239 19.8864 22.3961 19.2923 22.3952C19.0641 22.3684 18.6781 22.4112 18.4204 22.912C18.2896 23.1663 18.2193 23.4859 18.1572 23.7678C18.1261 23.9094 18.0823 24.1085 18.0413 24.2187H13.1517C13.1688 24.1755 13.1864 24.131 13.2046 24.0854C13.7673 22.6685 14.1237 21.6293 13.5812 21.1603C12.4314 20.1658 11.6981 18.8192 11.4878 17.3332H11.7204C12.1565 17.3332 12.5113 16.9784 12.5113 16.5422V15.5901V14.2572C12.5345 14.0062 12.5996 13.8532 12.8885 13.6762C13.8131 13.1097 14.3933 12.1567 14.4768 11.0903C15.4355 10.5206 16.5291 10.22 17.6527 10.22C19.514 10.22 21.6859 11.3712 22.7049 12.8977C23.1416 13.5519 23.5634 14.5696 23.0928 15.7028C22.9395 16.0719 23.1668 16.5837 23.5502 17.388C23.6744 17.6484 23.8541 18.0254 23.9016 18.2015C23.8209 18.2785 23.6474 18.3976 23.5364 18.4738Z" fill="#2D7992"/>
<path d="M13.0597 10.271C12.9444 9.84342 12.6576 9.501 12.2304 9.28057C12.0387 9.18178 11.8031 9.25694 11.7042 9.44873C11.6053 9.64049 11.6805 9.87607 11.8723 9.97494C12.1055 10.0953 12.2473 10.2587 12.3055 10.4744C12.3976 10.816 12.2582 11.1856 12.1971 11.2815C12.0811 11.4635 12.1346 11.705 12.3165 11.8209C12.3816 11.8625 12.4542 11.8822 12.5261 11.8822C12.6551 11.8822 12.7814 11.8184 12.8558 11.7015C13.0224 11.4402 13.2142 10.8435 13.0597 10.271Z" fill="#2D7992"/>
<path d="M11.144 5C10.9283 5 10.7534 5.17496 10.7534 5.39062V6.50421C10.7534 6.71988 10.9283 6.89484 11.144 6.89484C11.3597 6.89484 11.5347 6.71988 11.5347 6.50421V5.39062C11.5347 5.17496 11.3597 5 11.144 5Z" fill="#2D7992"/>
<path d="M6.80939 10.4478H5.6958C5.48006 10.4478 5.30518 10.6228 5.30518 10.8385C5.30518 11.0542 5.48006 11.2291 5.6958 11.2291H6.80943C7.02513 11.2291 7.20001 11.0542 7.20001 10.8385C7.20001 10.6228 7.02509 10.4478 6.80939 10.4478Z" fill="#2D7992"/>
<path d="M9.31442 6.88917L8.75778 5.92518C8.64989 5.73835 8.41095 5.6744 8.22415 5.78222C8.03735 5.89011 7.97333 6.12897 8.08122 6.31581L8.63786 7.27979C8.71024 7.40514 8.84149 7.47518 8.97649 7.47518C9.04278 7.47518 9.10997 7.4583 9.17145 7.42276C9.35829 7.31487 9.42231 7.076 9.31442 6.88917Z" fill="#2D7992"/>
<path d="M7.58526 8.33299L6.62116 7.77636C6.43436 7.66854 6.19542 7.73257 6.08757 7.91932C5.97968 8.10616 6.0437 8.34502 6.23054 8.45291L7.19463 9.00955C7.25612 9.0451 7.32331 9.06198 7.38956 9.06198C7.52455 9.06198 7.65584 8.99194 7.72823 8.86659C7.83612 8.67983 7.77209 8.44088 7.58526 8.33299Z" fill="#2D7992"/>
<path d="M16.1999 7.91929C16.092 7.73246 15.8531 7.66843 15.6663 7.77632L14.7022 8.33296C14.5154 8.44085 14.4514 8.6798 14.5592 8.86655C14.6316 8.9919 14.7629 9.06194 14.8979 9.06194C14.9641 9.06194 15.0313 9.04507 15.0928 9.00952L16.0569 8.45288C16.2438 8.34499 16.3078 8.10613 16.1999 7.91929Z" fill="#2D7992"/>
<path d="M7.72842 12.8104C7.62061 12.6236 7.38178 12.5596 7.19491 12.6674L6.23058 13.224C6.04374 13.3318 5.97968 13.5707 6.08753 13.7576C6.15987 13.8829 6.2912 13.953 6.4262 13.953C6.49245 13.953 6.5596 13.9361 6.62112 13.9006L7.58542 13.344C7.77225 13.2362 7.83631 12.9972 7.72842 12.8104Z" fill="#2D7992"/>
<path d="M9.0916 14.3932C8.90484 14.2854 8.6659 14.3494 8.55801 14.5362L8.08168 15.3613C7.97383 15.5481 8.03785 15.7871 8.22469 15.8949C8.28621 15.9304 8.35336 15.9473 8.41961 15.9473C8.55461 15.9473 8.68594 15.8773 8.75828 15.7519L9.23461 14.9268C9.3425 14.74 9.27847 14.5011 9.0916 14.3932Z" fill="#2D7992"/>
<path d="M14.0631 5.78223C13.8762 5.67434 13.6374 5.73836 13.5295 5.9252L12.9728 6.88918C12.8649 7.07601 12.9289 7.31492 13.1158 7.42277C13.1773 7.45832 13.2445 7.47519 13.3107 7.47519C13.4457 7.47519 13.577 7.40515 13.6494 7.2798L14.206 6.31582C14.3139 6.12898 14.2499 5.89012 14.0631 5.78223Z" fill="#2D7992"/>
</svg>
