<svg width="152" height="153" viewBox="0 0 152 153" fill="none" xmlns="http://www.w3.org/2000/svg">
<path d="M134.818 23.6971C146.145 34.7677 153.472 46.912 151.75 57.7296C150.068 68.5146 139.347 78.0038 128.013 91.1603C116.686 104.349 104.679 121.24 87.3862 125.446C70.0545 129.652 47.4388 121.207 29.6267 108.018C11.8146 94.8294 -1.19395 76.9591 0.0869945 60.0702C1.36794 43.1813 16.8994 27.3029 34.7072 16.234C52.515 5.16512 72.6164 -1.10624 90.3484 0.774485C108.08 2.65521 123.45 12.6282 134.818 23.6971Z" fill="#F2F2F2"/>
<path fill-rule="evenodd" clip-rule="evenodd" d="M72.445 74.1141C84.1294 74.1141 90.4043 80.2829 91.5706 86.5474C92.7563 92.9555 91.4039 98.2609 91.7415 106.008C91.9708 111.224 94.8768 114.709 96.7398 119.359C98.6028 124.01 48.8816 125.183 49.1781 120.833C49.4745 116.483 53.0317 112.028 53.1594 106.61C53.2892 101.085 52.2939 97.7702 52.4302 88.7838C52.5319 81.69 60.7564 74.1141 72.445 74.1141Z" fill="black"/>
<path fill-rule="evenodd" clip-rule="evenodd" d="M24.4706 151.879C24.0227 147.512 26.4872 131.94 34.1059 120.312C62.5615 107.859 98.2636 113.791 112.38 120.312C117.16 124.148 120.615 149.637 119.57 151.467" fill="#FFD98E"/>
<path fill-rule="evenodd" clip-rule="evenodd" d="M54.3848 94.3336C54.3843 93.839 54.5695 93.3555 54.9168 92.944C55.2641 92.5326 55.7579 92.2117 56.3359 92.022C56.914 91.8322 57.5502 91.7821 58.1642 91.878C58.7782 91.974 59.3425 92.2115 59.7857 92.5608C60.2289 92.91 60.5311 93.3552 60.6542 93.8402C60.7772 94.3251 60.7156 94.8279 60.4771 95.2852C60.2385 95.7424 59.8338 96.1335 59.314 96.4091C58.7942 96.6846 58.1828 96.8322 57.5568 96.8333C57.1408 96.8339 56.7286 96.7698 56.3439 96.6445C55.9593 96.5192 55.6096 96.3352 55.315 96.1031C55.0204 95.8709 54.7866 95.5951 54.627 95.2915C54.4674 94.9879 54.385 94.6624 54.3848 94.3336V94.3336Z" fill="#D18C65"/>
<path fill-rule="evenodd" clip-rule="evenodd" d="M83.4136 94.3336C83.4131 93.8388 83.5984 93.355 83.946 92.9434C84.2936 92.5319 84.7879 92.211 85.3663 92.0214C85.9447 91.8318 86.5812 91.782 87.1954 91.8784C87.8097 91.9747 88.3739 92.2128 88.8169 92.5625C89.2598 92.9123 89.5615 93.358 89.6838 93.8432C89.8061 94.3285 89.7436 94.8315 89.504 95.2887C89.2645 95.7458 88.8588 96.1366 88.3381 96.4115C87.8175 96.6865 87.2054 96.8332 86.5792 96.8332C85.74 96.8332 84.9351 96.5699 84.3415 96.1012C83.7479 95.6325 83.4141 94.9967 83.4136 94.3336V94.3336Z" fill="#D18C65"/>
<path fill-rule="evenodd" clip-rule="evenodd" d="M85.0514 51.2736C81.8577 49.3057 81.0701 51.5044 80.5702 52.8124C80.0704 54.1204 80.1072 56.4269 82.6107 56.3773C84.8047 57.9315 86.8473 55.9191 87.4748 54.8966C88.1023 53.8742 89.6429 51.6566 85.0514 51.2736Z" fill="#FF8364"/>
<path d="M87.1635 49.8717C86.0621 50.1777 85.4433 50.5949 85.0928 51.3198" stroke="#FFD98E" stroke-width="2.83" stroke-linecap="round" stroke-linejoin="round"/>
<path fill-rule="evenodd" clip-rule="evenodd" d="M64.2256 62.9528C64.2252 62.3734 64.4421 61.8069 64.849 61.325C65.2558 60.843 65.8344 60.4671 66.5115 60.2448C67.1887 60.0226 67.934 59.9639 68.6533 60.0762C69.3726 60.1885 70.0337 60.4668 70.5529 60.8759C71.0721 61.285 71.4262 61.8065 71.5705 62.3746C71.7147 62.9426 71.6427 63.5317 71.3634 64.0674C71.084 64.6031 70.61 65.0614 70.0012 65.3843C69.3924 65.7072 68.6762 65.8802 67.9429 65.8816C67.4554 65.8825 66.9723 65.8074 66.5215 65.6607C66.0707 65.5139 65.6609 65.2983 65.3157 65.0263C64.9704 64.7543 64.6964 64.4311 64.5093 64.0753C64.3223 63.7195 64.2259 63.3381 64.2256 62.9528V62.9528Z" fill="#6BD5E1"/>
<path fill-rule="evenodd" clip-rule="evenodd" d="M38.5435 64.2455L48.8148 62.1853L52.9757 75.1417L42.7065 77.1934L38.5435 64.2455Z" fill="#DFDFDF"/>
<path fill-rule="evenodd" clip-rule="evenodd" d="M40.7075 65.6731L47.7743 64.2557L48.3196 65.9535L41.2528 67.3674L40.7075 65.6731Z" fill="#FF8364"/>
<path d="M41.8452 69.2141L48.9121 67.7967" stroke="#6BD5E1" stroke-width="3.11" stroke-linecap="round" stroke-linejoin="round"/>
<path d="M42.4385 71.0571L49.5074 69.6398" stroke="#6BD5E1" stroke-width="3.11" stroke-linecap="round" stroke-linejoin="round"/>
<path d="M43.0596 72.9806L50.1329 71.5614" stroke="#6BD5E1" stroke-width="3.11" stroke-linecap="round" stroke-linejoin="round"/>
<path d="M43.6523 74.8394L46.4263 74.2817" stroke="#6BD5E1" stroke-width="3.11" stroke-linecap="round" stroke-linejoin="round"/>
<path d="M49.6138 73.6387L50.7259 73.42" stroke="#6BD5E1" stroke-width="3.11" stroke-linecap="round" stroke-linejoin="round"/>
<path fill-rule="evenodd" clip-rule="evenodd" d="M31.7344 34.8275L58.3141 24.8272L66.6208 38.6095L40.0411 48.6115L31.7344 34.8275Z" fill="#DFDFDF"/>
<path d="M40.9258 45.563L43.5699 39.4473L48.4968 40.1825L50.4312 32.6408L55.1915 33.2666L56.5763 27.9458" stroke="#FF8364" stroke-width="3.11" stroke-linecap="round" stroke-linejoin="round"/>
<path fill-rule="evenodd" clip-rule="evenodd" d="M42.6369 39.8405C42.5209 39.6472 42.4801 39.4312 42.5195 39.2195C42.5589 39.0079 42.6767 38.8103 42.8582 38.6516C43.0397 38.4928 43.2766 38.3802 43.539 38.3278C43.8015 38.2754 44.0777 38.2856 44.3328 38.3572C44.5879 38.4287 44.8105 38.5584 44.9723 38.7298C45.1342 38.9013 45.2282 39.1068 45.2424 39.3204C45.2565 39.534 45.1903 39.7461 45.052 39.93C44.9137 40.1138 44.7095 40.2612 44.4653 40.3534C44.3026 40.4149 44.1263 40.4503 43.9463 40.4578C43.7663 40.4652 43.5862 40.4445 43.4163 40.3969C43.2464 40.3492 43.0902 40.2756 42.9564 40.1801C42.8226 40.0846 42.7141 39.9692 42.6369 39.8405V39.8405Z" fill="#FFD98E"/>
<path fill-rule="evenodd" clip-rule="evenodd" d="M49.2586 33.2785C49.142 33.085 49.1007 32.8684 49.1399 32.6563C49.179 32.4441 49.2969 32.2459 49.4786 32.0867C49.6603 31.9275 49.8977 31.8145 50.1607 31.7619C50.4238 31.7093 50.7006 31.7195 50.9563 31.7912C51.212 31.863 51.435 31.993 51.5971 32.1649C51.7593 32.3367 51.8533 32.5427 51.8673 32.7568C51.8813 32.9709 51.8146 33.1835 51.6757 33.3677C51.5368 33.5518 51.332 33.6993 51.087 33.7915C50.9244 33.8529 50.748 33.8883 50.568 33.8958C50.388 33.9033 50.2079 33.8826 50.038 33.8349C49.8682 33.7873 49.7119 33.7136 49.5781 33.6181C49.4444 33.5226 49.3358 33.4072 49.2586 33.2785V33.2785Z" fill="#FFD98E"/>
<path fill-rule="evenodd" clip-rule="evenodd" d="M99.6069 44.9014C99.6069 44.1673 99.8825 43.4497 100.399 42.8394C100.915 42.2291 101.649 41.7536 102.507 41.473C103.366 41.1923 104.31 41.1193 105.221 41.263C106.133 41.4067 106.969 41.7607 107.625 42.2803C108.282 42.7999 108.728 43.4616 108.908 44.1817C109.089 44.9019 108.994 45.6481 108.638 46.3259C108.281 47.0037 107.678 47.5827 106.905 47.9896C106.131 48.3964 105.223 48.6129 104.294 48.6115C103.05 48.6102 101.857 48.2186 100.978 47.5229C100.1 46.8272 99.6064 45.8843 99.6069 44.9014V44.9014Z" fill="#FFD98E"/>
<path d="M112.228 44.2534C112.454 44.8878 112.491 45.5549 112.336 46.2024C112.181 46.85 111.839 47.4605 111.336 47.9862C110.833 48.512 110.184 48.9387 109.437 49.2332C108.691 49.5276 107.869 49.6818 107.035 49.6836C106.681 49.684 106.329 49.657 105.981 49.6033" stroke="#FF8364" stroke-width="3.11" stroke-linecap="round" stroke-linejoin="round"/>
<path fill-rule="evenodd" clip-rule="evenodd" d="M101.455 47.719L99.6548 50.27L107.087 51.2138L106.274 48.2422" fill="#FFD98E"/>
<path fill-rule="evenodd" clip-rule="evenodd" d="M103.195 44.9014C103.195 44.7283 103.26 44.559 103.382 44.4151C103.503 44.2711 103.676 44.159 103.879 44.0927C104.081 44.0264 104.304 44.0091 104.519 44.0429C104.734 44.0767 104.931 44.16 105.086 44.2824C105.241 44.4049 105.346 44.5608 105.389 44.7306C105.432 44.9004 105.41 45.0764 105.326 45.2364C105.242 45.3963 105.1 45.5331 104.918 45.6292C104.736 45.7254 104.522 45.7768 104.303 45.7768C104.009 45.7768 103.727 45.6845 103.519 45.5204C103.312 45.3562 103.195 45.1336 103.195 44.9014Z" fill="#1B3C87"/>
<path fill-rule="evenodd" clip-rule="evenodd" d="M110.822 44.026C110.822 43.8528 110.887 43.6836 111.008 43.5396C111.13 43.3957 111.303 43.2835 111.506 43.2172C111.708 43.151 111.931 43.1336 112.146 43.1674C112.361 43.2012 112.558 43.2845 112.713 43.407C112.868 43.5294 112.973 43.6854 113.016 43.8552C113.059 44.025 113.037 44.201 112.953 44.3609C112.869 44.5209 112.727 44.6576 112.545 44.7538C112.363 44.85 112.149 44.9013 111.93 44.9013C111.636 44.9009 111.355 44.8085 111.147 44.6444C110.939 44.4804 110.822 44.258 110.822 44.026V44.026Z" fill="#FFD98E"/>
<path fill-rule="evenodd" clip-rule="evenodd" d="M21.8351 17.0103L28.7786 18.4927L21.9411 38.4967L14.9976 37.0195L21.8351 17.0103Z" fill="#FF8364"/>
<path d="M17.2046 30.5617L21.028 31.3797" stroke="#FFD98E" stroke-width="4.23" stroke-linecap="round" stroke-linejoin="round"/>
<path d="M15.9907 34.1112L19.8163 34.9273" stroke="#FFD98E" stroke-width="4.23" stroke-linecap="round" stroke-linejoin="round"/>
<path d="M18.416 27.0174L22.2416 27.8352" stroke="#FFD98E" stroke-width="4.23" stroke-linecap="round" stroke-linejoin="round"/>
<path d="M19.6299 23.4663L23.4532 24.2824" stroke="#FFD98E" stroke-width="4.23" stroke-linecap="round" stroke-linejoin="round"/>
<path d="M20.8413 19.9186L24.6669 20.7347" stroke="#FFD98E" stroke-width="4.23" stroke-linecap="round" stroke-linejoin="round"/>
<path fill-rule="evenodd" clip-rule="evenodd" d="M93.3514 12.8624L119.57 17.8635L115.242 31.9894L89.0347 26.9867L93.3514 12.8624Z" fill="#DFDFDF"/>
<path fill-rule="evenodd" clip-rule="evenodd" d="M109.033 28.1766C109.164 27.7473 109.453 27.3584 109.864 27.0591C110.275 26.7597 110.789 26.5633 111.341 26.4948C111.893 26.4263 112.459 26.4886 112.966 26.674C113.473 26.8594 113.899 27.1596 114.191 27.5364C114.482 27.9132 114.626 28.3499 114.603 28.7912C114.58 29.2324 114.393 29.6585 114.064 30.0154C113.734 30.3724 113.279 30.6442 112.754 30.7965C112.23 30.9488 111.66 30.9748 111.116 30.8712C110.388 30.7322 109.759 30.3702 109.368 29.8649C108.977 29.3596 108.857 28.7523 109.033 28.1766V28.1766Z" fill="#FF8364"/>
<path fill-rule="evenodd" clip-rule="evenodd" d="M109.868 30.0146L107.983 33.8974L110.615 33.4273L112.304 34.6668L112.644 30.4369" fill="#FF8364"/>
<path d="M94.9009 16.5264L115.599 20.4759" stroke="#6BD5E1" stroke-width="3.11" stroke-linecap="round" stroke-linejoin="round"/>
<path d="M93.7021 20.4024L106.202 22.7874" stroke="#6BD5E1" stroke-width="3.11" stroke-linecap="round" stroke-linejoin="round"/>
<path fill-rule="evenodd" clip-rule="evenodd" d="M51.7445 14.7893L48.9316 12.3803L52.9779 11.6571L57.0263 10.9338L55.7951 14.0661L54.5639 17.1966L51.7445 14.7893Z" fill="#6BD5E1"/>
<path fill-rule="evenodd" clip-rule="evenodd" d="M107.632 65.2953L103.779 66.5126L104.37 63.2641L104.96 60.0156L108.221 62.0416L111.484 64.0694L107.632 65.2953Z" fill="#FFD98E"/>
<path d="M76.0005 26.1625C76.0005 25.848 76.1185 25.5406 76.3396 25.2791C76.5607 25.0176 76.875 24.8138 77.2427 24.6935C77.6104 24.5731 78.015 24.5416 78.4054 24.603C78.7957 24.6644 79.1543 24.8158 79.4357 25.0382C79.7172 25.2605 79.9088 25.5439 79.9865 25.8523C80.0641 26.1607 80.0243 26.4804 79.8719 26.771C79.7196 27.0615 79.4617 27.3099 79.1308 27.4846C78.7999 27.6593 78.4108 27.7526 78.0128 27.7526C77.4791 27.7526 76.9673 27.585 76.5899 27.2868C76.2125 26.9886 76.0005 26.5842 76.0005 26.1625Z" stroke="#FF8364" stroke-width="3.11" stroke-linecap="round" stroke-linejoin="round"/>
<path fill-rule="evenodd" clip-rule="evenodd" d="M19.7773 52.8004C19.7773 52.4859 19.8954 52.1785 20.1165 51.917C20.3376 51.6555 20.6519 51.4517 21.0196 51.3314C21.3872 51.211 21.7918 51.1796 22.1822 51.2409C22.5725 51.3023 22.9311 51.4537 23.2125 51.6761C23.4939 51.8984 23.6856 52.1818 23.7632 52.4902C23.8409 52.7986 23.801 53.1184 23.6487 53.4089C23.4964 53.6994 23.2385 53.9478 22.9076 54.1225C22.5767 54.2972 22.1876 54.3905 21.7896 54.3905C21.2559 54.3905 20.7441 54.2229 20.3667 53.9248C19.9894 53.6266 19.7773 53.2221 19.7773 52.8004Z" fill="#FFD98E"/>
<path fill-rule="evenodd" clip-rule="evenodd" d="M65.3052 103.742H78.7616C78.7616 103.742 78.8244 114.727 78.7616 119.05C78.7616 120.833 65.3095 120.63 65.3095 119.05L65.3052 103.742Z" fill="#D18C65"/>
<path fill-rule="evenodd" clip-rule="evenodd" d="M58.4219 93.2394C58.4219 85.0805 64.6968 78.4655 72.4495 78.4655C80.2023 78.4655 86.4794 85.0805 86.4794 93.2394C86.4794 101.398 80.2045 108.015 72.4495 108.015C64.6946 108.015 58.4219 101.4 58.4219 93.2394Z" fill="#E49D75"/>
<path fill-rule="evenodd" clip-rule="evenodd" d="M80.0252 77.4072C76.4615 83.9503 61.696 90.3379 55.4773 91.8323C54.495 87.9255 60.8586 71.2846 80.0252 77.4072Z" fill="black"/>
<path fill-rule="evenodd" clip-rule="evenodd" d="M72.1338 77.2053C69.4356 78.0174 78.2075 89.1035 88.7191 91.8322C93.0098 87.0056 83.1171 76.9745 72.1338 77.2053Z" fill="black"/>
<path fill-rule="evenodd" clip-rule="evenodd" d="M92.1919 2.93222C92.1915 2.35247 92.4087 1.78565 92.816 1.30347C93.2234 0.82129 93.8026 0.445415 94.4803 0.2234C95.1581 0.001385 95.904 -0.0567928 96.6236 0.0562268C97.3432 0.169246 98.0042 0.448385 98.523 0.858326C99.0418 1.26827 99.3951 1.79059 99.5381 2.35921C99.6812 2.92783 99.6075 3.5172 99.3266 4.05275C99.0456 4.5883 98.5699 5.04597 97.9597 5.36784C97.3495 5.68972 96.6321 5.86135 95.8984 5.86101C94.9154 5.86101 93.9726 5.55244 93.2775 5.00319C92.5824 4.45393 92.1919 3.70898 92.1919 2.93222V2.93222Z" fill="#FFD98E"/>
<path d="M28.2632 79.9444C28.2632 79.4033 28.4662 78.8744 28.8466 78.4246C29.2271 77.9747 29.7677 77.6241 30.4003 77.417C31.033 77.21 31.729 77.1558 32.4006 77.2614C33.0722 77.3669 33.6891 77.6275 34.1732 78.01C34.6574 78.3926 34.9871 78.88 35.1207 79.4107C35.2543 79.9413 35.1857 80.4914 34.9237 80.9912C34.6617 81.4911 34.2179 81.9183 33.6486 82.2189C33.0793 82.5195 32.4099 82.6799 31.7252 82.6799C30.807 82.6799 29.9264 82.3917 29.2772 81.8787C28.6279 81.3657 28.2632 80.6699 28.2632 79.9444Z" stroke="#6BD5E1" stroke-width="3.11" stroke-linecap="round" stroke-linejoin="round"/>
<path d="M104.971 78.792C104.97 78.4771 105.088 78.1692 105.309 77.9072C105.53 77.6452 105.845 77.4409 106.213 77.3201C106.581 77.1994 106.986 77.1676 107.377 77.2289C107.768 77.2901 108.127 77.4416 108.409 77.6641C108.691 77.8867 108.883 78.1703 108.961 78.4791C109.039 78.7879 108.999 79.1081 108.847 79.399C108.694 79.69 108.436 79.9387 108.105 80.1137C107.773 80.2887 107.384 80.3821 106.985 80.3821C106.721 80.3823 106.459 80.3413 106.214 80.2615C105.97 80.1817 105.748 80.0646 105.561 79.9169C105.374 79.7693 105.225 79.5939 105.124 79.4009C105.023 79.2078 104.971 79.0009 104.971 78.792V78.792Z" stroke="#FF8364" stroke-width="3.11" stroke-linecap="round" stroke-linejoin="round"/>
<path d="M134.818 24.5929C146.145 35.6618 153.472 47.8079 151.75 58.6169C150.068 69.4191 139.347 78.8979 128.013 92.0562C116.686 105.245 104.679 122.134 87.3862 126.34C70.0545 130.548 47.4388 122.103 29.6267 108.914C11.8146 95.7253 -1.19395 77.855 0.0869945 60.9644C1.36794 44.0738 16.8994 28.1988 34.7072 17.1282C52.515 6.05756 72.6164 -0.20353 90.3484 1.6618C108.08 3.52714 123.45 13.5223 134.818 24.5929Z" fill="#E4CEFF"/>
<path fill-rule="evenodd" clip-rule="evenodd" d="M72.445 74.2406C84.1294 74.2406 90.4043 80.4111 91.5706 86.6757C92.7563 93.0821 91.4039 98.3875 91.7415 106.134C91.9708 111.353 94.8768 114.835 96.7398 119.488C98.6028 124.14 48.8816 125.311 49.1781 120.96C49.4745 116.608 53.0317 112.154 53.1594 106.736C53.2892 101.214 52.2939 97.8968 52.4302 88.912C52.5319 81.8165 60.7564 74.2406 72.445 74.2406Z" fill="black"/>
<path fill-rule="evenodd" clip-rule="evenodd" d="M24.4706 152C24.0227 147.633 26.4872 132.061 34.1059 120.435C62.5615 107.982 98.2636 113.912 112.38 120.435C117.16 124.271 120.615 149.759 119.57 151.588" fill="#009DE9"/>
<path d="M40.8955 151.593C41.3434 148.76 42.0531 144.195 43.2107 139.967" stroke="#2D7992" stroke-linecap="round" stroke-linejoin="round"/>
<path d="M104.007 151.593C103.559 148.76 102.849 144.195 101.691 139.967" stroke="#2D7992" stroke-linecap="round" stroke-linejoin="round"/>
<path fill-rule="evenodd" clip-rule="evenodd" d="M54.3848 94.4602C54.3843 93.9656 54.5695 93.482 54.9168 93.0705C55.2641 92.6591 55.7579 92.3382 56.3359 92.1485C56.914 91.9587 57.5502 91.9087 58.1642 92.0046C58.7782 92.1005 59.3425 92.3381 59.7857 92.6873C60.2289 93.0365 60.5311 93.4818 60.6542 93.9667C60.7772 94.4516 60.7156 94.9545 60.4771 95.4117C60.2385 95.869 59.8338 96.2601 59.314 96.5356C58.7942 96.8112 58.1828 96.9588 57.5568 96.9598C57.1408 96.9605 56.7286 96.8963 56.3439 96.771C55.9593 96.6457 55.6096 96.4617 55.315 96.2296C55.0204 95.9974 54.7866 95.7216 54.627 95.418C54.4674 95.1144 54.385 94.7889 54.3848 94.4602V94.4602Z" fill="#D18C65"/>
<path fill-rule="evenodd" clip-rule="evenodd" d="M83.4136 94.4602C83.4131 93.9654 83.5984 93.4816 83.946 93.07C84.2936 92.6584 84.7879 92.3376 85.3663 92.148C85.9447 91.9584 86.5812 91.9086 87.1954 92.0049C87.8097 92.1013 88.3739 92.3394 88.8169 92.6891C89.2598 93.0389 89.5615 93.4846 89.6838 93.9698C89.8061 94.4551 89.7436 94.9581 89.504 95.4153C89.2645 95.8724 88.8588 96.2632 88.3381 96.5381C87.8175 96.813 87.2054 96.9598 86.5792 96.9598C85.74 96.9598 84.9351 96.6965 84.3415 96.2278C83.7479 95.759 83.4141 95.1233 83.4136 94.4602V94.4602Z" fill="#D18C65"/>
<path fill-rule="evenodd" clip-rule="evenodd" d="M85.0514 51.4018C81.8577 49.4322 81.0701 51.6327 80.5702 52.9406C80.0704 54.2486 80.1072 56.555 82.6107 56.5054C84.8047 58.0613 86.8473 56.0489 87.4748 55.0265C88.1023 54.0041 89.6429 51.7848 85.0514 51.4018Z" fill="#FF8364"/>
<path d="M87.1635 49.9981C86.0621 50.3042 85.4433 50.7214 85.0928 51.4463" stroke="#FFD98E" stroke-width="2.83" stroke-linecap="round" stroke-linejoin="round"/>
<path fill-rule="evenodd" clip-rule="evenodd" d="M64.2256 63.0795C64.2252 62.5001 64.4421 61.9336 64.849 61.4516C65.2558 60.9696 65.8344 60.5937 66.5115 60.3715C67.1887 60.1492 67.934 60.0905 68.6533 60.2029C69.3726 60.3152 70.0337 60.5935 70.5529 61.0026C71.0721 61.4116 71.4262 61.9332 71.5705 62.5012C71.7147 63.0693 71.6427 63.6584 71.3634 64.1941C71.084 64.7298 70.61 65.188 70.0012 65.5109C69.3924 65.8338 68.6762 66.0069 67.9429 66.0082C67.4553 66.0094 66.9721 65.9344 66.5212 65.7878C66.0702 65.6411 65.6604 65.4255 65.315 65.1535C64.9697 64.8814 64.6957 64.5581 64.5088 64.2022C64.3218 63.8463 64.2256 63.4648 64.2256 63.0795V63.0795Z" fill="#6BD5E1"/>
<path fill-rule="evenodd" clip-rule="evenodd" d="M38.5435 64.372L48.8148 62.3117L52.9757 75.2682L42.7065 77.3285L38.5435 64.372Z" fill="#DFDFDF"/>
<path fill-rule="evenodd" clip-rule="evenodd" d="M40.7075 65.7996L47.7743 64.3822L48.3196 66.08L41.2528 67.4974L40.7075 65.7996Z" fill="#FF8364"/>
<path d="M41.8452 69.3422L48.9121 67.9232" stroke="#6BD5E1" stroke-width="3.11" stroke-linecap="round" stroke-linejoin="round"/>
<path d="M42.4385 71.1854L49.5074 69.7611" stroke="#6BD5E1" stroke-width="3.11" stroke-linecap="round" stroke-linejoin="round"/>
<path d="M43.0596 73.1071L50.1329 71.688" stroke="#6BD5E1" stroke-width="3.11" stroke-linecap="round" stroke-linejoin="round"/>
<path d="M43.6523 74.9659L46.4263 74.4099" stroke="#6BD5E1" stroke-width="3.11" stroke-linecap="round" stroke-linejoin="round"/>
<path d="M49.6138 73.7653L50.7259 73.5465" stroke="#6BD5E1" stroke-width="3.11" stroke-linecap="round" stroke-linejoin="round"/>
<path fill-rule="evenodd" clip-rule="evenodd" d="M31.7344 34.9557L58.3141 24.9538L66.6208 38.7377L40.0411 48.7311L31.7344 34.9557Z" fill="#2D7992"/>
<path d="M40.9258 45.6896L43.5699 39.5755L48.4968 40.3004L50.4312 32.7588L55.1915 33.3845L56.5763 28.0655" stroke="#FF8364" stroke-width="3.11" stroke-linecap="round" stroke-linejoin="round"/>
<path fill-rule="evenodd" clip-rule="evenodd" d="M42.6375 39.9756C42.5209 39.782 42.4796 39.5655 42.5188 39.3534C42.5579 39.1412 42.6758 38.943 42.8575 38.7838C43.0392 38.6246 43.2766 38.5116 43.5396 38.459C43.8027 38.4064 44.0795 38.4166 44.3352 38.4883C44.5909 38.56 44.8139 38.6901 44.9761 38.8619C45.1382 39.0338 45.2322 39.2398 45.2462 39.4539C45.2602 39.668 45.1936 39.8806 45.0547 40.0648C44.9158 40.2489 44.7109 40.3964 44.4659 40.4886C44.1373 40.6117 43.7603 40.6268 43.4176 40.5307C43.0748 40.4345 42.7943 40.2349 42.6375 39.9756V39.9756Z" fill="#FFD98E"/>
<path fill-rule="evenodd" clip-rule="evenodd" d="M49.2586 33.4051C49.142 33.2115 49.1007 32.9949 49.1399 32.7828C49.179 32.5706 49.2969 32.3724 49.4786 32.2132C49.6603 32.054 49.8977 31.941 50.1607 31.8884C50.4238 31.8358 50.7006 31.846 50.9563 31.9177C51.212 31.9894 51.435 32.1195 51.5971 32.2913C51.7593 32.4632 51.8533 32.6692 51.8673 32.8834C51.8813 33.0975 51.8146 33.31 51.6757 33.4942C51.5368 33.6784 51.332 33.8259 51.087 33.918C50.9244 33.9794 50.748 34.0149 50.568 34.0224C50.388 34.0298 50.2079 34.0091 50.038 33.9615C49.8682 33.9138 49.7119 33.8401 49.5781 33.7447C49.4444 33.6492 49.3358 33.5338 49.2586 33.4051V33.4051Z" fill="#FFD98E"/>
<path fill-rule="evenodd" clip-rule="evenodd" d="M99.6069 45.0279C99.6052 44.2935 99.8794 43.5752 100.395 42.964C100.91 42.3529 101.643 41.8763 102.501 41.5946C103.36 41.313 104.305 41.2389 105.216 41.3818C106.128 41.5248 106.965 41.8783 107.622 42.3976C108.28 42.9168 108.727 43.5786 108.908 44.2989C109.089 45.0192 108.995 45.7658 108.639 46.444C108.282 47.1222 107.679 47.7016 106.906 48.1087C106.132 48.5159 105.223 48.7325 104.294 48.7312C103.051 48.7294 101.861 48.3386 100.982 47.6445C100.104 46.9504 99.6092 46.0095 99.6069 45.0279Z" fill="#FFD98E"/>
<path d="M112.228 44.3816C112.365 44.7597 112.433 45.1511 112.432 45.5442C112.432 46.1752 112.255 46.7983 111.914 47.3688C111.573 47.9392 111.076 48.4427 110.459 48.8431C109.842 49.2434 109.12 49.5306 108.345 49.6839C107.571 49.8372 106.763 49.8529 105.979 49.7297" stroke="#FF8364" stroke-width="3.11" stroke-linecap="round" stroke-linejoin="round"/>
<path fill-rule="evenodd" clip-rule="evenodd" d="M101.455 47.8456L99.6548 50.3914L107.087 51.3368L106.274 48.3637" fill="#FFD98E"/>
<path fill-rule="evenodd" clip-rule="evenodd" d="M103.195 45.0279C103.195 44.8547 103.26 44.6855 103.382 44.5415C103.503 44.3976 103.676 44.2854 103.879 44.2191C104.081 44.1529 104.304 44.1355 104.519 44.1693C104.734 44.2031 104.931 44.2865 105.086 44.4089C105.241 44.5313 105.346 44.6873 105.389 44.8571C105.432 45.0269 105.41 45.2029 105.326 45.3629C105.242 45.5228 105.1 45.6595 104.918 45.7557C104.736 45.8519 104.522 45.9033 104.303 45.9033C104.009 45.9033 103.727 45.811 103.519 45.6469C103.312 45.4827 103.195 45.26 103.195 45.0279Z" fill="#1B3C87"/>
<path fill-rule="evenodd" clip-rule="evenodd" d="M110.822 44.1526C110.822 43.9794 110.887 43.8102 111.008 43.6662C111.13 43.5223 111.303 43.4101 111.506 43.3438C111.708 43.2776 111.931 43.2602 112.146 43.294C112.361 43.3278 112.558 43.4112 112.713 43.5336C112.868 43.656 112.973 43.812 113.016 43.9818C113.059 44.1516 113.037 44.3276 112.953 44.4876C112.869 44.6475 112.727 44.7842 112.545 44.8804C112.363 44.9766 112.149 45.0279 111.93 45.0279C111.636 45.0279 111.354 44.9357 111.146 44.7716C110.939 44.6074 110.822 44.3847 110.822 44.1526Z" fill="#FFD98E"/>
<path fill-rule="evenodd" clip-rule="evenodd" d="M21.8347 17.1368L28.7782 18.6208L21.9407 38.6249L14.9907 37.1425L21.8347 17.1368Z" fill="#FF8364"/>
<path d="M17.2046 30.69L21.028 31.5061" stroke="#FFD98E" stroke-width="4.23" stroke-linecap="round" stroke-linejoin="round"/>
<path d="M15.9907 34.2376L19.8163 35.0537" stroke="#FFD98E" stroke-width="4.23" stroke-linecap="round" stroke-linejoin="round"/>
<path d="M18.416 27.1422L22.2416 27.9584" stroke="#FFD98E" stroke-width="4.23" stroke-linecap="round" stroke-linejoin="round"/>
<path d="M19.6299 23.5979L23.4532 24.4141" stroke="#FFD98E" stroke-width="4.23" stroke-linecap="round" stroke-linejoin="round"/>
<path d="M20.8413 20.045L24.6669 20.8629" stroke="#FFD98E" stroke-width="4.23" stroke-linecap="round" stroke-linejoin="round"/>
<path fill-rule="evenodd" clip-rule="evenodd" d="M93.3514 12.9975L119.57 17.9917L115.242 32.1159L89.0347 27.1132L93.3514 12.9975Z" fill="#FF8364"/>
<path fill-rule="evenodd" clip-rule="evenodd" d="M109.033 28.3031C109.164 27.8738 109.453 27.4849 109.864 27.1855C110.275 26.8861 110.789 26.6898 111.341 26.6212C111.893 26.5527 112.459 26.6151 112.966 26.8005C113.473 26.9859 113.899 27.286 114.191 27.6629C114.482 28.0397 114.626 28.4764 114.603 28.9177C114.58 29.3589 114.393 29.785 114.064 30.1419C113.734 30.4989 113.279 30.7707 112.754 30.9231C112.23 31.0754 111.66 31.1014 111.116 30.9977C110.388 30.8587 109.759 30.4967 109.368 29.9914C108.977 29.4861 108.857 28.8788 109.033 28.3031V28.3031Z" fill="#FF8364"/>
<path fill-rule="evenodd" clip-rule="evenodd" d="M109.868 30.1429L107.983 34.0274L110.615 33.5555L112.304 34.7951L112.644 30.5635" fill="#FF8364"/>
<path d="M94.9009 16.6546L115.599 20.6041" stroke="#6BD5E1" stroke-width="3.11" stroke-linecap="round" stroke-linejoin="round"/>
<path d="M93.7021 20.5306L106.202 22.914" stroke="#6BD5E1" stroke-width="3.11" stroke-linecap="round" stroke-linejoin="round"/>
<path fill-rule="evenodd" clip-rule="evenodd" d="M51.7445 14.9158L48.9316 12.5085L52.9779 11.7852L57.0263 11.062L55.7929 14.1943L54.5618 17.3265L51.7445 14.9158Z" fill="#6BD5E1"/>
<path fill-rule="evenodd" clip-rule="evenodd" d="M107.632 65.4218L103.779 66.6408L104.37 63.3923L104.96 60.1438L108.221 62.1698L111.484 64.1959L107.632 65.4218Z" fill="#FFD98E"/>
<path d="M76.0005 26.2925C76.0005 25.9781 76.1185 25.6707 76.3396 25.4092C76.5607 25.1477 76.875 24.9439 77.2427 24.8235C77.6104 24.7032 78.015 24.6717 78.4054 24.7331C78.7957 24.7944 79.1543 24.9459 79.4357 25.1682C79.7172 25.3906 79.9088 25.6739 79.9865 25.9823C80.0641 26.2908 80.0243 26.6105 79.8719 26.901C79.7196 27.1916 79.4617 27.4399 79.1308 27.6146C78.7999 27.7893 78.4108 27.8826 78.0128 27.8826C77.4791 27.8826 76.9673 27.7151 76.5899 27.4169C76.2125 27.1187 76.0005 26.7142 76.0005 26.2925Z" stroke="#FF8364" stroke-width="3.11" stroke-linecap="round" stroke-linejoin="round"/>
<path fill-rule="evenodd" clip-rule="evenodd" d="M19.7773 52.9269C19.7773 52.6125 19.8954 52.3051 20.1165 52.0436C20.3376 51.7821 20.6519 51.5783 21.0196 51.4579C21.3872 51.3376 21.7918 51.3061 22.1822 51.3675C22.5725 51.4288 22.9311 51.5803 23.2125 51.8026C23.4939 52.025 23.6856 52.3083 23.7632 52.6167C23.8409 52.9252 23.801 53.2449 23.6487 53.5354C23.4964 53.826 23.2385 54.0743 22.9076 54.249C22.5767 54.4237 22.1876 54.517 21.7896 54.517C21.2559 54.517 20.7441 54.3495 20.3667 54.0513C19.9894 53.7531 19.7773 53.3486 19.7773 52.9269Z" fill="#FFD98E"/>
<path fill-rule="evenodd" clip-rule="evenodd" d="M65.3052 103.869H78.7616C78.7616 103.869 78.8244 114.854 78.7616 119.178C78.7616 120.961 65.3095 120.756 65.3095 119.178L65.3052 103.869Z" fill="#D18C65"/>
<path fill-rule="evenodd" clip-rule="evenodd" d="M58.4219 93.3677C58.4219 85.207 64.6968 78.5938 72.4495 78.5938C80.2023 78.5938 86.4794 85.207 86.4794 93.3677C86.4794 101.528 80.2045 108.142 72.4495 108.142C64.6946 108.142 58.4219 101.527 58.4219 93.3677Z" fill="#E49D75"/>
<path fill-rule="evenodd" clip-rule="evenodd" d="M80.0252 77.5336C76.4615 84.0768 61.696 90.466 55.4773 91.9604C54.495 88.0553 60.8586 71.4128 80.0252 77.5336Z" fill="black"/>
<path fill-rule="evenodd" clip-rule="evenodd" d="M72.1338 77.3319C69.4356 78.1389 78.2075 89.23 88.7147 91.9604C93.0098 87.1321 83.1171 77.1028 72.1338 77.3319Z" fill="black"/>
<path fill-rule="evenodd" clip-rule="evenodd" d="M92.1919 3.05844C92.191 2.47863 92.4079 1.91165 92.815 1.42925C93.2221 0.946845 93.8011 0.570707 94.4788 0.348432C95.1566 0.126156 95.9025 0.067735 96.6223 0.18056C97.342 0.293386 98.0032 0.572387 98.5223 0.982256C99.0413 1.39213 99.3948 1.91444 99.538 2.4831C99.6812 3.05177 99.6077 3.64122 99.3268 4.17686C99.0459 4.71251 98.5702 5.17027 97.9599 5.49222C97.3496 5.81417 96.6322 5.98584 95.8984 5.9855C94.9158 5.9855 93.9733 5.67717 93.2783 5.12829C92.5832 4.57941 92.1925 3.8349 92.1919 3.05844V3.05844Z" fill="#FFD98E"/>
<path d="M28.2632 80.0709C28.2632 79.5298 28.4662 79.0009 28.8466 78.551C29.2271 78.1012 29.7677 77.7506 30.4003 77.5435C31.033 77.3365 31.729 77.2823 32.4006 77.3878C33.0722 77.4934 33.6891 77.7539 34.1732 78.1365C34.6574 78.5191 34.9871 79.0065 35.1207 79.5372C35.2543 80.0678 35.1857 80.6179 34.9237 81.1177C34.6617 81.6176 34.2179 82.0448 33.6486 82.3454C33.0793 82.646 32.4099 82.8064 31.7252 82.8064C30.807 82.8064 29.9264 82.5182 29.2772 82.0052C28.6279 81.4922 28.2632 80.7964 28.2632 80.0709Z" stroke="#6BD5E1" stroke-width="3.11" stroke-linecap="round" stroke-linejoin="round"/>
<path d="M104.971 78.9185C104.97 78.6036 105.088 78.2957 105.309 78.0337C105.53 77.7717 105.845 77.5674 106.213 77.4466C106.581 77.3259 106.986 77.2941 107.377 77.3554C107.768 77.4166 108.127 77.5681 108.409 77.7906C108.691 78.0132 108.883 78.2968 108.961 78.6056C109.039 78.9145 108.999 79.2346 108.847 79.5256C108.694 79.8166 108.436 80.0653 108.105 80.2403C107.773 80.4152 107.384 80.5087 106.985 80.5087C106.721 80.5089 106.459 80.4679 106.214 80.3881C105.97 80.3083 105.748 80.1912 105.561 80.0435C105.374 79.8958 105.225 79.7205 105.124 79.5274C105.023 79.3344 104.971 79.1275 104.971 78.9185V78.9185Z" stroke="#FF8364" stroke-width="3.11" stroke-linecap="round" stroke-linejoin="round"/>
</svg>
