<svg width="198" height="257" viewBox="0 0 198 257" fill="none" xmlns="http://www.w3.org/2000/svg">
<path d="M175.618 40.9397C190.373 59.4654 199.917 79.788 197.674 97.8902C195.484 115.938 181.517 131.817 166.754 153.834C151.998 175.904 136.358 204.169 113.832 211.208C91.2551 218.246 61.7952 204.115 38.5926 182.044C15.39 159.974 -1.55528 130.069 0.113322 101.807C1.78192 73.545 22.0137 46.9738 45.2107 28.4509C68.4076 9.92807 94.5923 -0.566508 117.691 2.58072C140.789 5.72795 160.809 22.4168 175.618 40.9397Z" fill="#F2F2F2"/>
<path fill-rule="evenodd" clip-rule="evenodd" d="M94.3695 124.024C109.59 124.024 117.764 134.347 119.283 144.83C120.828 155.553 119.066 164.431 119.506 177.395C119.804 186.124 123.59 191.955 126.017 199.737C128.443 207.52 63.6751 209.482 64.0613 202.204C64.4474 194.925 69.0812 187.469 69.2475 178.402C69.4166 169.158 68.1201 163.61 68.2976 148.572C68.4301 136.701 79.1435 124.024 94.3695 124.024Z" fill="black"/>
<path fill-rule="evenodd" clip-rule="evenodd" d="M31.8761 254.156C31.2926 246.849 34.503 220.789 44.4272 201.331C81.4944 180.493 128.001 190.419 146.39 201.331C152.616 207.751 157.117 250.405 155.756 253.466" fill="#FFD98E"/>
<path d="M53.2715 253.466C53.8549 248.725 54.7794 241.086 56.2874 234.011" stroke="#FF8364" stroke-width="5.73" stroke-linecap="round" stroke-linejoin="round"/>
<path d="M135.482 253.466C134.898 248.725 133.974 241.086 132.466 234.011" stroke="#FF8364" stroke-width="5.73" stroke-linecap="round" stroke-linejoin="round"/>
<path fill-rule="evenodd" clip-rule="evenodd" d="M70.8428 157.859C70.8422 157.032 71.0834 156.222 71.5358 155.534C71.9882 154.845 72.6315 154.308 73.3844 153.991C74.1374 153.673 74.9661 153.59 75.766 153.75C76.5659 153.911 77.3009 154.308 77.8782 154.893C78.4555 155.477 78.8492 156.222 79.0095 157.033C79.1698 157.845 79.0895 158.686 78.7788 159.452C78.468 160.217 77.9408 160.871 77.2638 161.332C76.5867 161.794 75.7901 162.041 74.9748 162.042C74.4328 162.043 73.8959 161.936 73.3948 161.726C72.8938 161.517 72.4383 161.209 72.0545 160.82C71.6708 160.432 71.3662 159.97 71.1583 159.462C70.9504 158.954 70.8431 158.409 70.8428 157.859V157.859Z" fill="#D18C65"/>
<path fill-rule="evenodd" clip-rule="evenodd" d="M108.657 157.859C108.656 157.031 108.898 156.222 109.35 155.533C109.803 154.844 110.447 154.307 111.2 153.99C111.954 153.673 112.783 153.589 113.583 153.751C114.383 153.912 115.118 154.31 115.695 154.896C116.272 155.481 116.665 156.227 116.825 157.039C116.984 157.851 116.902 158.693 116.59 159.458C116.278 160.223 115.75 160.876 115.072 161.337C114.393 161.797 113.596 162.042 112.78 162.042C111.687 162.042 110.639 161.602 109.866 160.817C109.092 160.033 108.657 158.969 108.657 157.859V157.859Z" fill="#D18C65"/>
<path fill-rule="evenodd" clip-rule="evenodd" d="M110.791 85.8021C106.63 82.5089 105.604 86.1883 104.953 88.3771C104.302 90.5658 104.35 94.4255 107.611 94.3425C110.469 96.9432 113.13 93.5757 113.948 91.8648C114.765 90.1538 116.772 86.4429 110.791 85.8021Z" fill="#FF8364"/>
<path d="M113.542 83.4559C112.107 83.9681 111.301 84.6662 110.844 85.8793" stroke="#FFD98E" stroke-width="2.83" stroke-linecap="round" stroke-linejoin="round"/>
<path fill-rule="evenodd" clip-rule="evenodd" d="M83.6621 105.346C83.6616 104.377 83.9441 103.429 84.4741 102.622C85.0041 101.816 85.7578 101.187 86.6399 100.815C87.5219 100.443 88.4928 100.345 89.4298 100.533C90.3668 100.721 91.2279 101.186 91.9043 101.871C92.5806 102.555 93.0419 103.428 93.2298 104.379C93.4177 105.329 93.3238 106.315 92.96 107.212C92.5961 108.108 91.9787 108.875 91.1856 109.415C90.3926 109.956 89.4596 110.245 88.5044 110.247C87.8693 110.249 87.2401 110.123 86.6529 109.878C86.0656 109.632 85.5318 109.271 85.0821 108.816C84.6323 108.361 84.2754 107.82 84.0317 107.225C83.7881 106.629 83.6625 105.991 83.6621 105.346V105.346Z" fill="#6BD5E1"/>
<path fill-rule="evenodd" clip-rule="evenodd" d="M50.208 107.509L63.5878 104.062L69.0079 125.743L55.631 129.177L50.208 107.509Z" fill="#DFDFDF"/>
<path fill-rule="evenodd" clip-rule="evenodd" d="M53.0269 109.898L62.2323 107.526L62.9426 110.368L53.7371 112.734L53.0269 109.898Z" fill="#FF8364"/>
<path d="M54.5093 115.824L63.7148 113.452" stroke="#6BD5E1" stroke-width="3.11" stroke-linecap="round" stroke-linejoin="round"/>
<path d="M55.2812 118.908L64.4895 116.536" stroke="#6BD5E1" stroke-width="3.11" stroke-linecap="round" stroke-linejoin="round"/>
<path d="M56.0908 122.127L65.3047 119.752" stroke="#6BD5E1" stroke-width="3.11" stroke-linecap="round" stroke-linejoin="round"/>
<path d="M56.8628 125.237L60.4763 124.304" stroke="#6BD5E1" stroke-width="3.11" stroke-linecap="round" stroke-linejoin="round"/>
<path d="M64.6279 123.228L66.0767 122.862" stroke="#6BD5E1" stroke-width="3.11" stroke-linecap="round" stroke-linejoin="round"/>
<path fill-rule="evenodd" clip-rule="evenodd" d="M41.3379 58.281L75.9614 41.5463L86.782 64.6098L52.1584 81.3473L41.3379 58.281Z" fill="#DFDFDF"/>
<path d="M53.311 76.2459L56.7553 66.0117L63.1732 67.242L65.6931 54.6216L71.8939 55.6688L73.6978 46.765" stroke="#FF8364" stroke-width="3.11" stroke-linecap="round" stroke-linejoin="round"/>
<path fill-rule="evenodd" clip-rule="evenodd" d="M55.5406 66.6697C55.3895 66.3463 55.3363 65.9847 55.3876 65.6305C55.439 65.2764 55.5925 64.9456 55.8289 64.68C56.0653 64.4144 56.3739 64.2258 56.7158 64.1382C57.0576 64.0505 57.4174 64.0676 57.7497 64.1874C58.082 64.3071 58.3719 64.5241 58.5828 64.811C58.7937 65.0979 58.9161 65.4418 58.9345 65.7993C58.953 66.1567 58.8667 66.5117 58.6865 66.8194C58.5064 67.1271 58.2404 67.3737 57.9223 67.5281C57.7104 67.6309 57.4807 67.6902 57.2462 67.7027C57.0117 67.7152 56.7772 67.6805 56.5559 67.6008C56.3346 67.521 56.131 67.3978 55.9568 67.238C55.7826 67.0782 55.6411 66.8851 55.5406 66.6697V66.6697Z" fill="#FFD98E"/>
<path fill-rule="evenodd" clip-rule="evenodd" d="M64.1656 55.6888C64.0137 55.3648 63.9599 55.0024 64.0109 54.6474C64.0619 54.2924 64.2155 53.9608 64.4522 53.6944C64.6889 53.428 64.9981 53.2388 65.3407 53.1508C65.6833 53.0628 66.044 53.0798 66.377 53.1999C66.7101 53.3199 67.0006 53.5375 67.2118 53.8251C67.4231 54.1127 67.5455 54.4575 67.5638 54.8157C67.582 55.174 67.4951 55.5297 67.3142 55.8379C67.1333 56.1461 66.8664 56.3929 66.5473 56.5471C66.3355 56.6499 66.1057 56.7092 65.8712 56.7217C65.6368 56.7342 65.4022 56.6995 65.1809 56.6198C64.9596 56.5401 64.7561 56.4168 64.5818 56.257C64.4076 56.0972 64.2662 55.9041 64.1656 55.6888V55.6888Z" fill="#FFD98E"/>
<path fill-rule="evenodd" clip-rule="evenodd" d="M129.751 75.1386C129.751 73.9102 130.11 72.7094 130.783 71.6881C131.455 70.6668 132.411 69.8711 133.529 69.4015C134.648 68.9319 135.878 68.8096 137.065 69.0501C138.251 69.2906 139.341 69.8831 140.196 70.7525C141.051 71.622 141.633 72.7293 141.867 73.9344C142.102 75.1395 141.979 76.3882 141.515 77.5225C141.05 78.6568 140.264 79.6256 139.257 80.3065C138.25 80.9873 137.066 81.3495 135.856 81.3473C134.236 81.345 132.682 80.6898 131.538 79.5256C130.393 78.3614 129.75 76.7835 129.751 75.1386V75.1386Z" fill="#FFD98E"/>
<path d="M146.192 74.0543C146.486 75.1159 146.534 76.2322 146.332 77.3158C146.131 78.3994 145.685 79.4209 145.03 80.3007C144.375 81.1805 143.528 81.8947 142.557 82.3874C141.585 82.8802 140.514 83.1381 139.427 83.1412C138.967 83.1418 138.507 83.0967 138.055 83.0067" stroke="#FF8364" stroke-width="3.11" stroke-linecap="round" stroke-linejoin="round"/>
<path fill-rule="evenodd" clip-rule="evenodd" d="M132.159 79.8538L129.813 84.1226L139.495 85.7019L138.435 80.7293" fill="#FFD98E"/>
<path fill-rule="evenodd" clip-rule="evenodd" d="M134.424 75.1386C134.424 74.8489 134.509 74.5657 134.668 74.3248C134.826 74.0839 135.051 73.8961 135.315 73.7853C135.579 73.6744 135.869 73.6454 136.149 73.7019C136.429 73.7584 136.686 73.8979 136.888 74.1028C137.09 74.3077 137.227 74.5687 137.283 74.8528C137.338 75.137 137.31 75.4315 137.201 75.6992C137.091 75.9669 136.906 76.1957 136.669 76.3566C136.432 76.5176 136.153 76.6035 135.867 76.6035C135.485 76.6035 135.118 76.4492 134.847 76.1745C134.576 75.8997 134.424 75.5271 134.424 75.1386Z" fill="#1B3C87"/>
<path fill-rule="evenodd" clip-rule="evenodd" d="M144.36 73.6738C144.36 73.384 144.445 73.1008 144.603 72.8599C144.762 72.619 144.987 72.4312 145.251 72.3204C145.514 72.2095 145.805 72.1805 146.085 72.237C146.364 72.2935 146.622 72.4331 146.823 72.6379C147.025 72.8428 147.163 73.1038 147.218 73.388C147.274 73.6721 147.245 73.9667 147.136 74.2343C147.027 74.502 146.842 74.7308 146.605 74.8918C146.367 75.0527 146.088 75.1386 145.803 75.1386C145.42 75.1379 145.054 74.9833 144.783 74.7088C144.513 74.4342 144.361 74.062 144.36 73.6738V73.6738Z" fill="#FFD98E"/>
<path fill-rule="evenodd" clip-rule="evenodd" d="M28.4429 28.4653L37.4877 30.9459L28.581 64.4209L19.5361 61.9489L28.4429 28.4653Z" fill="#FF8364"/>
<path d="M22.4111 51.1424L27.3916 52.5101" stroke="#FFD98E" stroke-width="4.23" stroke-linecap="round" stroke-linejoin="round"/>
<path d="M20.8301 57.0821L25.8133 58.4469" stroke="#FFD98E" stroke-width="4.23" stroke-linecap="round" stroke-linejoin="round"/>
<path d="M23.9893 45.2114L28.9725 46.579" stroke="#FFD98E" stroke-width="4.23" stroke-linecap="round" stroke-linejoin="round"/>
<path d="M25.5708 39.2688L30.5512 40.6336" stroke="#FFD98E" stroke-width="4.23" stroke-linecap="round" stroke-linejoin="round"/>
<path d="M27.1489 33.332L32.1322 34.6967" stroke="#FFD98E" stroke-width="4.23" stroke-linecap="round" stroke-linejoin="round"/>
<path fill-rule="evenodd" clip-rule="evenodd" d="M121.603 21.5242L155.755 29.8929L150.118 53.5315L115.979 45.1599L121.603 21.5242Z" fill="#DFDFDF"/>
<path fill-rule="evenodd" clip-rule="evenodd" d="M142.029 47.1512C142.2 46.4328 142.577 45.782 143.112 45.281C143.647 44.78 144.317 44.4514 145.036 44.3367C145.755 44.222 146.492 44.3264 147.153 44.6367C147.814 44.947 148.369 45.4492 148.748 46.0798C149.128 46.7104 149.315 47.4412 149.285 48.1796C149.256 48.918 149.011 49.631 148.583 50.2283C148.154 50.8257 147.56 51.2805 146.877 51.5354C146.194 51.7903 145.451 51.8338 144.743 51.6603C143.794 51.4277 142.975 50.822 142.466 49.9764C141.957 49.1308 141.8 48.1145 142.029 47.1512V47.1512Z" fill="#FF8364"/>
<path fill-rule="evenodd" clip-rule="evenodd" d="M143.117 50.2269L140.662 56.7245L144.089 55.9377L146.291 58.012L146.733 50.9336" fill="#FF8364"/>
<path d="M123.621 27.6555L150.584 34.2647" stroke="#6BD5E1" stroke-width="3.11" stroke-linecap="round" stroke-linejoin="round"/>
<path d="M122.059 34.1417L138.342 38.133" stroke="#6BD5E1" stroke-width="3.11" stroke-linecap="round" stroke-linejoin="round"/>
<path fill-rule="evenodd" clip-rule="evenodd" d="M67.4039 24.7486L63.7397 20.7173L69.0105 19.5071L74.2841 18.2968L72.6803 23.5384L71.0765 28.7771L67.4039 24.7486Z" fill="#6BD5E1"/>
<path fill-rule="evenodd" clip-rule="evenodd" d="M140.205 109.266L135.186 111.303L135.955 105.867L136.724 100.431L140.972 103.821L145.223 107.215L140.205 109.266Z" fill="#FFD98E"/>
<path d="M99.0005 43.7808C99.0005 43.2545 99.1542 42.7401 99.4423 42.3025C99.7303 41.8649 100.14 41.5239 100.619 41.3225C101.098 41.1211 101.625 41.0684 102.133 41.1711C102.642 41.2738 103.109 41.5272 103.475 41.8993C103.842 42.2714 104.092 42.7455 104.193 43.2617C104.294 43.7778 104.242 44.3128 104.044 44.799C103.845 45.2853 103.509 45.7008 103.078 45.9932C102.647 46.2856 102.14 46.4416 101.622 46.4416C100.927 46.4416 100.26 46.1613 99.7682 45.6623C99.2767 45.1633 99.0005 44.4865 99.0005 43.7808Z" stroke="#FF8364" stroke-width="3.11" stroke-linecap="round" stroke-linejoin="round"/>
<path fill-rule="evenodd" clip-rule="evenodd" d="M25.7622 88.357C25.7622 87.8307 25.9159 87.3163 26.204 86.8787C26.492 86.4411 26.9014 86.1001 27.3804 85.8987C27.8593 85.6973 28.3864 85.6446 28.8948 85.7473C29.4033 85.85 29.8704 86.1034 30.237 86.4755C30.6036 86.8476 30.8532 87.3217 30.9544 87.8379C31.0555 88.354 31.0036 88.889 30.8052 89.3752C30.6068 89.8614 30.2708 90.277 29.8398 90.5694C29.4087 90.8618 28.9019 91.0178 28.3835 91.0178C27.6883 91.0178 27.0215 90.7375 26.53 90.2385C26.0384 89.7395 25.7622 89.0627 25.7622 88.357Z" fill="#FFD98E"/>
<path fill-rule="evenodd" clip-rule="evenodd" d="M85.0684 173.604H102.597C102.597 173.604 102.679 191.987 102.597 199.22C102.597 202.204 85.074 201.863 85.074 199.22L85.0684 173.604Z" fill="#D18C65"/>
<path fill-rule="evenodd" clip-rule="evenodd" d="M76.1025 156.028C76.1025 142.375 84.2764 131.305 94.3754 131.305C104.474 131.305 112.651 142.375 112.651 156.028C112.651 169.681 104.477 180.754 94.3754 180.754C84.2736 180.754 76.1025 169.684 76.1025 156.028Z" fill="#E49D75"/>
<path fill-rule="evenodd" clip-rule="evenodd" d="M104.243 129.534C99.601 140.484 80.367 151.173 72.2664 153.673C70.9868 147.136 79.2762 119.289 104.243 129.534Z" fill="black"/>
<path fill-rule="evenodd" clip-rule="evenodd" d="M93.9637 129.197C90.449 130.556 101.876 149.107 115.568 153.673C121.157 145.597 108.271 128.81 93.9637 129.197Z" fill="black"/>
<path fill-rule="evenodd" clip-rule="evenodd" d="M120.092 4.9068C120.092 3.93665 120.375 2.98812 120.905 2.18123C121.436 1.37434 122.19 0.745349 123.073 0.373826C123.956 0.00230243 124.928 -0.0950533 125.865 0.0940756C126.803 0.283205 127.664 0.750319 128.339 1.43632C129.015 2.12232 129.475 2.99639 129.662 3.94793C129.848 4.89947 129.752 5.88573 129.386 6.78192C129.02 7.67812 128.4 8.44399 127.606 8.98262C126.811 9.52126 125.876 9.80846 124.921 9.80789C123.64 9.80789 122.412 9.29153 121.506 8.3724C120.601 7.45326 120.092 6.20665 120.092 4.9068V4.9068Z" fill="#FFD98E"/>
<path d="M36.8169 133.78C36.8169 132.875 37.0814 131.99 37.5769 131.237C38.0725 130.484 38.7768 129.897 39.6008 129.551C40.4249 129.204 41.3316 129.114 42.2064 129.29C43.0812 129.467 43.8848 129.903 44.5155 130.543C45.1462 131.183 45.5757 131.999 45.7497 132.887C45.9237 133.775 45.8344 134.695 45.4931 135.532C45.1518 136.368 44.5737 137.083 43.8321 137.586C43.0905 138.089 42.2186 138.358 41.3266 138.358C40.1306 138.358 38.9835 137.876 38.1378 137.017C37.292 136.159 36.8169 134.994 36.8169 133.78Z" stroke="#6BD5E1" stroke-width="3.11" stroke-linecap="round" stroke-linejoin="round"/>
<path d="M136.738 131.852C136.738 131.325 136.891 130.809 137.179 130.371C137.467 129.933 137.877 129.591 138.356 129.389C138.836 129.187 139.363 129.134 139.873 129.236C140.382 129.338 140.85 129.592 141.217 129.964C141.584 130.337 141.834 130.811 141.936 131.328C142.037 131.845 141.986 132.381 141.787 132.868C141.588 133.354 141.252 133.771 140.821 134.063C140.389 134.356 139.882 134.512 139.362 134.512C139.018 134.513 138.677 134.444 138.358 134.311C138.04 134.177 137.751 133.981 137.507 133.734C137.263 133.487 137.07 133.194 136.938 132.871C136.806 132.548 136.738 132.201 136.738 131.852V131.852Z" stroke="#FF8364" stroke-width="3.11" stroke-linecap="round" stroke-linejoin="round"/>
<path d="M175.618 41.1543C190.373 59.6771 199.917 80.0025 197.674 98.0905C195.484 116.167 181.517 132.029 166.754 154.048C151.998 176.119 136.358 204.381 113.832 211.419C91.2551 218.46 61.7952 204.329 38.5926 182.259C15.39 160.188 -1.55528 130.284 0.113322 102.019C1.78192 73.7538 22.0137 47.1884 45.2107 28.6626C68.4076 10.1369 94.5923 -0.340492 117.691 2.78099C140.789 5.90246 160.809 22.6286 175.618 41.1543Z" fill="#E4CEFF"/>
<path fill-rule="evenodd" clip-rule="evenodd" d="M94.3695 124.235C109.59 124.235 117.764 134.561 119.283 145.044C120.828 155.765 119.066 164.643 119.506 177.607C119.804 186.339 123.59 192.167 126.017 199.952C128.443 207.737 63.6751 209.697 64.0613 202.415C64.4474 195.134 69.0812 187.681 69.2475 178.614C69.4166 169.372 68.1201 163.822 68.2976 148.787C68.4301 136.913 79.1435 124.235 94.3695 124.235Z" fill="black"/>
<path fill-rule="evenodd" clip-rule="evenodd" d="M31.8761 254.359C31.2926 247.052 34.503 220.993 44.4272 201.537C81.4944 180.7 128.001 190.622 146.39 201.537C152.616 207.957 157.117 250.608 155.756 253.669" fill="#009DE9"/>
<path d="M53.2715 253.678C53.8549 248.937 54.7794 241.298 56.2874 234.222" stroke="#2D7992" stroke-width="5.73" stroke-linecap="round" stroke-linejoin="round"/>
<path d="M135.482 253.678C134.898 248.937 133.974 241.298 132.466 234.222" stroke="#2D7992" stroke-width="5.73" stroke-linecap="round" stroke-linejoin="round"/>
<path fill-rule="evenodd" clip-rule="evenodd" d="M70.8428 158.071C70.8422 157.243 71.0834 156.434 71.5358 155.746C71.9882 155.057 72.6315 154.52 73.3844 154.203C74.1374 153.885 74.9661 153.801 75.766 153.962C76.5659 154.122 77.3009 154.52 77.8782 155.104C78.4555 155.689 78.8492 156.434 79.0095 157.245C79.1698 158.057 79.0895 158.898 78.7788 159.663C78.468 160.428 77.9408 161.083 77.2638 161.544C76.5867 162.005 75.7901 162.252 74.9748 162.254C74.4328 162.255 73.8959 162.148 73.3948 161.938C72.8938 161.728 72.4383 161.42 72.0545 161.032C71.6708 160.643 71.3662 160.182 71.1583 159.674C70.9504 159.166 70.8431 158.621 70.8428 158.071V158.071Z" fill="#D18C65"/>
<path fill-rule="evenodd" clip-rule="evenodd" d="M108.657 158.071C108.656 157.243 108.898 156.433 109.35 155.745C109.803 155.056 110.447 154.519 111.2 154.202C111.954 153.884 112.783 153.801 113.583 153.962C114.383 154.124 115.118 154.522 115.695 155.107C116.272 155.693 116.665 156.438 116.825 157.25C116.984 158.062 116.902 158.904 116.59 159.669C116.278 160.434 115.75 161.088 115.072 161.548C114.393 162.008 113.596 162.254 112.78 162.254C111.687 162.254 110.639 161.813 109.866 161.029C109.092 160.245 108.657 159.181 108.657 158.071V158.071Z" fill="#D18C65"/>
<path fill-rule="evenodd" clip-rule="evenodd" d="M110.791 86.0166C106.63 82.7206 105.604 86.4028 104.953 88.5916C104.302 90.7804 104.35 94.64 107.611 94.557C110.469 97.1606 113.13 93.7931 113.948 92.0822C114.765 90.3712 116.772 86.6575 110.791 86.0166Z" fill="#FF8364"/>
<path d="M113.542 83.6676C112.107 84.1798 111.301 84.8779 110.844 86.091" stroke="#FFD98E" stroke-width="2.83" stroke-linecap="round" stroke-linejoin="round"/>
<path fill-rule="evenodd" clip-rule="evenodd" d="M83.6621 105.558C83.6616 104.589 83.9441 103.641 84.4741 102.834C85.0041 102.027 85.7578 101.398 86.6399 101.026C87.5219 100.655 88.4928 100.556 89.4298 100.744C90.3668 100.932 91.2279 101.398 91.9043 102.083C92.5806 102.767 93.0419 103.64 93.2298 104.59C93.4177 105.541 93.3238 106.527 92.96 107.423C92.5961 108.32 91.9787 109.087 91.1856 109.627C90.3926 110.167 89.4596 110.457 88.5044 110.459C87.8692 110.461 87.2398 110.336 86.6524 110.09C86.065 109.845 85.5311 109.484 85.0812 109.029C84.6314 108.573 84.2745 108.032 84.031 107.437C83.7875 106.841 83.6621 106.203 83.6621 105.558V105.558Z" fill="#6BD5E1"/>
<path fill-rule="evenodd" clip-rule="evenodd" d="M50.208 107.721L63.5878 104.273L69.0079 125.955L55.631 129.403L50.208 107.721Z" fill="#DFDFDF"/>
<path fill-rule="evenodd" clip-rule="evenodd" d="M53.0269 110.11L62.2323 107.738L62.9426 110.579L53.7371 112.951L53.0269 110.11Z" fill="#FF8364"/>
<path d="M54.5093 116.038L63.7148 113.664" stroke="#6BD5E1" stroke-width="3.11" stroke-linecap="round" stroke-linejoin="round"/>
<path d="M55.2812 119.123L64.4895 116.739" stroke="#6BD5E1" stroke-width="3.11" stroke-linecap="round" stroke-linejoin="round"/>
<path d="M56.0908 122.338L65.3047 119.964" stroke="#6BD5E1" stroke-width="3.11" stroke-linecap="round" stroke-linejoin="round"/>
<path d="M56.8628 125.449L60.4763 124.519" stroke="#6BD5E1" stroke-width="3.11" stroke-linecap="round" stroke-linejoin="round"/>
<path d="M64.6279 123.44L66.0767 123.074" stroke="#6BD5E1" stroke-width="3.11" stroke-linecap="round" stroke-linejoin="round"/>
<path fill-rule="evenodd" clip-rule="evenodd" d="M41.3379 58.4955L75.9614 41.758L86.782 64.8243L52.1584 81.5475L41.3379 58.4955Z" fill="#2D7992"/>
<path d="M53.311 76.4576L56.7553 66.2263L63.1732 67.4394L65.6931 54.819L71.8939 55.8662L73.6978 46.9652" stroke="#FF8364" stroke-width="3.11" stroke-linecap="round" stroke-linejoin="round"/>
<path fill-rule="evenodd" clip-rule="evenodd" d="M55.5406 66.8958C55.3887 66.5718 55.3349 66.2094 55.3859 65.8544C55.4369 65.4995 55.5905 65.1678 55.8272 64.9014C56.0639 64.635 56.3731 64.4458 56.7157 64.3578C57.0583 64.2698 57.419 64.2868 57.752 64.4069C58.0851 64.5269 58.3756 64.7445 58.5868 65.0321C58.7981 65.3197 58.9205 65.6645 58.9388 66.0228C58.957 66.381 58.8701 66.7367 58.6892 67.0449C58.5083 67.3531 58.2414 67.5999 57.9223 67.7541C57.4942 67.9601 57.0031 67.9855 56.5567 67.8246C56.1102 67.6637 55.7448 67.3297 55.5406 66.8958V66.8958Z" fill="#FFD98E"/>
<path fill-rule="evenodd" clip-rule="evenodd" d="M64.1656 55.9005C64.0137 55.5766 63.9599 55.2142 64.0109 54.8592C64.0619 54.5042 64.2155 54.1725 64.4522 53.9061C64.6889 53.6397 64.9981 53.4505 65.3407 53.3625C65.6833 53.2745 66.044 53.2916 66.377 53.4116C66.7101 53.5316 67.0006 53.7492 67.2118 54.0368C67.4231 54.3245 67.5455 54.6692 67.5638 55.0275C67.582 55.3858 67.4951 55.7415 67.3142 56.0497C67.1333 56.3578 66.8664 56.6046 66.5473 56.7588C66.3355 56.8616 66.1057 56.921 65.8712 56.9334C65.6368 56.9459 65.4022 56.9113 65.1809 56.8315C64.9596 56.7518 64.7561 56.6285 64.5818 56.4688C64.4076 56.309 64.2662 56.1159 64.1656 55.9005V55.9005Z" fill="#FFD98E"/>
<path fill-rule="evenodd" clip-rule="evenodd" d="M129.751 75.3504C129.749 74.1214 130.106 72.9195 130.777 71.8967C131.448 70.874 132.403 70.0764 133.522 69.6051C134.64 69.1338 135.87 69.0099 137.058 69.2491C138.245 69.4882 139.336 70.0798 140.192 70.9488C141.048 71.8178 141.631 72.9251 141.867 74.1305C142.102 75.3359 141.98 76.5852 141.516 77.7201C141.052 78.8551 140.266 79.8246 139.258 80.5059C138.251 81.1873 137.067 81.5498 135.856 81.5475C134.238 81.5445 132.687 80.8906 131.542 79.7291C130.398 78.5675 129.754 76.993 129.751 75.3504Z" fill="#FFD98E"/>
<path d="M146.192 74.2689C146.37 74.9016 146.459 75.5565 146.457 76.2144C146.458 77.2702 146.227 78.313 145.783 79.2676C145.338 80.2222 144.691 81.0648 143.887 81.7347C143.083 82.4046 142.143 82.8852 141.134 83.1418C140.125 83.3983 139.072 83.4245 138.052 83.2184" stroke="#FF8364" stroke-width="3.11" stroke-linecap="round" stroke-linejoin="round"/>
<path fill-rule="evenodd" clip-rule="evenodd" d="M132.159 80.0655L129.813 84.3257L139.495 85.9079L138.435 80.9324" fill="#FFD98E"/>
<path fill-rule="evenodd" clip-rule="evenodd" d="M134.424 75.3504C134.424 75.0607 134.509 74.7774 134.668 74.5365C134.826 74.2956 135.051 74.1079 135.315 73.997C135.579 73.8861 135.869 73.8571 136.149 73.9136C136.429 73.9702 136.686 74.1097 136.888 74.3146C137.09 74.5194 137.227 74.7804 137.283 75.0646C137.338 75.3488 137.31 75.6433 137.201 75.911C137.091 76.1787 136.906 76.4074 136.669 76.5684C136.432 76.7294 136.153 76.8153 135.867 76.8153C135.485 76.8153 135.118 76.6609 134.847 76.3862C134.576 76.1115 134.424 75.7389 134.424 75.3504Z" fill="#1B3C87"/>
<path fill-rule="evenodd" clip-rule="evenodd" d="M144.36 73.8855C144.36 73.5957 144.445 73.3125 144.603 73.0716C144.762 72.8307 144.987 72.6429 145.251 72.5321C145.514 72.4212 145.805 72.3922 146.085 72.4487C146.364 72.5052 146.622 72.6448 146.823 72.8496C147.025 73.0545 147.163 73.3155 147.218 73.5997C147.274 73.8838 147.245 74.1784 147.136 74.4461C147.027 74.7138 146.842 74.9425 146.605 75.1035C146.367 75.2645 146.088 75.3504 145.803 75.3504C145.42 75.3504 145.053 75.196 144.783 74.9213C144.512 74.6466 144.36 74.274 144.36 73.8855Z" fill="#FFD98E"/>
<path fill-rule="evenodd" clip-rule="evenodd" d="M28.443 28.677L37.4878 31.1604L28.5811 64.6355L19.5278 62.1549L28.443 28.677Z" fill="#FF8364"/>
<path d="M22.4111 51.357L27.3916 52.7218" stroke="#FFD98E" stroke-width="4.23" stroke-linecap="round" stroke-linejoin="round"/>
<path d="M20.8301 57.2939L25.8133 58.6586" stroke="#FFD98E" stroke-width="4.23" stroke-linecap="round" stroke-linejoin="round"/>
<path d="M23.9893 45.4202L28.9725 46.785" stroke="#FFD98E" stroke-width="4.23" stroke-linecap="round" stroke-linejoin="round"/>
<path d="M25.5708 39.4891L30.5512 40.8539" stroke="#FFD98E" stroke-width="4.23" stroke-linecap="round" stroke-linejoin="round"/>
<path d="M27.1489 33.5437L32.1322 34.9113" stroke="#FFD98E" stroke-width="4.23" stroke-linecap="round" stroke-linejoin="round"/>
<path fill-rule="evenodd" clip-rule="evenodd" d="M121.603 21.7502L155.755 30.1075L150.118 53.7432L115.979 45.3716L121.603 21.7502Z" fill="#FF8364"/>
<path fill-rule="evenodd" clip-rule="evenodd" d="M142.029 47.3629C142.2 46.6445 142.577 45.9937 143.112 45.4927C143.647 44.9917 144.317 44.6631 145.036 44.5484C145.755 44.4338 146.492 44.5381 147.153 44.8484C147.814 45.1587 148.369 45.6609 148.748 46.2915C149.128 46.9221 149.315 47.6529 149.285 48.3913C149.256 49.1297 149.011 49.8427 148.583 50.44C148.154 51.0374 147.56 51.4922 146.877 51.7471C146.194 52.002 145.451 52.0455 144.743 51.872C143.794 51.6395 142.975 51.0337 142.466 50.1881C141.957 49.3425 141.8 48.3262 142.029 47.3629V47.3629Z" fill="#FF8364"/>
<path fill-rule="evenodd" clip-rule="evenodd" d="M143.117 50.4415L140.662 56.9419L144.089 56.1523L146.291 58.2266L146.733 51.1453" fill="#FF8364"/>
<path d="M123.621 27.8701L150.584 34.4793" stroke="#6BD5E1" stroke-width="3.11" stroke-linecap="round" stroke-linejoin="round"/>
<path d="M122.059 34.3563L138.342 38.3447" stroke="#6BD5E1" stroke-width="3.11" stroke-linecap="round" stroke-linejoin="round"/>
<path fill-rule="evenodd" clip-rule="evenodd" d="M67.4039 24.9604L63.7397 20.9319L69.0105 19.7217L74.2841 18.5114L72.6775 23.753L71.0737 28.9946L67.4039 24.9604Z" fill="#6BD5E1"/>
<path fill-rule="evenodd" clip-rule="evenodd" d="M140.205 109.478L135.186 111.518L135.955 106.082L136.724 100.646L140.972 104.036L145.223 107.426L140.205 109.478Z" fill="#FFD98E"/>
<path d="M99.0005 43.9983C99.0005 43.472 99.1542 42.9576 99.4423 42.52C99.7303 42.0824 100.14 41.7414 100.619 41.54C101.098 41.3386 101.625 41.2859 102.133 41.3886C102.642 41.4912 103.109 41.7446 103.475 42.1168C103.842 42.4889 104.092 42.963 104.193 43.4792C104.294 43.9953 104.242 44.5303 104.044 45.0165C103.845 45.5027 103.509 45.9183 103.078 46.2107C102.647 46.503 102.14 46.6591 101.622 46.6591C100.927 46.6591 100.26 46.3788 99.7682 45.8797C99.2767 45.3807 99.0005 44.704 99.0005 43.9983Z" stroke="#FF8364" stroke-width="3.11" stroke-linecap="round" stroke-linejoin="round"/>
<path fill-rule="evenodd" clip-rule="evenodd" d="M25.7622 88.5687C25.7622 88.0424 25.9159 87.528 26.204 87.0904C26.492 86.6529 26.9014 86.3118 27.3804 86.1104C27.8593 85.909 28.3864 85.8563 28.8948 85.959C29.4033 86.0617 29.8704 86.3151 30.237 86.6872C30.6036 87.0593 30.8532 87.5334 30.9544 88.0496C31.0555 88.5658 31.0036 89.1008 30.8052 89.587C30.6068 90.0732 30.2708 90.4887 29.8398 90.7811C29.4087 91.0735 28.9019 91.2295 28.3835 91.2295C27.6883 91.2295 27.0215 90.9492 26.53 90.4502C26.0384 89.9512 25.7622 89.2744 25.7622 88.5687Z" fill="#FFD98E"/>
<path fill-rule="evenodd" clip-rule="evenodd" d="M85.0684 173.816H102.597C102.597 173.816 102.679 192.198 102.597 199.434C102.597 202.418 85.074 202.075 85.074 199.434L85.0684 173.816Z" fill="#D18C65"/>
<path fill-rule="evenodd" clip-rule="evenodd" d="M76.1025 156.243C76.1025 142.587 84.2764 131.52 94.3754 131.52C104.474 131.52 112.651 142.587 112.651 156.243C112.651 169.899 104.477 180.966 94.3754 180.966C84.2736 180.966 76.1025 169.896 76.1025 156.243Z" fill="#E49D75"/>
<path fill-rule="evenodd" clip-rule="evenodd" d="M104.243 129.746C99.601 140.695 80.367 151.387 72.2664 153.888C70.9868 147.353 79.2762 119.503 104.243 129.746Z" fill="black"/>
<path fill-rule="evenodd" clip-rule="evenodd" d="M93.9638 129.408C90.449 130.759 101.876 149.319 115.563 153.888C121.157 145.808 108.271 129.025 93.9638 129.408Z" fill="black"/>
<path fill-rule="evenodd" clip-rule="evenodd" d="M120.092 5.11791C120.091 4.14764 120.374 3.19884 120.904 2.39158C121.434 1.58431 122.188 0.954875 123.071 0.582914C123.954 0.210953 124.926 0.113189 125.863 0.301994C126.801 0.490799 127.662 0.957686 128.338 1.64357C129.014 2.32946 129.475 3.20351 129.661 4.15513C129.848 5.10674 129.752 6.09314 129.386 6.9895C129.02 7.88586 128.401 8.65189 127.606 9.19065C126.811 9.72941 125.876 10.0167 124.921 10.0161C123.64 10.0161 122.413 9.50016 121.507 8.58164C120.602 7.66313 120.093 6.41726 120.092 5.11791V5.11791Z" fill="#FFD98E"/>
<path d="M36.8169 133.992C36.8169 133.086 37.0814 132.201 37.5769 131.449C38.0725 130.696 38.7768 130.109 39.6008 129.763C40.4249 129.416 41.3316 129.325 42.2064 129.502C43.0812 129.679 43.8848 130.115 44.5155 130.755C45.1462 131.395 45.5757 132.211 45.7497 133.099C45.9237 133.987 45.8344 134.907 45.4931 135.744C45.1518 136.58 44.5737 137.295 43.8321 137.798C43.0905 138.301 42.2186 138.57 41.3266 138.57C40.1306 138.57 38.9835 138.087 38.1378 137.229C37.292 136.37 36.8169 135.206 36.8169 133.992Z" stroke="#6BD5E1" stroke-width="3.11" stroke-linecap="round" stroke-linejoin="round"/>
<path d="M136.738 132.064C136.738 131.537 136.891 131.021 137.179 130.583C137.467 130.144 137.877 129.803 138.356 129.6C138.836 129.398 139.363 129.345 139.873 129.448C140.382 129.55 140.85 129.804 141.217 130.176C141.584 130.548 141.834 131.023 141.936 131.54C142.037 132.057 141.986 132.592 141.787 133.079C141.588 133.566 141.252 133.982 140.821 134.275C140.389 134.568 139.882 134.724 139.362 134.724C139.018 134.725 138.677 134.656 138.358 134.523C138.04 134.389 137.751 134.193 137.507 133.946C137.263 133.699 137.07 133.405 136.938 133.082C136.806 132.759 136.738 132.413 136.738 132.064V132.064Z" stroke="#FF8364" stroke-width="3.11" stroke-linecap="round" stroke-linejoin="round"/>
</svg>
