<?xml version="1.0"?>
<svg xmlns="http://www.w3.org/2000/svg" height="512px" viewBox="0 0 60 60" width="512px" class=""><g><g id="Page-1" fill="none" fill-rule="evenodd"><g id="105---Diamond" fill-rule="nonzero"><path id="Shape" d="m29.36 58.77c-.3604591-.1236597-.6814667-.3411165-.93-.63l-26.96-31.87c-.30121179-.3548487-.46763795-.8045534-.47-1.27h10.63z" fill="#a4c2f7" data-original="#A4C2F7" class="" style="fill:#E67775" data-old_color="#a4c2f7"/><path id="Shape" d="m29.77 58.86c-.1387859-.0193664-.2758627-.0494565-.41-.09l-17.73-33.77h11.22z" fill="#e8edfc" data-original="#E8EDFC" class=""/><path id="Shape" d="m59 25c-.002362.4654466-.1687882.9151513-.47 1.27l-26.96 31.87c-.2485333.2888835-.5695409.5063403-.93.63l17.73-33.77z" fill="#a4c2f7" data-original="#A4C2F7" class="" style="fill:#E67775" data-old_color="#a4c2f7"/><path id="Shape" d="m45.22 8.19-2.63 5.48-5.44 11.33-7.15-17h14.35c.3001644.00117662.596674.0659316.87.19z" fill="#e8edfc" data-original="#E8EDFC" class=""/><path id="Shape" d="m30 8-7.15 17-5.44-11.33-2.63-5.48c.273326-.1240684.5698356-.18882338.87-.19z" fill="#e8edfc" data-original="#E8EDFC" class=""/><path id="Shape" d="m37.15 25h-14.3l7.15-17z" fill="#cad9fc" data-original="#CAD9FC" class="active-path" style="fill:#E2AF9E" data-old_color="#cad9fc"/><path id="Shape" d="m37.15 25-6.91 33.86c-.1565071.0100011-.3134929.0100011-.47 0l-6.92-33.86z" fill="#a4c2f7" data-original="#A4C2F7" class="" style="fill:#E67775" data-old_color="#a4c2f7"/><path id="Shape" d="m58.53 23.72-12.61-14.99c-.1914814-.22856127-.4303196-.41280786-.7-.54l-2.63 5.48-5.44 11.33h21.85c-.0006087-.4687792-.1671052-.9222165-.47-1.28z" fill="#cad9fc" data-original="#CAD9FC" class="active-path" style="fill:#E2AF9E" data-old_color="#cad9fc"/><path id="Shape" d="m14.78 8.19c-.2696804.12719214-.5085186.31143873-.7.54l-12.61 14.99c-.30289481.3577835-.46939129.8112208-.47 1.28h21.85l-5.44-11.33z" fill="#cad9fc" data-original="#CAD9FC" class="active-path" style="fill:#E2AF9E" data-old_color="#cad9fc"/><path id="Shape" d="m48.37 25-17.73 33.77c-.1307402.0405432-.2644941.0706378-.4.09l6.91-33.86z" fill="#e8edfc" data-original="#E8EDFC" class=""/><path id="Shape" d="m1.47 26.27 26.96 31.87c.5402139.6395596 1.4137558.8885783 2.21.63.238-.082.237.042.835-.591-.014-.015-.032-.023-.045-.039l-26.96-31.87c-.62641027-.7345912-.62641027-1.8154088 0-2.55l12.61-14.99c.3890793-.46425156.9642696-.73169673 1.57-.73h-3c-.6057304-.00169673-1.1809207.26574844-1.57.73l-12.61 14.99c-.62641027.7345912-.62641027 1.8154088 0 2.55z" fill="#fff" data-original="#FFF" class=""/><path id="Rectangle-path" d="m.044 19.662h8v2h-8z" fill="#fff" transform="matrix(.643 -.765 .765 .643 -14.375 10.462)" data-original="#FFF" class=""/><g fill="#428dff"><path id="Shape" d="m4.809 21.306c.35535623-.422763.30072117-1.0535513-.12203204-1.4089192-.4227532-.3553678-1.05354303-.3007501-1.4089225.1219933-.35537948.4227435-.30077912 1.0535348.12195454 1.4089259.20301875.1706773.4655264.2537102.7297685.2308305s.50857091-.1497977.6792315-.3528305z" data-original="#428DFF" class="" data-old_color="#428DFF" style="fill:#FE3119"/><path id="Shape" d="m2.113 22.959c-.20324131-.1719305-.46664734-.2557271-.7318694-.2328276-.26522207.0228996-.51036676.1506051-.6811306.3548276-.93416661 1.1098105-.92993866 2.7320738.01 3.837l26.955 31.87c.5832798.6836644 1.4368275 1.0774289 2.3355 1.0774289s1.7522202-.3937645 2.3355-1.0774289l26.954-31.87c.9387816-1.105904.9413183-2.7281654.006-3.837l-12.607-15c-.5822417-.68857751-1.439261-1.08432201-2.341-1.081h-28.7c-.9023903-.00232838-1.7595198.39493159-2.341 1.085l-7.455 8.873c-.33933989.4239826-.2782778 1.0412978.13755026 1.3905825s1.0344161.3028578 1.39344974-.1045825l7.075-8.416 6.807 14.172h-8.006l2.32-4.545c.1625559-.318145.1430353-.6988456-.0512084-.9986956-.1942438-.29985-.5337004-.4732951-.8905-.4550001-.3567996.0182951-.6767358.2255507-.8392916.5436957l-2.785 5.455h-8.585c.10937752-.3787557-.01398139-.7864275-.315-1.041zm.44 3.041h8.469l9.927 18.909c.1611956.3250872.4858424.5373472.8482885.5546263.3624461.0172792.7058131-.1631339.8972036-.4714121.1913906-.3082781.20077-.6960432.0245079-1.0132142l-9.438-17.979h8.757l6.2 30.365zm28.256 31.5c-.0756359.0787712-.1646922.1434471-.263.191l-6.467-31.691h11.841l-4.858 23.8c-.0811652.3538169.0357833.7238327.3055491.9667331.2697659.2429004.6499785.3205344.9933741.2028329s.5960392-.4122519.6600768-.769566l4.941-24.2h8.757l-9.438 17.979c-.1762621.317171-.1668827.7049361.0245079 1.0132142.1913905.3082782.5347575.4886913.8972036.4714121.3624461-.0172791.6870929-.2295391.8482885-.5546263l9.928-18.909h8.468zm26.646-33.5h-18.72l6.807-14.171zm-20.249-1.437-5.701-13.563h12.217zm-8.706-13.563-5.7 13.563-6.522-13.563zm1.5 1.581 5.64 13.419h-11.28z" data-original="#428DFF" class="" data-old_color="#428DFF" style="fill:#FE3119"/><path id="Shape" d="m4 59c0 .5522847.44771525 1 1 1h2c.55228475 0 1-.4477153 1-1s-.44771525-1-1-1h-2c-.55228475 0-1 .4477153-1 1z" data-original="#428DFF" class="" data-old_color="#428DFF" style="fill:#FE3119"/><path id="Shape" d="m11 60h9c.5522847 0 1-.4477153 1-1s-.4477153-1-1-1h-9c-.5522847 0-1 .4477153-1 1s.4477153 1 1 1z" data-original="#428DFF" class="" data-old_color="#428DFF" style="fill:#FE3119"/><path id="Shape" d="m53 58c-.5522847 0-1 .4477153-1 1s.4477153 1 1 1h2c.5522847 0 1-.4477153 1-1s-.4477153-1-1-1z" data-original="#428DFF" class="" data-old_color="#428DFF" style="fill:#FE3119"/><path id="Shape" d="m40 58c-.5522847 0-1 .4477153-1 1s.4477153 1 1 1h9c.5522847 0 1-.4477153 1-1s-.4477153-1-1-1z" data-original="#428DFF" class="" data-old_color="#428DFF" style="fill:#FE3119"/><path id="Shape" d="m54 0c-.5522847 0-1 .44771525-1 1v2c0 .55228475.4477153 1 1 1s1-.44771525 1-1v-2c0-.55228475-.4477153-1-1-1z" data-original="#428DFF" class="" data-old_color="#428DFF" style="fill:#FE3119"/><path id="Shape" d="m54 8c-.5522847 0-1 .44771525-1 1v2c0 .5522847.4477153 1 1 1s1-.4477153 1-1v-2c0-.55228475-.4477153-1-1-1z" data-original="#428DFF" class="" data-old_color="#428DFF" style="fill:#FE3119"/><path id="Shape" d="m51 5h-2c-.5522847 0-1 .44771525-1 1s.4477153 1 1 1h2c.5522847 0 1-.44771525 1-1s-.4477153-1-1-1z" data-original="#428DFF" class="" data-old_color="#428DFF" style="fill:#FE3119"/><path id="Shape" d="m59 5h-2c-.5522847 0-1 .44771525-1 1s.4477153 1 1 1h2c.5522847 0 1-.44771525 1-1s-.4477153-1-1-1z" data-original="#428DFF" class="" data-old_color="#428DFF" style="fill:#FE3119"/><path id="Shape" d="m6 42c-.55228475 0-1 .4477153-1 1v2c0 .5522847.44771525 1 1 1s1-.4477153 1-1v-2c0-.5522847-.44771525-1-1-1z" data-original="#428DFF" class="" data-old_color="#428DFF" style="fill:#FE3119"/><path id="Shape" d="m6 50c-.55228475 0-1 .4477153-1 1v2c0 .5522847.44771525 1 1 1s1-.4477153 1-1v-2c0-.5522847-.44771525-1-1-1z" data-original="#428DFF" class="" data-old_color="#428DFF" style="fill:#FE3119"/><path id="Shape" d="m3 47h-2c-.55228475 0-1 .4477153-1 1s.44771525 1 1 1h2c.55228475 0 1-.4477153 1-1s-.44771525-1-1-1z" data-original="#428DFF" class="" data-old_color="#428DFF" style="fill:#FE3119"/><path id="Shape" d="m11 47h-2c-.55228475 0-1 .4477153-1 1s.44771525 1 1 1h2c.5522847 0 1-.4477153 1-1s-.4477153-1-1-1z" data-original="#428DFF" class="" data-old_color="#428DFF" style="fill:#FE3119"/></g></g></g></g> </svg>
