<svg width="194" height="152" viewBox="0 0 194 152" fill="none" xmlns="http://www.w3.org/2000/svg">
<g clip-path="url(#clip0)">
<path opacity="0.1" d="M68.052 149.056C86.7416 149.056 101.893 146.182 101.893 142.637C101.893 139.092 86.7416 136.218 68.052 136.218C49.3624 136.218 34.2114 139.092 34.2114 142.637C34.2114 146.182 49.3624 149.056 68.052 149.056Z" fill="#E91E63"/>
<path opacity="0.1" d="M112.715 21.4364C100.278 21.0053 88.4325 16.9837 77.1216 12.5849C65.8107 8.18618 54.6074 3.31405 42.4682 0.983819C34.6604 -0.515149 25.7305 -0.728738 19.4408 3.45837C13.3857 7.49923 11.4294 14.4553 10.3783 20.9149C9.58652 25.7755 9.12148 30.892 11.2891 35.4428C12.7957 38.6023 15.4668 41.2578 17.3155 44.2846C23.7473 54.8139 19.2006 67.7985 12.2327 78.0797C8.96582 82.9018 5.17053 87.5083 2.64738 92.6364C0.124233 97.7644 -1.04222 103.66 1.16578 108.906C3.35263 114.101 8.56612 117.996 14.2139 120.738C25.6843 126.308 39.1956 127.902 52.3801 128.806C81.5568 130.803 110.887 129.939 140.141 129.072C150.967 128.752 161.84 128.427 172.49 126.751C178.405 125.82 184.51 124.342 188.805 120.774C194.255 116.247 195.606 108.58 191.953 102.904C185.826 93.3791 168.893 91.0143 164.606 80.7947C162.25 75.1683 164.669 68.9031 168.095 63.6865C175.444 52.4933 187.76 42.674 188.407 29.8818C188.853 21.0958 182.932 12.2963 173.778 8.13807C164.183 3.77971 150.875 4.32812 143.8 11.542C136.507 18.9618 123.697 21.8193 112.715 21.4364Z" fill="#025559"/>
<path d="M102.832 69.6068L96.9462 65.6333L99.9152 61.2076L84.3689 59.9664L78.7826 64.2921L71.7897 60.3667L65.9574 61.069L65.8882 59.5296C65.816 57.9248 65.655 56.3253 65.4059 54.7383C65.4309 54.2573 65.4482 53.705 65.4462 53.1047C65.4462 50.5743 65.1042 47.2204 63.6014 44.9845L63.9473 41.8711L61.1417 38.5518C61.5923 37.6531 62.106 36.7876 62.679 35.9618C62.7751 35.8232 62.8712 35.6885 62.975 35.5577C66.6165 35.2941 69.4894 32.2961 69.4894 28.6305C69.4894 28.4612 69.4894 28.2918 69.4702 28.1244C69.4702 28.0571 69.4568 27.9878 69.4491 27.9205C69.8046 28.1129 70.1639 28.3053 70.5233 28.4977C70.5905 28.5939 70.6674 28.6901 70.752 28.8037L70.7692 28.8248L70.8769 28.9576L70.9115 28.998C70.9499 29.0442 70.9902 29.0885 71.0306 29.1346L71.0575 29.1654C71.1593 29.279 71.267 29.3944 71.3823 29.5079C71.396 29.5191 71.4088 29.5314 71.4207 29.5445L71.5648 29.6792L71.6052 29.7158C71.7282 29.8254 71.8588 29.9313 71.9895 30.0313L72.0318 30.0621L72.197 30.1756L72.2509 30.2103C72.3143 30.2488 72.3796 30.2892 72.443 30.3257L72.4661 30.3392C72.541 30.3796 72.6179 30.4181 72.6948 30.4547L72.7332 30.4701C72.7985 30.4983 72.8626 30.5252 72.9254 30.5509L72.9849 30.572C73.0522 30.5951 73.1175 30.6163 73.1867 30.6355L73.229 30.6471C73.3135 30.6682 73.3981 30.6856 73.4846 30.699H73.4942C73.5756 30.7122 73.6577 30.7206 73.7401 30.724H73.7959C73.8695 30.7279 73.9433 30.7279 74.0169 30.724H74.0649C74.1571 30.7187 74.2489 30.7078 74.3397 30.6913C74.7697 30.6347 75.1825 30.4864 75.5504 30.2565C75.644 30.1938 75.7271 30.1164 75.7963 30.0275C76.1807 29.5233 75.7579 28.9711 75.7579 28.9711C75.608 28.6132 74.6356 28.3611 74.6356 28.3611C74.6356 28.3611 71.561 27.0757 71.561 26.052C71.561 25.0284 70.7923 19.7175 62.8577 18.5033C62.8577 18.5033 57.6962 18.2128 56.2453 20.9798L56.2145 21.3031C55.7879 21.5705 55.4343 22.1074 55.0135 22.2652C54.8317 22.3043 54.6563 22.3691 54.4927 22.4576V22.421C54.4441 22.4636 54.4043 22.5152 54.3755 22.573C54.2851 22.7532 54.2309 22.9493 54.216 23.1503C54.1727 23.3959 54.0876 23.6322 53.9643 23.8488C53.9299 23.9104 53.8914 23.9695 53.849 24.0258V24.0258L53.8163 24.0778C54.0394 24.0952 54.2634 24.0589 54.4697 23.972C54.4372 24.2354 54.3726 24.4939 54.2775 24.7416C54.3997 24.7456 54.5204 24.7143 54.6253 24.6516C54.7302 24.5888 54.815 24.4972 54.8694 24.3876V24.3722L54.8944 24.3376C54.9427 24.2485 54.9826 24.1551 55.0135 24.0585L54.9924 24.0816C55.0308 23.9566 55.0654 23.8296 55.1077 23.7064C55.127 23.637 55.1589 23.5718 55.2018 23.514C55.2531 23.4622 55.3158 23.4232 55.3849 23.4002C55.454 23.3771 55.5276 23.3706 55.5996 23.3812L55.5208 25.0495H55.5554C55.5091 25.1709 55.4526 25.288 55.3863 25.3997C55.1134 25.8423 54.6176 26.1444 54.4351 26.6293C54.3564 26.8632 54.3263 27.1107 54.3467 27.3567C54.3467 27.501 54.364 27.6472 54.3755 27.7915V27.78C54.4024 28.1648 54.4101 28.5304 54.2026 28.8402C54.0604 29.0519 53.8317 29.2116 53.7529 29.4521C53.7311 29.5192 53.7213 29.5895 53.7241 29.66C53.7395 29.8708 53.7834 30.0786 53.8547 30.2776C53.8556 30.2738 53.8556 30.2699 53.8547 30.2661C53.9027 30.4125 53.9139 30.5684 53.8874 30.7202C53.8009 31.105 53.334 31.4264 53.357 31.7939C53.3557 31.8423 53.3629 31.8904 53.3782 31.9363C53.468 32.1158 53.6236 32.2537 53.8125 32.3212C54.1087 32.4899 54.449 32.565 54.7887 32.5367C54.916 32.5136 55.0391 32.4715 55.1538 32.4116C55.0193 32.7214 54.8809 33.0273 54.7406 33.3179C54.7195 33.3641 54.6964 33.4103 54.6734 33.4564C54.6734 33.4564 53.4858 32.6617 52.8113 34.2819C52.6144 34.6186 52.4735 34.9852 52.3943 35.3672C52.3605 35.52 52.3129 35.6694 52.2521 35.8136C51.9526 36.3212 51.5045 36.7243 50.9684 36.9681C49.5925 37.5993 44.035 44.54 43.937 46.3372C43.8889 47.0387 43.7705 47.7337 43.5834 48.4115C43.1459 50.0077 43.0335 51.6757 43.2529 53.3163C43.3216 53.8465 43.4354 54.3699 43.593 54.8807C44.183 56.676 44.5769 60.0261 44.5769 60.0261L45.2149 65.8411C45.1912 66.6437 45.2259 67.4469 45.3187 68.2444C44.6672 68.9891 42.0519 72.0929 43.0511 72.9376C43.8198 73.6034 45.165 73.4937 45.9202 73.3571C45.2841 74.933 44.2829 77.6731 44.1503 79.555C43.9582 82.3394 44.4789 86.0281 45.3033 87.4443C46.1277 88.8606 48.8757 92.4935 48.8757 92.4935C48.8757 92.4935 48.7469 97.4772 49.7289 99.2879C50.7109 101.099 51.1067 104.855 51.1067 104.855C51.1067 104.855 52.0234 108.026 51.5641 109.192C51.1048 110.358 52.4154 111.328 51.0395 112.103C49.6636 112.879 47.9033 130.356 47.9033 130.356C47.9033 130.356 47.1942 141.811 47.9033 142.394C47.9413 142.422 47.9818 142.446 48.0244 142.466V146.314C48.0244 146.314 47.5324 147.122 49.5329 147.286C50.9031 147.395 54.7867 147.644 57.0908 147.788L58.876 147.9C58.876 147.9 63.1037 148.742 64.9716 147.9C66.8394 147.057 70.1505 147.076 69.6585 144.85C69.5933 144.547 69.5059 144.249 69.3972 143.959C68.8572 142.577 67.9406 142.419 66.2514 142.034C66.1534 142.013 66.0592 141.994 65.9728 141.979C64.1933 141.669 63.6091 142.498 62.6118 141.419C61.7451 140.485 58.9856 139.441 58.0459 139.11C58.069 139.04 58.0978 138.973 58.1208 138.902C57.8547 138.857 57.6073 138.736 57.4079 138.554L59.9541 138.715L61.4703 138.809C61.4703 138.809 65.0638 139.527 66.6588 138.809C68.2538 138.092 71.0594 138.111 70.6405 136.219C70.5853 135.962 70.5115 135.708 70.4195 135.461C69.9602 134.288 69.18 134.159 67.7445 133.833C67.6619 133.816 67.585 133.799 67.5082 133.785C65.9958 133.522 65.5 134.226 64.6526 133.31C63.9262 132.529 61.6336 131.653 60.8093 131.355C60.8093 130.928 60.2327 130.32 59.8696 129.71C59.4429 128.998 60.2308 126.506 60.2308 126.506L60.6805 116.167C60.8517 116.091 61.0329 116.039 61.2186 116.013C61.2186 116.013 63.2517 114.07 62.7924 111.999C62.6988 111.373 62.65 110.741 62.6464 110.108C63.3151 109.486 64.2356 108.568 64.4969 108.003C64.9235 107.081 64.4969 102.615 64.4969 102.615V85.5374L67.8983 85.8819L70.9845 86.1994L71.9242 86.2956L75.0104 86.6073L82.1032 87.325L88.4947 86.1128L91.26 85.5894L96.9462 84.5118V70.5804L102.832 69.6068ZM56.0185 23.4428L55.6227 23.4005C55.7533 23.4062 55.8917 23.4313 56.0185 23.4428Z" fill="url(#paint0_linear)"/>
<path d="M89.0368 78.6526C87.1151 81.4061 80.2067 79.9476 80.2067 79.9476L74.8529 74.9311L74.1323 74.2519L75.3411 71.6811C75.3411 71.6811 75.7254 71.7869 76.3845 71.9755C79.8454 72.9819 90.6587 76.3377 89.0368 78.6526Z" fill="#EFB7B9"/>
<path opacity="0.1" d="M76.3807 71.9755C76.1443 72.7991 75.4967 74.0325 74.8529 74.9311L74.1323 74.2519L75.341 71.6811C75.341 71.6811 75.7292 71.7869 76.3807 71.9755Z" fill="black"/>
<path d="M58.0187 42.9852C58.0187 42.9852 53.0839 45.1769 53.326 50.5589C53.5002 54.0263 53.8775 57.4804 54.4559 60.9035C54.4559 60.9035 53.4471 69.0026 57.6478 71.0904C61.8486 73.1781 65.7361 74.8945 65.7361 74.8945C65.7361 74.8945 72.3082 75.6027 73.1249 75.8951C73.9417 76.1876 76.4936 71.7157 76.0228 71.0192C75.552 70.3226 69.5199 68.8621 68.7512 67.6999C67.9826 66.5376 66.205 65.8199 66.205 65.8199C66.205 65.8199 64.3698 64.7077 64.2449 63.7033C64.12 62.6988 64.6043 61.9503 64.7273 61.5097C64.8502 61.069 65.1616 56.8146 65.1616 56.8146C65.1616 56.8146 67.2331 41.6709 58.0187 42.9852Z" fill="#DCE6F2"/>
<path opacity="0.1" d="M61.2761 60.6823C61.2761 60.6823 54.5061 61.8175 55.1614 64.1901C55.1614 64.1901 57.6192 61.629 61.2761 60.6823Z" fill="black"/>
<path opacity="0.1" d="M61.3282 61.6424C61.3282 61.6424 57.6059 64.6846 58.3342 64.8405C59.0625 64.9963 61.3282 61.6424 61.3282 61.6424Z" fill="black"/>
<path opacity="0.1" d="M63.1172 62.7027C63.1172 62.7027 62.1199 64.7481 62.7329 64.6096C63.3459 64.471 63.1172 62.7027 63.1172 62.7027Z" fill="black"/>
<path opacity="0.1" d="M76.6306 72.1929L76.2193 72.0756C76.3366 71.6907 76.3692 71.379 76.2732 71.2347C75.8023 70.5381 69.7741 69.0796 69.0073 67.9154C68.2406 66.7513 66.4611 66.0354 66.4611 66.0354C66.4611 66.0354 64.6259 64.9232 64.501 63.9188C64.3761 62.9144 64.8604 62.1658 64.9834 61.7252C65.1063 61.2845 65.4177 57.0282 65.4177 57.0282C65.4177 57.0282 67.4834 41.8865 58.2691 43.2007C58.2691 43.2007 53.3342 45.3943 53.5744 50.7764C53.7487 54.2438 54.1266 57.698 54.7063 61.121C54.7063 61.121 53.6974 69.22 57.8982 71.3078C62.0989 73.3956 65.9865 75.112 65.9865 75.112C65.9865 75.112 72.5566 75.8182 73.3753 76.1126C73.6847 76.2242 74.2439 75.6489 74.7915 74.858L75.1029 75.1486L80.4566 80.1631C80.4566 80.1631 87.365 81.6236 89.2867 78.87C90.9105 76.5532 80.0992 73.1974 76.6306 72.1929Z" fill="black"/>
<path d="M55.1788 22.7847C54.9907 22.8215 54.8105 22.8912 54.6465 22.9906C54.4543 23.1503 54.4543 23.4236 54.4063 23.6622C54.3499 23.9941 54.2184 24.3087 54.022 24.5819C54.2406 24.598 54.46 24.5617 54.6619 24.4761C54.629 24.7395 54.5645 24.9979 54.4697 25.2458C54.5895 25.2488 54.7075 25.2172 54.8098 25.1548C54.912 25.0923 54.9941 25.0017 55.0462 24.8937C55.1479 24.6768 55.2283 24.4506 55.2864 24.2183C55.3045 24.1488 55.3358 24.0834 55.3787 24.0258C55.5555 23.8161 55.8841 23.9104 56.1569 23.9373C56.384 23.9565 56.6121 23.9145 56.8176 23.8157C57.023 23.7169 57.1983 23.5649 57.3253 23.3755C57.6155 22.9348 57.6328 21.8072 56.941 21.6879C56.2184 21.5686 55.7688 22.5654 55.1788 22.7847Z" fill="#965D7B"/>
<g opacity="0.1">
<path opacity="0.1" d="M54.6274 23.2273C54.6447 23.133 54.6562 23.0348 54.6773 22.9406C54.4948 23.1003 54.4852 23.3716 54.4371 23.6121C54.4129 23.7509 54.3749 23.8869 54.3237 24.0181C54.475 23.7766 54.5782 23.5081 54.6274 23.2273V23.2273Z" fill="black"/>
<path opacity="0.1" d="M54.6888 24.8167C54.7845 24.5691 54.849 24.3105 54.8809 24.047C54.6885 24.1281 54.4802 24.1643 54.2718 24.1528C54.2111 24.2881 54.1371 24.4171 54.0508 24.5376C54.2687 24.5545 54.4875 24.5189 54.6888 24.4337C54.6569 24.6973 54.5923 24.9558 54.4966 25.2034C54.6163 25.2062 54.7343 25.1745 54.8365 25.1121C54.9387 25.0497 55.0208 24.9591 55.0731 24.8513C55.121 24.7638 55.1596 24.6716 55.1884 24.5761C55.132 24.655 55.0567 24.7184 54.9694 24.7605C54.882 24.8025 54.7855 24.8218 54.6888 24.8167V24.8167Z" fill="black"/>
<path opacity="0.1" d="M56.3761 23.5082C56.1032 23.4813 55.7727 23.387 55.5959 23.5967C55.5538 23.6548 55.5225 23.72 55.5036 23.7891C55.4863 23.8392 55.471 23.8911 55.4575 23.9431C55.6401 23.7988 55.936 23.8757 56.1839 23.9007C56.4109 23.9193 56.6388 23.8771 56.8441 23.7783C57.0494 23.6796 57.2248 23.5279 57.3523 23.3389C57.4105 23.2454 57.454 23.1435 57.481 23.0368C57.3494 23.1999 57.1799 23.3281 56.9872 23.4103C56.7946 23.4925 56.5847 23.5261 56.3761 23.5082Z" fill="black"/>
</g>
<path d="M60.9632 38.6768L63.8937 42.2059L63.5113 45.7676L59.9697 40.2162L60.9632 38.6768Z" fill="#DCE6F2"/>
<path opacity="0.1" d="M63.8918 42.2059L63.5325 45.5559L63.5094 45.7676L60.3137 40.7569L59.9697 40.2162L60.0697 40.0604L60.9613 38.6768L61.1592 38.9155L63.8918 42.2059Z" fill="black"/>
<path d="M65.4137 33.899C64.4221 34.1838 63.4747 35.1613 62.6503 36.3485C62.0931 37.1677 61.5948 38.0255 61.1591 38.9154C60.8882 39.4581 60.6499 39.9795 60.4519 40.4337L60.3136 40.7569C59.9792 41.5478 59.7928 42.0769 59.7928 42.0769C59.7928 42.0769 52.2022 36.362 53.4033 35.9772C53.8068 35.8482 54.3372 34.9823 54.8618 33.8913L54.9271 33.7528C55.2596 33.0523 55.5863 32.2711 55.8765 31.5361C56.4702 30.0255 56.9103 28.7132 56.9103 28.7132C56.9103 28.7132 68.4403 33.0331 65.4137 33.899Z" fill="#EFB7B9"/>
<path d="M69.9546 28.3919C69.9546 28.3919 71.7072 31.5668 74.0612 31.1339C76.4152 30.7009 75.4467 29.429 75.4467 29.429L69.9546 28.3919Z" fill="#444053"/>
<path d="M66.5589 138.294C65.0062 139.004 61.4953 138.294 61.4953 138.294L60.0156 138.201C58.094 138.078 54.8771 137.87 53.7395 137.778C52.0791 137.641 52.4865 136.96 52.4865 136.96V132.844L60.5422 130.801C60.5422 130.801 63.7264 131.892 64.5988 132.844C65.427 133.753 65.9113 133.054 67.3891 133.316C67.4621 133.329 67.539 133.345 67.6197 133.364C69.0225 133.685 69.7835 133.812 70.2331 134.976C70.3235 135.221 70.3961 135.472 70.4503 135.727C70.8654 137.601 68.1097 137.588 66.5589 138.294Z" fill="#A36468"/>
<path opacity="0.1" d="M70.2331 134.976C69.9445 135.157 69.641 135.313 69.3261 135.442C68.2692 135.925 67.2642 136.514 66.1957 136.97C65.1273 137.426 63.9762 137.751 62.8193 137.665C62.214 137.62 61.5952 137.472 61.0168 137.645C60.6591 137.784 60.3222 137.971 60.0156 138.201C58.094 138.078 54.8771 137.87 53.7395 137.778C52.0791 137.641 52.4865 136.96 52.4865 136.96V136.479C52.5461 136.479 52.6134 136.462 52.6902 136.456C53.0879 136.45 53.4839 136.509 53.8624 136.631C54.6964 136.858 55.5266 137.082 56.3606 137.305C56.4292 137.046 56.5498 136.803 56.715 136.592C56.8801 136.381 57.0865 136.206 57.3214 136.077C57.7975 135.824 58.3317 135.701 58.8703 135.721C60.1636 135.738 61.3877 136.352 62.6791 136.414C63.0401 136.447 63.4036 136.386 63.7341 136.237C63.9108 136.148 64.0665 136.019 64.2394 135.921C64.5162 135.787 64.8087 135.688 65.11 135.627C65.9568 135.416 66.7883 135.147 67.5985 134.822C67.8291 134.732 68.0982 134.568 68.0674 134.322C68.0271 133.995 67.514 133.957 67.3795 133.656C67.3557 133.602 67.3448 133.543 67.3474 133.484C67.3501 133.425 67.3663 133.368 67.3948 133.316C67.4679 133.329 67.5447 133.345 67.6254 133.364C69.0225 133.685 69.7835 133.812 70.2331 134.976Z" fill="black"/>
<path d="M64.9179 147.299C63.0923 148.134 58.9607 147.299 58.9607 147.299L57.2216 147.197C54.9694 147.053 51.1761 146.812 49.8367 146.699C47.8823 146.537 48.3627 145.737 48.3627 145.737V140.886L57.8423 138.48C57.8423 138.48 61.5896 139.764 62.6157 140.886C63.59 141.954 64.1531 141.132 65.8999 141.44C65.9864 141.455 66.0767 141.475 66.1708 141.496C67.8215 141.881 68.717 142.025 69.2455 143.395C69.3525 143.683 69.4379 143.978 69.5011 144.278C69.9777 146.483 66.7435 146.466 64.9179 147.299Z" fill="#A36468"/>
<path opacity="0.1" d="M69.2417 143.395C68.9021 143.607 68.5453 143.791 68.1751 143.943C66.9318 144.511 65.7481 145.204 64.4913 145.74C63.2345 146.277 61.8797 146.658 60.5173 146.558C59.8063 146.506 59.078 146.327 58.4034 146.535C57.9808 146.7 57.5831 146.923 57.2216 147.197C54.9694 147.053 51.1761 146.812 49.8367 146.699C47.8823 146.537 48.3627 145.737 48.3627 145.737V145.171C48.4423 145.158 48.5225 145.149 48.6029 145.144C49.0711 145.135 49.5374 145.205 49.9827 145.35L52.9209 146.143C53.0028 145.837 53.146 145.551 53.342 145.303C53.5379 145.054 53.7824 144.848 54.0605 144.698C54.6206 144.399 55.2499 144.254 55.8841 144.278C57.4061 144.299 58.8454 145.021 60.3655 145.094C60.7888 145.133 61.2149 145.062 61.603 144.888C61.8125 144.782 61.9874 144.63 62.1987 144.517C62.5237 144.357 62.868 144.241 63.223 144.17C64.214 143.92 65.1872 143.604 66.1362 143.224C66.4072 143.116 66.7243 142.923 66.6878 142.635C66.6397 142.25 66.0363 142.204 65.8768 141.85C65.8499 141.786 65.8377 141.717 65.841 141.647C65.8444 141.578 65.8632 141.511 65.896 141.45C65.9825 141.465 66.0728 141.484 66.167 141.505C67.8177 141.875 68.7132 142.025 69.2417 143.395Z" fill="black"/>
<path d="M60.7861 114.012L60.273 126.102C60.273 126.102 59.5043 128.571 59.9213 129.277C60.3383 129.983 61.0416 130.687 60.7861 131.105C60.5305 131.522 57.4558 136.037 56.4623 134.305C55.4688 132.573 54.4888 125.069 54.4888 125.069L55.4054 115.8L60.7861 114.012Z" fill="#444053"/>
<path d="M63.0114 83.8903L64.4373 85.7991V102.401C64.4373 102.401 64.8543 106.827 64.4373 107.741C64.0203 108.655 61.9065 110.483 61.9065 110.483L60.1289 101.343L60.5132 91.6738L63.0114 83.8903Z" fill="#444053"/>
<path opacity="0.1" d="M60.7861 114.012L60.273 126.102C60.273 126.102 59.5043 128.571 59.9213 129.277C60.3383 129.983 61.0416 130.687 60.7861 131.105C60.5305 131.522 57.4558 136.037 56.4623 134.305C55.4688 132.573 54.4888 125.069 54.4888 125.069L55.4054 115.8L60.7861 114.012Z" fill="black"/>
<path opacity="0.1" d="M63.0114 83.8903L64.4373 85.7991V102.401C64.4373 102.401 64.8543 106.827 64.4373 107.741C64.0203 108.655 61.9065 110.483 61.9065 110.483L60.1289 101.343L60.5132 91.6738L63.0114 83.8903Z" fill="black"/>
<path d="M64.4374 76.8091V85.7895L62.8366 92.7802C62.8366 92.7802 62.3235 109.65 62.7713 111.701C63.219 113.752 61.234 115.678 61.234 115.678C61.234 115.678 60.081 115.807 60.081 116.704C60.081 117.601 58.1593 120.168 58.1593 120.168L58.2227 125.171C58.2227 125.171 59.0567 134.536 57.775 136.331C56.4932 138.126 58.2227 138.384 58.2227 138.384C56.622 143.643 48.9353 142.425 48.2416 141.848C47.5478 141.271 48.2416 129.918 48.2416 129.918C48.2416 129.918 49.9595 112.6 51.3047 111.83C52.6499 111.06 51.37 110.098 51.8178 108.944C52.2655 107.789 51.37 104.647 51.37 104.647C51.37 104.647 50.9857 100.925 50.0249 99.1301C49.064 97.3348 49.1909 92.3953 49.1909 92.3953C49.1909 92.3953 46.5005 88.8028 45.7011 87.3924C44.9017 85.9819 44.3867 82.3259 44.5789 79.5665C44.7095 77.702 45.6877 74.9869 46.3084 73.4244C46.6062 72.6759 46.8215 72.191 46.8215 72.191L47.004 72.2391L57.5002 74.9907L64.4374 76.8091Z" fill="#444053"/>
<path opacity="0.1" d="M65.4137 33.899C64.4221 34.1838 63.4747 35.1613 62.6503 36.3485H62.4351C61.2267 36.3494 60.0395 36.0308 58.9935 35.425C57.9475 34.8192 57.0797 33.9477 56.4779 32.8984C56.2264 32.4637 56.024 32.0022 55.8745 31.5226C56.4683 30.0121 56.9084 28.6998 56.9084 28.6998C56.9084 28.6998 68.4403 33.0331 65.4137 33.899Z" fill="black"/>
<path d="M69.3049 29.0885C69.3066 30.1413 69.0669 31.1805 68.6043 32.126C68.1417 33.0715 67.4686 33.8981 66.6367 34.542C65.8048 35.186 64.8365 35.6301 63.8062 35.8403C62.7759 36.0504 61.7111 36.021 60.694 35.7542C59.6768 35.4873 58.7344 34.9903 57.9394 34.3014C57.1443 33.6124 56.5177 32.7499 56.108 31.7802C55.6983 30.8106 55.5163 29.7597 55.5761 28.7086C55.6358 27.6574 55.9358 26.634 56.4527 25.7172C56.661 25.3447 56.9042 24.9929 57.1791 24.6666C57.6323 24.126 58.1649 23.6576 58.7587 23.2773C59.7618 22.6391 60.913 22.2723 62.0999 22.2128C63.2868 22.1533 64.4688 22.4031 65.5305 22.9379C66.5922 23.4726 67.4971 24.2739 68.157 25.2636C68.8169 26.2533 69.2091 27.3975 69.2953 28.5843C69.2991 28.7537 69.3049 28.9211 69.3049 29.0885Z" fill="#EFB7B9"/>
<path opacity="0.1" d="M63.5324 45.5559L63.5093 45.7676L60.3136 40.7646C59.9792 41.5555 59.7928 42.0846 59.7928 42.0846C59.7928 42.0846 52.2022 36.362 53.4033 35.9772C53.8068 35.8483 54.3372 34.9824 54.8618 33.8913L54.9271 33.7528C55.4844 35.4153 58.7224 38.7384 60.0695 40.07C60.2252 40.2239 60.3539 40.3509 60.4539 40.4433L60.6595 40.6357L60.7671 40.7435C61.2571 41.2495 63.3248 43.4816 63.5324 45.5559Z" fill="black"/>
<path d="M65.9211 62.5314L65.5714 73.8016L65.5099 75.8086C65.5099 75.8086 61.3668 75.4237 57.5004 75.0004C54.3873 74.6598 51.4529 74.2923 51.0013 74.0768C50.4248 73.8054 49.1892 73.5957 48.2149 73.4629C47.4616 73.3609 46.8697 73.3071 46.8697 73.3071C46.8697 73.3071 46.6487 73.3725 46.3086 73.4341C45.5668 73.5688 44.2639 73.6784 43.5049 73.0184C42.5344 72.1737 45.0845 69.1046 45.7206 68.3676L45.8609 68.2079L45.6206 65.9854L44.9961 60.2224C44.9961 60.2224 44.6118 56.9031 44.0353 55.1232C43.8811 54.6171 43.7699 54.099 43.7028 53.5742C43.4886 51.9485 43.5983 50.2965 44.0257 48.7136C44.2082 48.041 44.3241 47.352 44.3716 46.6566C44.4676 44.8767 49.8964 37.9976 51.2415 37.3722C51.8466 37.0897 52.3336 36.6035 52.6174 35.9983C52.7112 35.8081 52.7815 35.6071 52.8269 35.3999C53.4034 32.8984 54.8619 33.8913 54.8619 33.8913C55.2136 35.8483 60.6577 41.0283 60.6577 41.0283L60.7653 41.136C61.3053 41.6902 63.7112 44.2917 63.5402 46.5123C63.506 47.3388 63.6293 48.1642 63.9034 48.9445C65.0107 52.4359 65.6473 56.0599 65.7962 59.7201L65.9211 62.5314Z" fill="#DCE6F2"/>
<path opacity="0.1" d="M58.2072 49.1485C58.2072 49.1485 56.862 52.4196 55.8531 52.9488C54.8443 53.478 58.6876 54.0649 58.2072 49.1485Z" fill="black"/>
<path opacity="0.1" d="M59.2163 55.2578C59.2163 55.2578 56.1416 55.6427 56.1416 56.22C56.1416 56.7972 59.2163 55.2578 59.2163 55.2578Z" fill="black"/>
<path opacity="0.1" d="M62.4348 59.0101C62.4348 59.0101 57.9669 68.535 56.7178 68.8236C55.4687 69.1123 62.4348 59.0101 62.4348 59.0101Z" fill="black"/>
<path opacity="0.1" d="M60.573 41.5112L56.8777 43.1199L52.4175 36.3736C52.5112 36.1833 52.5815 35.9823 52.6269 35.7751C53.2034 33.2736 54.662 34.2665 54.662 34.2665C55.0137 36.2235 60.4577 41.4035 60.4577 41.4035L60.573 41.5112Z" fill="black"/>
<path d="M60.7649 41.1264L57.0696 42.735L52.6094 35.9887C52.7031 35.7984 52.7734 35.5975 52.8188 35.3903C53.3953 32.8888 54.8539 33.8817 54.8539 33.8817C55.2055 35.8386 60.6496 41.0186 60.6496 41.0186L60.7649 41.1264Z" fill="#DCE6F2"/>
<path opacity="0.1" d="M65.5097 75.8086C65.5097 75.8086 61.3666 75.4237 57.5002 75.0004L64.4374 76.8188V78.9354C64.1338 79.2106 63.8705 79.353 63.6995 79.2799C62.9001 78.9431 56.376 77.8848 56.376 77.8848C56.376 77.8848 52.5865 75.9606 48.4972 73.6515C48.3979 73.5964 48.3017 73.5361 48.209 73.4706C47.7321 73.1465 47.3213 72.7344 46.9983 72.2564C46.2431 71.1616 45.8741 69.755 45.7146 68.3753C45.625 67.5846 45.5916 66.7885 45.6147 65.9931C45.6345 65.0912 45.7167 64.1917 45.8607 63.3011C45.4652 59.8518 45.2727 56.3822 45.2842 52.9103C45.3322 47.5225 50.3766 45.5983 50.3766 45.5983C59.6486 44.7805 56.7738 59.7894 56.7738 59.7894C56.7738 59.7894 56.2377 64.0227 56.0916 64.4557C55.9456 64.8886 55.421 65.6102 55.4921 66.6204C55.5632 67.6306 57.3349 68.839 57.3349 68.839C57.3349 68.839 59.0644 69.651 59.7774 70.8537C60.2962 71.7408 63.6668 72.9434 65.5712 73.8016L65.5097 75.8086Z" fill="black"/>
<path opacity="0.1" d="M68.6149 24.8167C68.6184 25.1336 68.5529 25.4475 68.4227 25.7364C68.3242 25.9722 68.2099 26.2011 68.0807 26.4215C67.8784 26.8269 67.5914 27.1839 67.239 27.4682C66.7951 27.7857 66.234 27.8742 65.7017 28.0032C65.1694 28.1321 64.6159 28.338 64.3123 28.7921C64.1477 29.084 64.0377 29.4035 63.9875 29.735C63.9366 30.0661 63.8046 30.3795 63.6032 30.6471C63.4983 30.7777 63.3531 30.8697 63.1903 30.9088C63.0275 30.9478 62.8564 30.9315 62.7039 30.8626C62.5431 30.7541 62.4213 30.597 62.356 30.4142C62.137 29.9197 62.0812 29.3713 61.9928 28.8383C61.9044 28.3053 61.7795 27.7569 61.4529 27.3278C61.1262 26.8987 60.5477 26.6158 60.0347 26.7832C59.8629 26.8494 59.7063 26.9497 59.5742 27.078C59.4421 27.2063 59.3373 27.36 59.266 27.5298C59.124 27.8699 59.0265 28.2269 58.9758 28.592C58.7375 29.8979 58.4563 31.1961 58.1322 32.4866C58.1223 32.5395 58.1006 32.5895 58.0688 32.6328C58.0177 32.6838 57.9488 32.7128 57.8766 32.7137C57.4462 32.7714 57.033 32.4693 56.5987 32.502C56.554 32.505 56.5096 32.5121 56.4661 32.5232C55.764 31.3012 55.4539 29.8927 55.578 28.4883C55.7021 27.084 56.2543 25.7519 57.1598 24.6723L57.1944 24.6627C57.4833 24.56 57.7459 24.3944 57.9631 24.1778C58.2405 23.8999 58.4974 23.6021 58.7318 23.2869L58.8855 23.0945C59.3272 22.5617 59.8303 22.083 60.3844 21.6686C60.5356 21.5446 60.7091 21.4505 60.8956 21.3915C61.0551 21.3604 61.2186 21.3552 61.3798 21.3762C62.0435 21.4559 62.7125 21.481 63.3803 21.4512C63.8456 21.378 64.3145 21.3304 64.785 21.3088C66.0014 21.3434 67.0391 22.2036 67.8078 23.1464C68.221 23.6294 68.5899 24.1855 68.6149 24.8167Z" fill="black"/>
<path d="M55.5555 25.9C55.2884 26.3388 54.806 26.637 54.6254 27.1181C54.3602 27.8166 54.8079 28.6863 54.3967 29.3098C54.2603 29.5195 54.0354 29.6754 53.9586 29.9159C53.8279 30.3219 54.1853 30.7548 54.0931 31.1724C54.0008 31.59 53.4512 31.9421 53.5973 32.35C53.6836 32.5279 53.835 32.6657 54.0201 32.7349C54.3112 32.9021 54.6464 32.9766 54.9809 32.9485C55.5055 32.8619 55.8956 32.3462 56.4279 32.3077C56.8603 32.2769 57.2734 32.5771 57.7039 32.5213C57.776 32.5188 57.8446 32.4892 57.8961 32.4385C57.9287 32.3957 57.9505 32.3455 57.9595 32.2923C58.2823 31.0031 58.5642 29.7049 58.805 28.3977C58.8541 28.0325 58.951 27.6753 59.0933 27.3355C59.1651 27.166 59.2702 27.0126 59.4022 26.8844C59.5342 26.7561 59.6905 26.6557 59.8619 26.5889C60.375 26.4234 60.9515 26.7044 61.2801 27.1335C61.6087 27.5626 61.7336 28.111 61.822 28.644C61.9104 29.177 61.9662 29.7254 62.1833 30.2199C62.2493 30.4033 62.3718 30.561 62.533 30.6702C62.8213 30.8376 63.2095 30.7048 63.4305 30.4547C63.6329 30.187 63.7651 29.8727 63.8148 29.5407C63.8649 29.2098 63.975 28.8909 64.1396 28.5997C64.4432 28.1456 64.9985 27.9397 65.5289 27.8108C66.0593 27.6819 66.6185 27.5914 67.0663 27.2739C67.4182 26.9899 67.7052 26.6336 67.9079 26.2291C68.1923 25.7326 68.4575 25.1938 68.4345 24.6224C68.4095 23.9989 68.0405 23.4428 67.6466 22.9579C66.8779 22.015 65.8383 21.1549 64.6219 21.1222C64.1513 21.1419 63.6822 21.1894 63.2172 21.2646C62.5494 21.2947 61.8802 21.2689 61.2167 21.1876C61.0554 21.1683 60.892 21.1741 60.7324 21.2049C60.5458 21.262 60.3726 21.3563 60.2232 21.482C59.6686 21.8957 59.1648 22.3737 58.7224 22.9059C58.4371 23.2847 58.1277 23.6446 57.7961 23.9835C57.5788 24.2004 57.3163 24.3667 57.0275 24.4703C56.8353 24.5242 56.6431 24.4857 56.4606 24.5454C55.8937 24.7243 55.8187 25.4652 55.5555 25.9Z" fill="#965D7B"/>
<path opacity="0.1" d="M74.0612 31.132C72.5239 31.4148 71.2498 30.1699 70.5445 29.2616C70.3279 28.9858 70.1308 28.6952 69.9546 28.3919L75.2315 29.3886L75.4448 29.429C75.4448 29.429 76.4152 30.7009 74.0612 31.132Z" fill="black"/>
<g opacity="0.1">
<path opacity="0.1" d="M54.093 30.6221C54.1145 30.3704 54.0763 30.1172 53.9815 29.8831C53.9815 29.9024 53.9642 29.9216 53.9584 29.9409C53.8758 30.1987 53.9873 30.4662 54.0584 30.7337C54.0736 30.6977 54.0852 30.6603 54.093 30.6221V30.6221Z" fill="black"/>
<path opacity="0.1" d="M54.5508 27.4721C54.5311 27.7382 54.5362 28.0055 54.5662 28.2706C54.5859 28.0045 54.5808 27.7372 54.5508 27.4721Z" fill="black"/>
<path opacity="0.1" d="M67.8965 25.6729C67.6943 26.0783 67.4072 26.4354 67.0548 26.7197C66.6109 27.0372 66.0517 27.1257 65.5175 27.2547C64.9833 27.3836 64.4317 27.5895 64.1281 28.0436C63.9638 28.3356 63.8538 28.6551 63.8034 28.9865C63.7533 29.3184 63.6212 29.6326 63.419 29.9005C63.198 30.1506 62.8098 30.2853 62.5216 30.116C62.3603 30.0068 62.2378 29.8491 62.1719 29.6657C61.9547 29.1712 61.8971 28.6247 61.8106 28.0898C61.7241 27.5548 61.5954 27.0084 61.2687 26.5793C60.942 26.1502 60.3636 25.8673 59.8505 26.0347C59.6789 26.1012 59.5225 26.2015 59.3904 26.3298C59.2583 26.4581 59.1534 26.6116 59.0818 26.7813C58.9396 27.1211 58.8426 27.4783 58.7936 27.8435C58.554 29.1507 58.2722 30.4489 57.948 31.7381C57.939 31.7913 57.9173 31.8415 57.8846 31.8843C57.8332 31.935 57.7646 31.9646 57.6924 31.9671C57.262 32.0229 56.8488 31.7227 56.4165 31.7535C55.8842 31.792 55.4941 32.3077 54.9694 32.3923C54.6348 32.4224 54.2991 32.3478 54.0086 32.1787C53.875 32.1212 53.7552 32.0359 53.6569 31.9286C53.612 31.9931 53.5822 32.0669 53.5699 32.1446C53.5576 32.2222 53.563 32.3017 53.5858 32.3769C53.6705 32.5561 53.8225 32.6944 54.0086 32.7618C54.2991 32.9308 54.6348 33.0054 54.9694 32.9754C55.4941 32.8907 55.8842 32.375 56.4165 32.3365C56.8488 32.3057 57.262 32.6059 57.6924 32.5501C57.7646 32.5476 57.8332 32.5181 57.8846 32.4674C57.9173 32.4245 57.939 32.3743 57.948 32.3211C58.2709 31.0383 58.5527 29.7401 58.7936 28.4265C58.8426 28.0613 58.9396 27.7042 59.0818 27.3643C59.1534 27.1946 59.2583 27.0411 59.3904 26.9128C59.5225 26.7846 59.6789 26.6842 59.8505 26.6177C60.3636 26.4503 60.9401 26.7332 61.2687 27.1623C61.5973 27.5914 61.7222 28.1398 61.8106 28.6728C61.899 29.2058 61.9547 29.7542 62.1719 30.2487C62.2378 30.4322 62.3603 30.5898 62.5216 30.699C62.8098 30.8664 63.198 30.7337 63.419 30.4835C63.6212 30.2157 63.7533 29.9015 63.8034 29.5695C63.8538 29.2381 63.9638 28.9187 64.1281 28.6266C64.4317 28.1725 64.9871 27.9685 65.5175 27.8377C66.0479 27.7068 66.6071 27.6203 67.0548 27.3028C67.4072 27.0184 67.6943 26.6614 67.8965 26.256C68.1809 25.7615 68.4461 25.2227 68.4231 24.6512C68.4193 24.5777 68.4116 24.5045 68.4 24.4318C68.3073 24.8722 68.1368 25.2925 67.8965 25.6729V25.6729Z" fill="black"/>
</g>
<path opacity="0.1" d="M68.4303 25.7307C68.9231 26.608 69.2152 27.584 69.2855 28.5882C67.5732 27.626 65.9629 26.5696 65.15 26.2021C63.7337 25.5613 58.4376 25.6576 56.4468 25.7172C56.655 25.3447 56.8983 24.9929 57.1732 24.6666C57.6281 24.1255 58.1627 23.6571 58.7585 23.2773C59.5477 22.7758 60.4306 22.4408 61.3535 22.2926C62.2763 22.1444 63.2196 22.1862 64.1258 22.4155C65.0319 22.6448 65.8818 23.0567 66.6236 23.626C67.3654 24.1954 67.9834 24.9102 68.4399 25.7268L68.4303 25.7307Z" fill="black"/>
<path opacity="0.1" d="M74.5416 30.3161C73.6173 30.6009 72.1088 30.0506 70.5445 29.2616C70.3279 28.9858 70.1308 28.6952 69.9546 28.3919L75.2315 29.3886C75.5812 29.6272 75.6696 29.9678 74.5416 30.3161Z" fill="black"/>
<path d="M62.8443 19.0594C62.8443 19.0594 57.8 18.7708 56.3818 21.5128L56.1531 23.9431L55.7688 23.9008L55.6919 25.5537C55.6919 25.5537 63.4016 25.2169 65.1561 26.0097C66.9106 26.8025 72.3624 30.7972 74.5473 30.1237C76.7322 29.4502 74.3551 28.8248 74.3551 28.8248C74.3551 28.8248 71.3477 27.5491 71.3477 26.5485C71.3477 25.5479 70.6021 20.2621 62.8443 19.0594Z" fill="#444053"/>
<path opacity="0.1" d="M53.1147 109.151C53.1147 109.151 56.3335 112.278 57.7267 112.038C57.7267 112.038 53.7873 111.701 53.1147 109.151Z" fill="black"/>
<path opacity="0.1" d="M52.4424 110.6C52.4424 110.6 52.7306 112.209 53.4993 112.051C54.268 111.893 52.4424 110.6 52.4424 110.6Z" fill="black"/>
<path opacity="0.1" d="M57.4868 137.486C57.4868 137.486 52.9171 141.045 53.6876 141.142C54.4582 141.238 57.4868 137.486 57.4868 137.486Z" fill="black"/>
<path d="M63.5996 66.834L78.3964 64.4229V78.4505L64.3375 77.7135L63.5996 66.834Z" fill="#E91E63"/>
<path opacity="0.05" d="M63.5996 66.834L78.3964 64.4229V78.4505L64.3375 77.7135L63.5996 66.834Z" fill="black"/>
<path d="M78.3965 64.4229L96.1412 65.7525L95.1592 77.9598L78.3965 78.4505V64.4229Z" fill="#E91E63"/>
<path opacity="0.1" d="M78.3965 64.4229L96.1412 65.7525L95.1592 77.9598L78.3965 78.4505V64.4229Z" fill="black"/>
<path d="M83.8521 60.1415L78.3965 64.4229L96.1412 65.7526L99.041 61.3711L83.8521 60.1415Z" fill="#E91E63"/>
<path d="M58.2417 62.1581L71.5627 60.5341L78.3961 64.4229L63.5993 66.834L58.2417 62.1581Z" fill="#E91E63"/>
<path d="M81.6402 68.0655V87.2442L74.7088 86.5322L71.6937 86.2244L70.7751 86.1281L67.7619 85.8183L63.5996 85.3912V66.834L78.3945 67.8423L81.6402 68.0655Z" fill="#E91E63"/>
<path d="M96.141 65.7526V84.456L90.5855 85.5239L87.8836 86.0435L81.6401 87.2442V68.0655L96.141 65.7526Z" fill="#E91E63"/>
<path opacity="0.05" d="M96.141 65.7526V84.456L90.5855 85.5239L87.8836 86.0435L81.6401 87.2442V68.0655L96.141 65.7526Z" fill="black"/>
<path d="M58.2417 70.871L63.5993 66.834L81.6399 68.0655L78.9842 72.5451L58.2417 70.871Z" fill="#E91E63"/>
<path opacity="0.1" d="M58.2417 70.871L63.5993 66.834L81.6399 68.0655L78.9842 72.5451L58.2417 70.871Z" fill="white"/>
<path d="M96.141 65.7526L81.6401 68.0655L86.3597 72.2988L101.893 69.6895L96.141 65.7526Z" fill="#E91E63"/>
<path opacity="0.1" d="M96.141 65.7526L81.6401 68.0655L86.3597 72.2988L101.893 69.6895L96.141 65.7526Z" fill="white"/>
<path opacity="0.1" d="M90.5857 85.5239L87.8838 86.0435V82.0469L90.4146 81.408L90.5857 85.5239Z" fill="white"/>
<path opacity="0.1" d="M74.7085 83.8883V86.5322L71.6934 86.2243V83.8883H74.7085Z" fill="white"/>
<path opacity="0.1" d="M70.7749 84.7215V86.1281L67.7617 85.8183V84.7215H70.7749Z" fill="white"/>
<path opacity="0.1" d="M79.8262 82.4856C77.7604 85.1314 70.9385 83.3034 70.9385 83.3034L65.8691 78.0079L65.1812 77.2902L66.5263 74.7887C66.5263 74.7887 66.9107 74.9157 67.5525 75.1389C70.95 76.3281 81.5653 80.2593 79.8262 82.4856Z" fill="black"/>
<path d="M79.6338 82.1007C77.568 84.7465 70.7461 82.9185 70.7461 82.9185L65.6767 77.6231L64.9888 76.9054L66.3339 74.4039C66.3339 74.4039 66.7183 74.5309 67.3601 74.7541C70.7576 75.9432 81.3729 79.8744 79.6338 82.1007Z" fill="#EFB7B9"/>
<path opacity="0.1" d="M67.3523 74.7541C67.0717 75.5622 66.3588 76.7591 65.6689 77.6231L64.981 76.9054L66.3261 74.4039C66.3261 74.4039 66.7124 74.5309 67.3523 74.7541Z" fill="black"/>
<path d="M50.5685 44.8286C50.5685 44.8286 45.5241 46.7528 45.4761 52.1406C45.4646 55.6125 45.6571 59.0821 46.0526 62.5314C46.0526 62.5314 44.6113 70.565 48.6949 72.8741C52.7784 75.1832 56.5737 77.1074 56.5737 77.1074C56.5737 77.1074 63.0978 78.1657 63.8991 78.5024C64.7004 78.8392 67.4849 74.5097 67.0526 73.7881C66.6202 73.0665 60.6803 71.2866 59.975 70.084C59.2698 68.8813 57.5326 68.0712 57.5326 68.0712C57.5326 68.0712 55.7608 66.8609 55.6897 65.8507C55.6186 64.8405 56.1413 64.1189 56.2893 63.6859C56.4373 63.253 56.9734 59.0197 56.9734 59.0197C56.9734 59.0197 59.8405 44.0012 50.5685 44.8286Z" fill="#DCE6F2"/>
<path opacity="0.1" d="M52.8744 62.6661C52.8744 62.6661 46.0525 63.4358 46.5809 65.8411C46.5809 65.8411 49.1733 63.4146 52.8744 62.6661Z" fill="black"/>
<path opacity="0.1" d="M52.8748 63.6282C52.8748 63.6282 49.0026 66.4665 49.7136 66.6589C50.4247 66.8513 52.8748 63.6282 52.8748 63.6282Z" fill="black"/>
<path opacity="0.1" d="M54.6043 64.7828C54.6043 64.7828 53.4993 66.7724 54.1239 66.6685C54.7484 66.5646 54.6043 64.7828 54.6043 64.7828Z" fill="black"/>
<path d="M125.633 21.6263C125.633 21.6263 118.33 21.1857 119.184 26.3156C119.184 26.3156 119.013 27.222 119.833 27.6337C119.833 27.6337 119.847 27.2489 120.583 27.3817C120.845 27.4258 121.111 27.4388 121.376 27.4202C121.736 27.3962 122.077 27.2549 122.349 27.018V27.018C122.349 27.018 124.403 26.1694 125.202 22.8059C125.202 22.8059 125.794 22.0708 125.779 21.8822L124.545 22.4114C124.545 22.4114 124.966 23.3023 124.633 24.0431C124.633 24.0431 124.595 22.4441 124.357 22.4807C124.309 22.4807 123.717 22.7905 123.717 22.7905C123.717 22.7905 124.441 24.3414 123.894 25.4709C123.894 25.4709 124.101 23.5582 123.49 22.9021L122.621 23.4101C122.621 23.4101 123.469 25.013 122.894 26.3214C122.894 26.3214 123.042 24.3145 122.439 23.5332L121.651 24.1471C121.651 24.1471 122.449 25.7288 121.962 26.814C121.962 26.814 121.899 24.478 121.48 24.301C121.48 24.301 120.792 24.909 120.688 25.1592C120.688 25.1592 121.232 26.3137 120.894 26.9122C120.894 26.9122 120.686 25.3555 120.51 25.3478C120.51 25.3478 119.824 26.3791 119.752 27.0796C119.786 26.4266 119.989 25.7937 120.342 25.2439C119.947 25.3188 119.582 25.5081 119.293 25.7884C119.293 25.7884 119.399 25.0591 120.511 24.9956C120.511 24.9956 121.088 24.2125 121.23 24.1644C121.23 24.1644 120.123 24.072 119.453 24.3703C119.453 24.3703 120.043 23.6833 121.434 23.9854L122.203 23.3504C122.203 23.3504 120.746 23.158 120.127 23.3716C120.127 23.3716 120.838 22.7635 122.412 23.2061L123.258 22.7C123.258 22.7 122.016 22.4306 121.276 22.5288C121.276 22.5288 122.056 22.1074 123.505 22.5634L124.111 22.2921C124.111 22.2921 123.2 22.1132 122.935 22.0843C122.67 22.0554 122.654 21.9823 122.654 21.9823C123.23 21.8863 123.822 21.9529 124.362 22.1747C124.362 22.1747 125.66 21.7071 125.633 21.6263Z" fill="#E91E63"/>
<path opacity="0.1" d="M147.821 47.2839C147.821 47.2839 140.518 46.8432 141.372 51.9732C141.372 51.9732 141.201 52.8795 142.021 53.2913C142.021 53.2913 142.035 52.9065 142.772 53.0392C143.035 53.0834 143.301 53.0963 143.566 53.0777C143.921 53.0519 144.258 52.9115 144.527 52.6775V52.6775C144.527 52.6775 146.583 51.827 147.383 48.4634C147.383 48.4634 147.973 47.7303 147.949 47.5417L146.716 48.069C146.716 48.069 147.137 48.9599 146.806 49.7007C146.806 49.7007 146.766 48.1017 146.529 48.1382C146.481 48.1382 145.888 48.448 145.888 48.448C145.888 48.448 146.614 50.0009 146.066 51.1285C146.066 51.1285 146.274 49.2158 145.661 48.5596L144.802 49.0619C144.802 49.0619 145.649 50.6647 145.075 51.9732C145.075 51.9732 145.223 49.9662 144.619 49.185L143.833 49.8008C143.833 49.8008 144.629 51.3805 144.145 52.4658C144.145 52.4658 144.081 50.1298 143.662 49.9528C143.662 49.9528 142.974 50.5608 142.869 50.811C142.869 50.811 143.414 51.9655 143.076 52.5639C143.076 52.5639 142.869 51.0073 142.692 50.9996C142.692 50.9996 142.006 52.0309 141.935 52.7314C141.969 52.0783 142.173 51.4455 142.526 50.8956C142.131 50.9707 141.765 51.16 141.475 51.4402C141.475 51.4402 141.583 50.7109 142.696 50.6474C142.696 50.6474 143.263 49.8643 143.414 49.8162C143.414 49.8162 142.307 49.7238 141.637 50.022C141.637 50.022 142.227 49.3351 143.616 49.6468L144.385 49.0118C144.385 49.0118 142.926 48.8194 142.309 49.033C142.309 49.033 143.02 48.4249 144.594 48.8675L145.44 48.3614C145.44 48.3614 144.196 48.094 143.457 48.1902C143.457 48.1902 144.239 47.7688 145.688 48.2248L146.293 47.9535C146.293 47.9535 145.382 47.7746 145.115 47.7457C144.848 47.7168 144.834 47.6437 144.834 47.6437C145.411 47.5476 146.004 47.6142 146.545 47.8361C146.545 47.8361 147.844 47.3647 147.821 47.2839Z" fill="#E91E63"/>
<path opacity="0.1" d="M103.459 42.7293C103.459 42.7293 105.14 35.5923 99.944 35.5673C99.944 35.5673 99.0811 35.244 98.5373 35.983C98.5373 35.983 98.9082 36.0618 98.6565 36.7661C98.5694 37.0151 98.5114 37.2734 98.4835 37.5358C98.4463 37.8935 98.5266 38.2535 98.7122 38.5614V38.5614C98.7122 38.5614 99.1984 40.7358 102.363 42.0981C102.363 42.0981 102.986 42.8062 103.174 42.8139L102.867 41.5074C102.867 41.5074 101.918 41.771 101.245 41.315C101.245 41.315 102.826 41.5478 102.828 41.315C102.828 41.2669 102.636 40.6299 102.636 40.6299C102.636 40.6299 100.986 41.0802 99.967 40.3471C99.967 40.3471 101.814 40.8782 102.565 40.3875L102.219 39.4408C102.219 39.4408 100.49 40.0046 99.306 39.2137C99.306 39.2137 101.256 39.7025 102.129 39.2407L101.658 38.3594C101.658 38.3594 99.967 38.8751 98.9812 38.2112C98.9812 38.2112 101.287 38.546 101.537 38.165C101.537 38.165 101.057 37.3819 100.828 37.2356C100.828 37.2356 99.6058 37.5781 99.0677 37.1413C99.0677 37.1413 100.634 37.201 100.67 37.0355C100.67 37.0355 99.773 36.1831 99.0888 35.9906C99.7264 36.136 100.315 36.445 100.797 36.8873C100.79 36.4841 100.666 36.0916 100.44 35.7578C100.44 35.7578 101.139 35.9887 101.016 37.1048C101.016 37.1048 101.689 37.7975 101.71 37.9553C101.71 37.9553 101.989 36.8796 101.81 36.1658C101.81 36.1658 102.386 36.8662 101.843 38.1843L102.335 39.0598C102.335 39.0598 102.78 37.6551 102.667 37.0086C102.667 37.0086 103.145 37.8129 102.44 39.2907L102.796 40.2124C102.796 40.2124 103.27 39.0309 103.301 38.2882C103.301 38.2882 103.584 39.131 102.886 40.4837L103.051 41.1264C103.051 41.1264 103.382 40.2586 103.455 40.0007C103.528 39.7429 103.603 39.741 103.603 39.741C103.6 40.3264 103.434 40.8994 103.124 41.3958C103.124 41.3958 103.376 42.7389 103.459 42.7293Z" fill="#E91E63"/>
<path opacity="0.1" d="M87.4667 45.1615C87.4667 45.1615 81.6018 40.7685 79.5052 45.5271C79.5052 45.5271 78.8653 46.1909 79.3246 46.9856C79.3246 46.9856 79.5437 46.6758 80.0933 47.1896C80.288 47.371 80.5034 47.5286 80.7351 47.6591C81.049 47.8341 81.4113 47.9017 81.7671 47.8515V47.8515C81.7671 47.8515 83.9501 48.2729 86.4636 45.9042C86.4636 45.9042 87.361 45.6156 87.4456 45.4463L86.1216 45.2134C86.1216 45.2134 85.9832 46.189 85.301 46.6258C85.301 46.6258 86.1446 45.2673 85.9256 45.1692C85.8814 45.148 85.2203 45.073 85.2203 45.073C85.2203 45.073 84.9743 46.7701 83.8982 47.4109C83.8982 47.4109 85.1223 45.9273 84.9705 45.0422L83.9654 44.9883C83.9654 44.9883 83.7944 46.7951 82.5953 47.5725C82.5953 47.5725 83.8194 45.9774 83.7483 44.9922L82.7529 45.073C82.7529 45.073 82.5511 46.8298 81.5499 47.4686C81.5499 47.4686 82.7779 45.4828 82.5261 45.1057C82.5261 45.1057 81.6172 45.2346 81.3923 45.3847C81.3923 45.3847 81.2175 46.6431 80.6025 46.9626C80.6025 46.9626 81.2847 45.5483 81.1464 45.4501C81.1464 45.4501 80.0068 45.9331 79.5591 46.4834C79.9464 45.9565 80.4644 45.54 81.0618 45.275C80.6901 45.1203 80.2814 45.0775 79.8857 45.1519C79.8857 45.1519 80.3738 44.6015 81.3385 45.1615C81.3385 45.1615 82.2417 44.8209 82.3954 44.8632C82.3954 44.8632 81.5211 44.1763 80.7966 44.057C80.7966 44.057 81.6691 43.8068 82.6587 44.8267L83.6561 44.7247C83.6561 44.7247 82.5473 43.7626 81.9112 43.6009C81.9112 43.6009 82.8394 43.4836 83.9097 44.7189L84.8936 44.7632C84.8936 44.7632 84.0039 43.8549 83.3332 43.5278C83.3332 43.5278 84.2153 43.6048 85.1761 44.7843L85.8314 44.8902C85.8314 44.8902 85.1684 44.2398 84.9609 44.0704C84.7533 43.9011 84.7822 43.8299 84.7822 43.8299C85.3168 44.067 85.7751 44.448 86.1062 44.9306C86.1062 44.9306 87.4418 45.2404 87.4667 45.1615Z" fill="#E91E63"/>
<path opacity="0.1" d="M106.993 4.34681C106.993 4.34681 101.128 -0.0481078 99.0311 4.71242C99.0311 4.71242 98.3912 5.37627 98.8505 6.17098C98.8505 6.17098 99.0696 5.86118 99.6192 6.37494C99.8148 6.55535 100.031 6.71228 100.263 6.84253C100.577 7.01766 100.939 7.08523 101.295 7.03495V7.03495C101.295 7.03495 103.478 7.45636 105.991 5.08572C105.991 5.08572 106.889 4.79901 106.971 4.62775L105.647 4.39877C105.647 4.39877 105.511 5.37435 104.827 5.81115C104.827 5.81115 105.672 4.45265 105.453 4.35451C105.409 4.33335 104.748 4.2583 104.748 4.2583C104.748 4.2583 104.494 5.95931 103.418 6.59623C103.418 6.59623 104.64 5.11265 104.491 4.22751L103.486 4.17363C103.486 4.17363 103.313 5.98048 102.115 6.75594C102.115 6.75594 103.34 5.16076 103.268 4.17556L102.275 4.25638C102.275 4.25638 102.071 6.01511 101.07 6.65396C101.07 6.65396 102.3 4.66816 102.048 4.29101C102.048 4.29101 101.139 4.41993 100.914 4.57002C100.914 4.57002 100.739 5.82847 100.125 6.14789C100.125 6.14789 100.807 4.73358 100.668 4.63352C100.668 4.63352 99.5288 5.11843 99.0811 5.66875C99.4678 5.14127 99.986 4.7246 100.584 4.46034C100.212 4.30449 99.8021 4.26167 99.4059 4.33719C99.4059 4.33719 99.8959 3.78687 100.861 4.34681C100.861 4.34681 101.764 4.0043 101.917 4.04856C101.917 4.04856 101.043 3.36161 100.319 3.24039C100.319 3.24039 101.189 2.99216 102.179 4.01008L103.176 3.90809C103.176 3.90809 102.069 2.94598 101.431 2.78242C101.431 2.78242 102.359 2.66697 103.432 3.90232L104.416 3.94465C104.416 3.94465 103.526 3.03642 102.853 2.71123C102.853 2.71123 103.737 2.7882 104.698 3.96774L105.351 4.07357C105.351 4.07357 104.687 3.43089 104.479 3.2654C104.272 3.09992 104.3 3.0268 104.3 3.0268C104.835 3.26359 105.294 3.64468 105.624 4.12745C105.624 4.12745 106.96 4.41994 106.993 4.34681Z" fill="#E91E63"/>
<path opacity="0.1" d="M129.403 9.9136C129.403 9.9136 127.059 2.96523 122.637 5.6957C122.637 5.6957 121.734 5.88813 121.663 6.79443C121.663 6.79443 122.018 6.66359 122.176 7.39479C122.234 7.65489 122.323 7.90736 122.439 8.14716C122.598 8.4699 122.857 8.73249 123.177 8.89569V8.89569C123.177 8.89569 124.737 10.4832 128.15 9.95785C128.15 9.95785 129.051 10.2311 129.217 10.1368L128.256 9.19202C128.256 9.19202 127.591 9.91745 126.78 9.88858C126.78 9.88858 128.246 9.24974 128.125 9.04385C128.1 9.00344 127.599 8.56664 127.599 8.56664C127.599 8.56664 126.434 9.82316 125.185 9.74042C125.185 9.74042 127.032 9.21318 127.408 8.39346L126.613 7.77964C126.613 7.77964 125.448 9.16892 124.02 9.12659C124.02 9.12659 125.942 8.50892 126.428 7.65456L125.564 7.15619C125.564 7.15619 124.411 8.48967 123.215 8.44734C123.215 8.44734 125.352 7.51024 125.358 7.05613C125.358 7.05613 124.537 6.64627 124.266 6.64242C124.266 6.64242 123.409 7.57952 122.729 7.49485C122.729 7.49485 124.09 6.71554 124.032 6.55583C124.032 6.55583 122.821 6.30761 122.139 6.50773C122.756 6.29261 123.419 6.24286 124.061 6.36341C123.842 6.02455 123.528 5.75707 123.16 5.59372C123.16 5.59372 123.874 5.41862 124.353 6.42691C124.353 6.42691 125.291 6.65974 125.391 6.78097C125.391 6.78097 125.06 5.72072 124.532 5.20888C124.532 5.20888 125.391 5.49943 125.625 6.90604L126.505 7.38709C126.505 7.38709 126.142 5.96125 125.704 5.46287C125.704 5.46287 126.536 5.8939 126.717 7.51987L127.504 8.11445C127.504 8.11445 127.285 6.85986 126.916 6.20947C126.916 6.20947 127.601 6.77519 127.724 8.2934L128.202 8.75137C128.202 8.75137 128.025 7.83929 127.952 7.58144C127.879 7.3236 127.939 7.30628 127.939 7.30628C128.244 7.80545 128.406 8.37952 128.406 8.96496C128.406 8.96496 129.336 9.96363 129.403 9.9136Z" fill="#E91E63"/>
<path opacity="0.1" d="M114.103 10.2561C114.103 10.2561 106.82 9.44407 107.421 14.6183C107.421 14.6183 107.204 15.515 107.998 15.9653C107.998 15.9653 108.03 15.5804 108.766 15.7536C109.026 15.8096 109.292 15.8361 109.558 15.8325C109.917 15.826 110.265 15.7024 110.548 15.4803V15.4803C110.548 15.4803 112.644 14.7357 113.622 11.4164C113.622 11.4164 114.249 10.7141 114.235 10.5236L112.977 10.9892C112.977 10.9892 113.361 11.8994 112.977 12.6229C112.977 12.6229 113.017 11.0239 112.784 11.0489C112.736 11.0489 112.129 11.326 112.129 11.326C112.129 11.326 112.775 12.9134 112.171 14.0199C112.171 14.0199 112.475 12.1187 111.897 11.4337L111.003 11.8955C111.003 11.8955 111.772 13.5407 111.128 14.8184C111.128 14.8184 111.378 12.8211 110.815 12.011L109.998 12.5882C109.998 12.5882 110.713 14.2065 110.173 15.2668C110.173 15.2668 110.229 12.9308 109.819 12.7326C109.819 12.7326 109.101 13.3098 108.983 13.5484C108.983 13.5484 109.47 14.7222 109.103 15.3091C109.103 15.3091 108.974 13.7447 108.805 13.7293C108.805 13.7293 108.067 14.7241 107.959 15.4265C108.026 14.7753 108.262 14.153 108.643 13.6215C108.244 13.6767 107.87 13.8473 107.567 14.1122C107.567 14.1122 107.709 13.3906 108.824 13.3829C108.824 13.3829 109.429 12.6306 109.593 12.5902C109.593 12.5902 108.491 12.442 107.805 12.7056C107.805 12.7056 108.43 12.0475 109.802 12.4305L110.611 11.8359C110.611 11.8359 109.149 11.5395 108.53 11.732C108.53 11.732 109.272 11.1547 110.82 11.6839L111.691 11.2201C111.691 11.2201 110.463 10.8892 109.719 10.9488C109.719 10.9488 110.521 10.564 111.945 11.097L112.563 10.8564C112.563 10.8564 111.662 10.6313 111.397 10.589C111.132 10.5466 111.122 10.4735 111.122 10.4735C111.703 10.4068 112.291 10.5027 112.821 10.7506C112.821 10.7506 114.116 10.3369 114.103 10.2561Z" fill="#E91E63"/>
<path opacity="0.1" d="M177.825 66.8609C177.825 66.8609 170.546 66.0489 171.148 71.2173C171.148 71.2173 170.93 72.114 171.724 72.5643C171.724 72.5643 171.757 72.1795 172.493 72.3507C172.753 72.4086 173.018 72.4351 173.285 72.4296C173.644 72.4241 173.992 72.3004 174.274 72.0775V72.0775C174.274 72.0775 176.371 71.3328 177.339 68.0154C177.339 68.0154 177.966 67.3112 177.952 67.1226L176.694 67.5863C176.694 67.5863 177.078 68.4984 176.694 69.2219C176.694 69.2219 176.734 67.621 176.501 67.6479C176.453 67.6479 175.846 67.9231 175.846 67.9231C175.846 67.9231 176.492 69.5106 175.888 70.617C175.888 70.617 176.192 68.7178 175.614 68.0308L174.72 68.4946C174.72 68.4946 175.489 70.1398 174.847 71.4175C174.847 71.4175 175.095 69.4201 174.532 68.6081L173.715 69.1854C173.715 69.1854 174.43 70.8036 173.89 71.862C173.89 71.862 173.946 69.5259 173.536 69.3297C173.536 69.3297 172.819 69.9069 172.7 70.1456C172.7 70.1456 173.188 71.3193 172.819 71.9062C172.819 71.9062 172.691 70.3418 172.522 70.3264C172.522 70.3264 171.784 71.3212 171.676 72.0236C171.743 71.3724 171.979 70.7501 172.36 70.2187C171.961 70.2729 171.587 70.4435 171.284 70.7093C171.284 70.7093 171.426 69.9858 172.541 69.9781C172.541 69.9781 173.148 69.2258 173.31 69.1873C173.31 69.1873 172.208 69.0372 171.522 69.3008C171.522 69.3008 172.147 68.6447 173.521 69.0276L174.328 68.433C174.328 68.433 172.883 68.1598 172.255 68.3483C172.255 68.3483 172.996 67.7711 174.545 68.2983L175.416 67.8365C175.416 67.8365 174.188 67.5055 173.444 67.5652C173.444 67.5652 174.245 67.1803 175.669 67.7133L176.288 67.4709C176.288 67.4709 175.387 67.2457 175.122 67.2053C174.856 67.1649 174.847 67.0899 174.847 67.0899C175.428 67.0219 176.016 67.1172 176.546 67.365C176.546 67.365 177.845 66.9436 177.825 66.8609Z" fill="#E91E63"/>
<path opacity="0.1" d="M188.954 73.6688C188.954 73.6688 181.675 72.8587 182.276 78.0253C182.276 78.0253 182.061 78.922 182.853 79.3722C182.853 79.3722 182.885 78.9874 183.621 79.1606C183.881 79.2171 184.146 79.2429 184.411 79.2375C184.769 79.2302 185.114 79.1074 185.397 78.8873V78.8873C185.397 78.8873 187.491 78.1426 188.46 74.8234C188.46 74.8234 189.088 74.121 189.073 73.9305L187.814 74.3943C187.814 74.3943 188.199 75.3063 187.814 76.0298C187.814 76.0298 187.855 74.4308 187.622 74.4558C187.574 74.4558 186.967 74.731 186.967 74.731C186.967 74.731 187.612 76.3185 187.009 77.4249C187.009 77.4249 187.313 75.5257 186.734 74.8407L185.841 75.3025C185.841 75.3025 186.609 76.9477 185.968 78.2254C185.968 78.2254 186.215 76.228 185.652 75.4179L184.836 75.9952C184.836 75.9952 185.551 77.6135 185.012 78.6737C185.012 78.6737 185.066 76.3358 184.657 76.1395C184.657 76.1395 183.94 76.7168 183.821 76.9554C183.821 76.9554 184.309 78.1292 183.94 78.7161C183.94 78.7161 183.811 77.1517 183.642 77.1363C183.642 77.1363 182.904 78.1311 182.799 78.8334C182.865 78.1826 183.1 77.5604 183.481 77.0285C183.082 77.0837 182.708 77.2542 182.405 77.5192C182.405 77.5192 182.549 76.7957 183.663 76.7899C183.663 76.7899 184.269 76.0375 184.432 75.9971C184.432 75.9971 183.331 75.849 182.645 76.1126C182.645 76.1126 183.27 75.4545 184.644 75.8374L185.451 75.2428C185.451 75.2428 184.006 74.9696 183.377 75.1582C183.377 75.1582 184.119 74.5809 185.668 75.1101L186.538 74.6463C186.538 74.6463 185.31 74.3154 184.567 74.375C184.567 74.375 185.368 73.9902 186.792 74.5232L187.411 74.2826C187.411 74.2826 186.509 74.0575 186.246 74.0152C185.983 73.9728 185.969 73.8997 185.969 73.8997C186.55 73.833 187.138 73.9289 187.668 74.1768C187.668 74.1768 188.973 73.7516 188.954 73.6688Z" fill="#E91E63"/>
<path opacity="0.1" d="M164.247 16.3251C164.247 16.3251 158.382 11.9321 156.286 16.6907C156.286 16.6907 155.646 17.3545 156.105 18.1493C156.105 18.1493 156.324 17.8395 156.874 18.3532C157.068 18.5346 157.284 18.6922 157.515 18.8227C157.829 18.9976 158.192 19.0652 158.547 19.0152V19.0152C158.547 19.0152 160.73 19.4366 163.246 17.0678C163.246 17.0678 164.141 16.7792 164.226 16.6099L162.906 16.3713C162.906 16.3713 162.767 17.3469 162.085 17.7836C162.085 17.7836 162.929 16.4251 162.71 16.327C162.665 16.3058 162.006 16.2308 162.006 16.2308C162.006 16.2308 161.758 17.928 160.682 18.5687C160.682 18.5687 161.906 17.0852 161.755 16.2L160.75 16.1461C160.75 16.1461 160.579 17.953 159.379 18.7304C159.379 18.7304 160.605 17.1352 160.532 16.15L159.537 16.2308C159.537 16.2308 159.345 17.9876 158.334 18.6265C158.334 18.6265 159.564 16.6407 159.31 16.2635C159.31 16.2635 158.401 16.3924 158.176 16.5425C158.176 16.5425 158.003 17.801 157.389 18.1204C157.389 18.1204 158.069 16.7061 157.93 16.6079C157.93 16.6079 156.791 17.0909 156.343 17.6413C156.73 17.1143 157.248 16.6978 157.846 16.4328C157.474 16.2781 157.065 16.2353 156.67 16.3097C156.67 16.3097 157.16 15.7594 158.125 16.3193C158.125 16.3193 159.026 15.9787 159.18 16.0211C159.18 16.0211 158.305 15.3341 157.581 15.2148C157.581 15.2148 158.453 14.9647 159.443 15.9845L160.44 15.8825C160.44 15.8825 159.333 14.9204 158.695 14.7588C158.695 14.7588 159.623 14.6414 160.694 15.8767L161.68 15.921C161.68 15.921 160.788 15.0128 160.117 14.6857C160.117 14.6857 161.001 14.7626 161.96 15.9422L162.615 16.048C162.615 16.048 161.952 15.3976 161.745 15.2283C161.537 15.0589 161.568 15.0031 161.568 15.0031C162.102 15.2406 162.56 15.6216 162.89 16.1038C162.89 16.1038 164.222 16.404 164.247 16.3251Z" fill="#E91E63"/>
<path opacity="0.1" d="M168.778 48.0401C168.778 48.0401 166.756 40.9917 162.21 43.522C162.21 43.522 161.299 43.6625 161.186 44.5746C161.186 44.5746 161.547 44.4611 161.672 45.198C161.718 45.4628 161.795 45.7211 161.902 45.9677C162.045 46.2993 162.292 46.575 162.606 46.7528V46.7528C162.606 46.7528 164.093 48.4076 167.525 48.0382C167.525 48.0382 168.413 48.3499 168.582 48.2652L167.673 47.2762C167.673 47.2762 166.976 47.9728 166.168 47.9073C166.168 47.9073 167.66 47.3301 167.544 47.1242C167.521 47.0818 167.041 46.622 167.041 46.622C167.041 46.622 165.823 47.8265 164.577 47.686C164.577 47.686 166.447 47.2435 166.858 46.4468L166.09 45.7965C166.09 45.7965 164.864 47.1319 163.44 47.028C163.44 47.028 165.377 46.495 165.911 45.6656L165.069 45.1288C165.069 45.1288 163.849 46.4084 162.665 46.3122C162.665 46.3122 164.842 45.4713 164.869 45.0191C164.869 45.0191 164.066 44.5727 163.795 44.5573C163.795 44.5573 162.898 45.4539 162.216 45.3385C162.216 45.3385 163.611 44.6208 163.561 44.4591C163.561 44.4591 162.362 44.157 161.672 44.3244C162.297 44.1389 162.959 44.1197 163.593 44.2686C163.39 43.9205 163.09 43.6395 162.729 43.4605C162.729 43.4605 163.451 43.3161 163.882 44.3456C163.882 44.3456 164.806 44.6188 164.902 44.7458C164.902 44.7458 164.62 43.6702 164.114 43.1372C164.114 43.1372 164.96 43.4643 165.131 44.8805L165.988 45.402C165.988 45.402 165.688 43.9588 165.273 43.4508C165.273 43.4508 166.084 43.9184 166.193 45.5502L166.962 46.1794C166.962 46.1794 166.799 44.9171 166.461 44.2552C166.461 44.2552 167.12 44.8517 167.173 46.3718L167.631 46.8529C167.631 46.8529 167.496 45.9331 167.439 45.6714C167.381 45.4097 167.439 45.3731 167.439 45.3731C167.723 45.885 167.859 46.466 167.833 47.051C167.833 47.051 168.709 48.0863 168.778 48.0401Z" fill="#E91E63"/>
<path opacity="0.1" d="M123.731 63.9226C123.731 63.9226 119.805 57.7305 116.159 61.4365C116.159 61.4365 115.325 61.8214 115.471 62.7354C115.471 62.7354 115.788 62.5237 116.115 63.1972C116.232 63.4359 116.378 63.6594 116.549 63.863C116.778 64.1408 117.092 64.3355 117.443 64.4171V64.4171C117.443 64.4171 119.336 65.5871 122.526 64.2632C122.526 64.2632 123.465 64.3132 123.604 64.1843L122.451 63.4916C122.451 63.4916 121.976 64.3575 121.182 64.5211C121.182 64.5211 122.455 63.5589 122.284 63.3819C122.251 63.3473 121.659 63.0433 121.659 63.0433C121.659 63.0433 120.827 64.5403 119.593 64.7577C119.593 64.7577 121.263 63.8052 121.436 62.924L120.516 62.5179C120.516 62.5179 119.714 64.1439 118.319 64.4422C118.319 64.4422 120.029 63.3858 120.308 62.439L119.347 62.162C119.347 62.162 118.536 63.734 117.374 63.9746C117.374 63.9746 119.226 62.5545 119.124 62.1119C119.124 62.1119 118.229 61.9099 117.971 61.9715C117.971 61.9715 117.362 63.0856 116.674 63.1664C116.674 63.1664 117.812 62.085 117.718 61.9426C117.718 61.9426 116.482 61.9907 115.867 62.3467C116.416 61.9908 117.048 61.7852 117.7 61.7502C117.408 61.4732 117.041 61.288 116.645 61.2172C116.645 61.2172 117.297 60.8766 117.991 61.7425C117.991 61.7425 118.951 61.7425 119.084 61.8387C119.084 61.8387 118.508 60.8766 117.875 60.5168C117.875 60.5168 118.778 60.5937 119.34 61.9041L120.31 62.162C120.31 62.162 119.616 60.8631 119.076 60.4917C119.076 60.4917 119.985 60.7111 120.548 62.2485L121.455 62.6334C121.455 62.6334 120.944 61.4692 120.431 60.9247C120.431 60.9247 121.231 61.3095 121.709 62.7546L122.286 63.0875C122.286 63.0875 121.901 62.2428 121.765 62.0099C121.628 61.7771 121.682 61.7232 121.682 61.7232C122.098 62.1345 122.391 62.6535 122.53 63.2222C122.53 63.2222 123.679 63.988 123.731 63.9226Z" fill="#E91E63"/>
<path d="M149.533 32.2846C149.533 32.2846 145.799 25.9751 142.038 29.5657C142.038 29.5657 141.193 29.9313 141.312 30.8434C141.312 30.8434 141.633 30.6394 141.94 31.3225C142.05 31.5653 142.189 31.794 142.353 32.0037C142.574 32.2874 142.882 32.4903 143.23 32.5809V32.5809C143.23 32.5809 145.084 33.8086 148.314 32.5809C148.314 32.5809 149.252 32.6598 149.394 32.5347L148.266 31.8074C148.266 31.8074 147.767 32.656 146.967 32.7964C146.967 32.7964 148.268 31.867 148.105 31.6919C148.07 31.6554 147.49 31.3321 147.49 31.3321C147.49 31.3321 146.612 32.8041 145.376 32.9831C145.376 32.9831 147.075 32.0825 147.273 31.209L146.366 30.7818C146.366 30.7818 145.514 32.3847 144.11 32.6406C144.11 32.6406 145.853 31.6381 146.16 30.701L145.211 30.3931C145.211 30.3931 144.35 31.9325 143.182 32.1441C143.182 32.1441 145.076 30.7818 144.988 30.3373C144.988 30.3373 144.1 30.1064 143.835 30.1603C143.835 30.1603 143.191 31.2551 142.501 31.3148C142.501 31.3148 143.672 30.2719 143.583 30.1256C143.583 30.1256 142.346 30.1352 141.721 30.472C142.281 30.1341 142.918 29.9483 143.572 29.9332C143.288 29.6472 142.926 29.4505 142.532 29.3675C142.532 29.3675 143.195 29.0461 143.877 29.9332C143.877 29.9332 144.838 29.9659 144.967 30.064C144.967 30.064 144.423 29.1019 143.8 28.7055C143.8 28.7055 144.7 28.8094 145.22 30.1372L146.181 30.4258C146.181 30.4258 145.53 29.1058 144.999 28.7171C144.999 28.7171 145.903 28.9653 146.418 30.5182L147.311 30.9357C147.311 30.9357 146.837 29.7562 146.35 29.2039C146.35 29.2039 147.136 29.6138 147.573 31.0723L148.136 31.4225C148.136 31.4225 147.774 30.5663 147.648 30.3296C147.521 30.0929 147.575 30.0409 147.575 30.0409C147.977 30.4649 148.255 30.9925 148.376 31.5649C148.376 31.5649 149.477 32.3481 149.533 32.2846Z" fill="#E91E63"/>
<path d="M125.909 45.5521C125.909 45.5521 126.102 38.2208 121.015 39.2541C121.015 39.2541 120.104 39.1137 119.72 39.9488C119.72 39.9488 120.104 39.9488 119.996 40.6896C119.961 40.9538 119.957 41.2212 119.985 41.4862C120.02 41.8458 120.172 42.1839 120.417 42.4483C120.417 42.4483 121.334 44.4765 124.718 45.1653C124.718 45.1653 125.469 45.733 125.658 45.7022L125.081 44.4861C125.081 44.4861 124.207 44.9364 123.455 44.6304C123.455 44.6304 125.05 44.5361 125.006 44.3014C125.006 44.2533 124.676 43.6683 124.676 43.6683C124.676 43.6683 123.15 44.4476 122.007 43.9358C122.007 43.9358 123.928 44.0801 124.557 43.447L124.02 42.5946C124.02 42.5946 122.449 43.4951 121.123 42.964C121.123 42.964 123.131 43.0448 123.892 42.4156L123.252 41.6459C123.252 41.6459 121.701 42.4964 120.602 42.0462C120.602 42.0462 122.931 41.9057 123.1 41.4805C123.1 41.4805 122.47 40.8127 122.216 40.7108C122.216 40.7108 121.09 41.288 120.475 40.9763C120.475 40.9763 122.012 40.7185 122.022 40.5472C122.022 40.5472 120.971 39.8949 120.262 39.8468C120.916 39.8585 121.555 40.0416 122.116 40.3779C122.029 39.9846 121.828 39.6254 121.54 39.3446C121.54 39.3446 122.272 39.4273 122.372 40.5376C122.372 40.5376 123.173 41.0802 123.225 41.2303C123.225 41.2303 123.281 40.12 122.96 39.4581C122.96 39.4581 123.667 40.0257 123.402 41.4266L124.061 42.1847C124.061 42.1847 124.211 40.7185 123.97 40.1085C123.97 40.1085 124.601 40.7993 124.213 42.3887L124.745 43.218C124.745 43.218 124.972 41.9654 124.851 41.2284C124.851 41.2284 125.296 41.9981 124.889 43.4624L125.181 44.0589C125.181 44.0589 125.329 43.1411 125.348 42.8736C125.368 42.6061 125.441 42.5888 125.441 42.5888C125.556 43.1628 125.51 43.7577 125.308 44.3071C125.308 44.3071 125.825 45.5771 125.909 45.5521Z" fill="#E91E63"/>
<path opacity="0.1" d="M134.319 138.707C137.177 138.707 139.494 138.315 139.494 137.832C139.494 137.348 137.177 136.956 134.319 136.956C131.461 136.956 129.144 137.348 129.144 137.832C129.144 138.315 131.461 138.707 134.319 138.707Z" fill="#E91E63"/>
<path opacity="0.1" d="M115.454 152C118.312 152 120.629 151.608 120.629 151.124C120.629 150.641 118.312 150.249 115.454 150.249C112.596 150.249 110.279 150.641 110.279 151.124C110.279 151.608 112.596 152 115.454 152Z" fill="#E91E63"/>
<path opacity="0.1" d="M17.8987 145.19C20.7568 145.19 23.0737 144.798 23.0737 144.315C23.0737 143.831 20.7568 143.439 17.8987 143.439C15.0406 143.439 12.7236 143.831 12.7236 144.315C12.7236 144.798 15.0406 145.19 17.8987 145.19Z" fill="#E91E63"/>
<path opacity="0.1" d="M154.706 151.124C157.564 151.124 159.881 150.732 159.881 150.249C159.881 149.765 157.564 149.373 154.706 149.373C151.848 149.373 149.531 149.765 149.531 150.249C149.531 150.732 151.848 151.124 154.706 151.124Z" fill="#E91E63"/>
<path d="M160.094 140.449C164.361 140.449 167.821 139.863 167.821 139.14C167.821 138.418 164.361 137.832 160.094 137.832C155.826 137.832 152.367 138.418 152.367 139.14C152.367 139.863 155.826 140.449 160.094 140.449Z" fill="#E91E63"/>
<path d="M163.298 136.999C163.65 136.712 163.907 136.324 164.034 135.887C164.13 135.444 163.941 134.915 163.52 134.753C163.048 134.572 162.542 134.899 162.158 135.23C161.774 135.561 161.337 135.94 160.836 135.871C161.093 135.637 161.286 135.34 161.395 135.009C161.504 134.679 161.526 134.325 161.459 133.984C161.437 133.842 161.377 133.709 161.286 133.599C161.022 133.318 160.548 133.439 160.233 133.66C159.233 134.365 158.955 135.723 158.949 136.947C158.849 136.506 158.933 136.046 158.932 135.6C158.93 135.153 158.805 134.638 158.422 134.403C158.188 134.272 157.922 134.206 157.654 134.211C157.204 134.195 156.702 134.239 156.397 134.568C156.013 134.976 156.114 135.663 156.445 136.108C156.775 136.552 157.281 136.839 157.746 137.151C158.118 137.373 158.436 137.676 158.676 138.038C158.703 138.088 158.726 138.141 158.743 138.196H161.56C162.191 137.878 162.775 137.475 163.298 136.999V136.999Z" fill="#E91E63"/>
<path d="M14.4238 140.245C14.4238 140.245 17.3736 140.154 18.2672 139.519C19.1607 138.885 22.8081 138.128 23.0291 139.146C23.2501 140.164 27.4643 144.205 24.1321 144.232C20.7999 144.259 16.3897 143.712 15.5019 143.17C14.6141 142.627 14.4238 140.245 14.4238 140.245Z" fill="#A8A8A8"/>
<path opacity="0.2" d="M24.1878 143.878C20.8557 143.905 16.4454 143.358 15.5576 142.816C14.8812 142.404 14.6122 140.924 14.5218 140.241H14.4238C14.4238 140.241 14.616 142.625 15.498 143.166C16.3801 143.707 20.7961 144.255 24.1282 144.228C25.0891 144.228 25.4215 143.878 25.4042 143.37C25.2697 143.68 24.9027 143.872 24.1878 143.878Z" fill="black"/>
</g>
<defs>
<linearGradient id="paint0_linear" x1="42.8513" y1="83.3996" x2="102.832" y2="83.3996" gradientUnits="userSpaceOnUse">
<stop stop-color="#808080" stop-opacity="0.25"/>
<stop offset="0.54" stop-color="#808080" stop-opacity="0.12"/>
<stop offset="1" stop-color="#808080" stop-opacity="0.1"/>
</linearGradient>
<clipPath id="clip0">
<rect width="194" height="152" fill="white"/>
</clipPath>
</defs>
</svg>
