<svg width="314" height="399" viewBox="0 0 314 399" fill="none" xmlns="http://www.w3.org/2000/svg">
<path d="M278.506 63.8644C301.905 92.7638 317.04 124.466 313.482 152.705C310.009 180.859 287.861 205.63 264.448 239.975C241.048 274.404 216.245 318.496 180.521 329.476C144.718 340.455 97.9985 318.411 61.2025 283.982C24.4064 249.553 -2.46646 202.903 0.179712 158.815C2.82588 114.727 34.9107 73.2773 71.6978 44.3824C108.485 15.4874 150.01 -0.883734 186.641 4.02582C223.271 8.93538 255.021 34.9694 278.506 63.8644Z" fill="#F2F2F2"/>
<path fill-rule="evenodd" clip-rule="evenodd" d="M149.657 193.472C173.794 193.472 186.757 209.576 189.166 225.929C191.616 242.657 188.822 256.506 189.519 276.729C189.993 290.347 195.996 299.443 199.845 311.583C203.693 323.723 100.98 326.784 101.592 315.43C102.205 304.075 109.553 292.444 109.817 278.3C110.085 263.88 108.029 255.225 108.31 231.767C108.521 213.249 125.511 193.472 149.657 193.472Z" fill="black"/>
<path fill-rule="evenodd" clip-rule="evenodd" d="M50.5507 396.473C49.6255 385.074 54.7167 344.423 70.4551 314.069C129.238 281.563 202.991 297.046 232.153 314.069C242.027 324.084 249.165 390.622 247.006 395.398" fill="#FFD98E"/>
<path d="M84.4816 395.398C85.4069 388.002 86.873 376.085 89.2644 365.048" stroke="#FF8364" stroke-width="5.73" stroke-linecap="round" stroke-linejoin="round"/>
<path d="M214.855 395.398C213.929 388.002 212.463 376.085 210.072 365.048" stroke="#FF8364" stroke-width="5.73" stroke-linecap="round" stroke-linejoin="round"/>
<path fill-rule="evenodd" clip-rule="evenodd" d="M112.347 246.254C112.346 244.963 112.728 243.701 113.446 242.627C114.163 241.553 115.184 240.715 116.378 240.22C117.572 239.725 118.886 239.594 120.154 239.844C121.423 240.095 122.589 240.715 123.504 241.626C124.42 242.538 125.044 243.7 125.298 244.966C125.552 246.232 125.425 247.545 124.932 248.738C124.439 249.932 123.603 250.953 122.53 251.672C121.456 252.392 120.193 252.777 118.9 252.78C118.04 252.781 117.189 252.614 116.394 252.287C115.599 251.96 114.877 251.479 114.269 250.873C113.66 250.267 113.177 249.547 112.847 248.755C112.517 247.962 112.347 247.113 112.347 246.254Z" fill="#D18C65"/>
<path fill-rule="evenodd" clip-rule="evenodd" d="M172.315 246.254C172.314 244.963 172.697 243.7 173.415 242.625C174.133 241.551 175.154 240.713 176.349 240.219C177.543 239.724 178.858 239.594 180.127 239.845C181.396 240.097 182.562 240.718 183.477 241.631C184.392 242.544 185.015 243.708 185.268 244.974C185.52 246.241 185.391 247.554 184.896 248.748C184.401 249.941 183.563 250.961 182.488 251.679C181.412 252.397 180.148 252.78 178.854 252.78C177.121 252.78 175.458 252.092 174.232 250.869C173.005 249.645 172.316 247.985 172.315 246.254Z" fill="#D18C65"/>
<path fill-rule="evenodd" clip-rule="evenodd" d="M175.698 133.848C169.101 128.711 167.474 134.45 166.441 137.865C165.409 141.279 165.485 147.3 170.656 147.171C175.189 151.228 179.408 145.974 180.705 143.305C182.001 140.636 185.184 134.848 175.698 133.848Z" fill="#FF8364"/>
<path d="M180.061 130.188C177.786 130.987 176.507 132.076 175.783 133.968" stroke="#FFD98E" stroke-width="2.83" stroke-linecap="round" stroke-linejoin="round"/>
<path fill-rule="evenodd" clip-rule="evenodd" d="M132.676 164.336C132.675 162.824 133.123 161.345 133.964 160.087C134.804 158.829 135.999 157.847 137.398 157.267C138.797 156.687 140.337 156.534 141.823 156.827C143.309 157.12 144.674 157.847 145.747 158.915C146.819 159.982 147.551 161.344 147.849 162.827C148.147 164.31 147.998 165.847 147.421 167.246C146.844 168.644 145.865 169.841 144.607 170.683C143.349 171.526 141.87 171.978 140.355 171.982C139.348 171.984 138.35 171.788 137.419 171.405C136.487 171.022 135.641 170.459 134.928 169.749C134.214 169.039 133.648 168.195 133.262 167.266C132.876 166.338 132.676 165.342 132.676 164.336Z" fill="#6BD5E1"/>
<path fill-rule="evenodd" clip-rule="evenodd" d="M79.6229 167.71L100.841 162.332L109.437 196.155L88.2229 201.51L79.6229 167.71Z" fill="#DFDFDF"/>
<path fill-rule="evenodd" clip-rule="evenodd" d="M84.0927 171.437L98.6913 167.737L99.8177 172.169L85.2191 175.86L84.0927 171.437Z" fill="#FF8364"/>
<path d="M86.4439 180.681L101.043 176.981" stroke="#6BD5E1" stroke-width="3.11" stroke-linecap="round" stroke-linejoin="round"/>
<path d="M87.6686 185.492L102.272 181.792" stroke="#6BD5E1" stroke-width="3.11" stroke-linecap="round" stroke-linejoin="round"/>
<path d="M88.9515 190.513L103.563 186.809" stroke="#6BD5E1" stroke-width="3.11" stroke-linecap="round" stroke-linejoin="round"/>
<path d="M90.1763 195.365L95.9066 193.91" stroke="#6BD5E1" stroke-width="3.11" stroke-linecap="round" stroke-linejoin="round"/>
<path d="M102.491 192.24L104.788 191.66" stroke="#6BD5E1" stroke-width="3.11" stroke-linecap="round" stroke-linejoin="round"/>
<path fill-rule="evenodd" clip-rule="evenodd" d="M65.5562 90.9161L120.464 64.8106L137.624 100.789L82.716 126.899L65.5562 90.9161Z" fill="#DFDFDF"/>
<path d="M84.5442 118.941L90.0064 102.976L100.184 104.895L104.18 85.2076L114.014 86.8411L116.875 72.9515" stroke="#FF8364" stroke-width="3.11" stroke-linecap="round" stroke-linejoin="round"/>
<path fill-rule="evenodd" clip-rule="evenodd" d="M88.0798 104.002C87.8403 103.498 87.7559 102.934 87.8373 102.381C87.9187 101.829 88.1622 101.313 88.537 100.898C88.9119 100.484 89.4013 100.19 89.9435 100.053C90.4857 99.9163 91.0563 99.943 91.5833 100.13C92.1102 100.317 92.57 100.655 92.9044 101.103C93.2388 101.55 93.4329 102.087 93.4622 102.644C93.4914 103.202 93.3546 103.756 93.0689 104.236C92.7832 104.716 92.3614 105.1 91.8569 105.341C91.5209 105.502 91.1566 105.594 90.7847 105.614C90.4129 105.633 90.0409 105.579 89.69 105.455C89.3391 105.33 89.0162 105.138 88.7399 104.889C88.4636 104.639 88.2393 104.338 88.0798 104.002Z" fill="#FFD98E"/>
<path fill-rule="evenodd" clip-rule="evenodd" d="M101.758 86.8723C101.517 86.367 101.431 85.8017 101.512 85.2479C101.593 84.6941 101.837 84.1767 102.212 83.7612C102.588 83.3456 103.078 83.0505 103.621 82.9132C104.165 82.7759 104.737 82.8025 105.265 82.9898C105.793 83.177 106.254 83.5164 106.589 83.9651C106.924 84.4138 107.118 84.9516 107.147 85.5105C107.176 86.0694 107.038 86.6243 106.751 87.105C106.464 87.5858 106.041 87.9707 105.535 88.2113C105.199 88.3716 104.834 88.4642 104.463 88.4837C104.091 88.5031 103.719 88.4491 103.368 88.3247C103.017 88.2003 102.694 88.008 102.418 87.7588C102.141 87.5095 101.917 87.2083 101.758 86.8723Z" fill="#FFD98E"/>
<path fill-rule="evenodd" clip-rule="evenodd" d="M205.767 117.213C205.767 115.297 206.337 113.424 207.403 111.831C208.47 110.238 209.986 108.996 211.759 108.264C213.533 107.531 215.484 107.34 217.366 107.716C219.248 108.091 220.976 109.015 222.332 110.371C223.688 111.728 224.61 113.455 224.982 115.335C225.355 117.215 225.16 119.163 224.423 120.932C223.686 122.702 222.44 124.213 220.843 125.275C219.245 126.337 217.368 126.902 215.449 126.899C212.879 126.895 210.416 125.873 208.601 124.057C206.785 122.241 205.766 119.779 205.767 117.213Z" fill="#FFD98E"/>
<path d="M231.84 115.522C232.306 117.178 232.382 118.919 232.062 120.61C231.743 122.3 231.036 123.894 229.997 125.266C228.958 126.639 227.616 127.753 226.075 128.521C224.534 129.29 222.835 129.692 221.112 129.697C220.382 129.698 219.653 129.628 218.936 129.487" stroke="#FF8364" stroke-width="3.11" stroke-linecap="round" stroke-linejoin="round"/>
<path fill-rule="evenodd" clip-rule="evenodd" d="M209.585 124.569L205.866 131.228L221.22 133.692L219.539 125.935" fill="#FFD98E"/>
<path fill-rule="evenodd" clip-rule="evenodd" d="M213.178 117.213C213.178 116.761 213.313 116.32 213.564 115.944C213.816 115.568 214.173 115.275 214.591 115.102C215.009 114.929 215.469 114.884 215.913 114.972C216.357 115.06 216.765 115.278 217.085 115.598C217.405 115.917 217.623 116.324 217.712 116.768C217.8 117.211 217.755 117.67 217.581 118.088C217.408 118.505 217.115 118.862 216.738 119.113C216.362 119.365 215.92 119.499 215.467 119.499C214.86 119.499 214.278 119.258 213.849 118.829C213.419 118.401 213.178 117.819 213.178 117.213Z" fill="#1B3C87"/>
<path fill-rule="evenodd" clip-rule="evenodd" d="M228.935 114.928C228.935 114.476 229.069 114.034 229.32 113.659C229.572 113.283 229.929 112.99 230.347 112.817C230.766 112.644 231.226 112.599 231.67 112.687C232.114 112.775 232.521 112.993 232.842 113.312C233.162 113.632 233.38 114.039 233.468 114.482C233.556 114.926 233.511 115.385 233.338 115.803C233.164 116.22 232.871 116.577 232.495 116.828C232.118 117.079 231.676 117.213 231.223 117.213C230.617 117.212 230.035 116.971 229.606 116.543C229.177 116.114 228.936 115.534 228.935 114.928Z" fill="#FFD98E"/>
<path fill-rule="evenodd" clip-rule="evenodd" d="M45.1064 44.4047L59.4503 48.2743L45.3255 100.494L30.9816 96.6379L45.1064 44.4047Z" fill="#FF8364"/>
<path d="M35.5409 79.7803L43.4392 81.9137" stroke="#FFD98E" stroke-width="4.23" stroke-linecap="round" stroke-linejoin="round"/>
<path d="M33.0333 89.046L40.9361 91.1749" stroke="#FFD98E" stroke-width="4.23" stroke-linecap="round" stroke-linejoin="round"/>
<path d="M38.0441 70.528L45.9468 72.6614" stroke="#FFD98E" stroke-width="4.23" stroke-linecap="round" stroke-linejoin="round"/>
<path d="M40.5516 61.2578L48.4499 63.3868" stroke="#FFD98E" stroke-width="4.23" stroke-linecap="round" stroke-linejoin="round"/>
<path d="M43.0548 51.9967L50.9575 54.1256" stroke="#FFD98E" stroke-width="4.23" stroke-linecap="round" stroke-linejoin="round"/>
<path fill-rule="evenodd" clip-rule="evenodd" d="M192.845 33.5769L247.006 46.6318L238.067 83.507L183.927 70.4476L192.845 33.5769Z" fill="#DFDFDF"/>
<path fill-rule="evenodd" clip-rule="evenodd" d="M225.238 73.5541C225.509 72.4334 226.107 71.4181 226.955 70.6366C227.804 69.8551 228.866 69.3425 230.007 69.1636C231.147 68.9847 232.316 69.1475 233.363 69.6315C234.411 70.1155 235.292 70.899 235.894 71.8827C236.496 72.8665 236.792 74.0064 236.746 75.1583C236.699 76.3102 236.311 77.4224 235.631 78.3542C234.951 79.2861 234.01 79.9956 232.926 80.3933C231.842 80.7909 230.665 80.8587 229.543 80.5881C228.038 80.2253 226.739 79.2804 225.931 77.9612C225.124 76.6421 224.875 75.0568 225.238 73.5541Z" fill="#FF8364"/>
<path fill-rule="evenodd" clip-rule="evenodd" d="M226.963 78.3521L223.07 88.488L228.506 87.2607L231.997 90.4965L232.698 79.4545" fill="#FF8364"/>
<path d="M196.045 43.1416L238.804 53.4517" stroke="#6BD5E1" stroke-width="3.11" stroke-linecap="round" stroke-linejoin="round"/>
<path d="M193.569 53.2597L219.391 59.4859" stroke="#6BD5E1" stroke-width="3.11" stroke-linecap="round" stroke-linejoin="round"/>
<path fill-rule="evenodd" clip-rule="evenodd" d="M106.894 38.6069L101.083 32.3183L109.441 30.4303L117.805 28.5424L115.261 36.719L112.718 44.8912L106.894 38.6069Z" fill="#6BD5E1"/>
<path fill-rule="evenodd" clip-rule="evenodd" d="M222.346 170.451L214.385 173.629L215.605 165.149L216.826 156.668L223.562 161.957L230.302 167.251L222.346 170.451Z" fill="#FFD98E"/>
<path d="M157.001 68.2964C157.001 67.4754 157.245 66.6729 157.702 65.9903C158.158 65.3077 158.808 64.7757 159.567 64.4615C160.327 64.1474 161.163 64.0652 161.969 64.2253C162.775 64.3855 163.516 64.7808 164.097 65.3613C164.679 65.9418 165.075 66.6814 165.235 67.4866C165.395 68.2918 165.313 69.1264 164.998 69.8848C164.684 70.6433 164.151 71.2915 163.467 71.7476C162.784 72.2037 161.98 72.4472 161.158 72.4472C160.055 72.4472 158.998 72.0099 158.218 71.2314C157.439 70.453 157.001 69.3972 157.001 68.2964Z" stroke="#FF8364" stroke-width="3.11" stroke-linecap="round" stroke-linejoin="round"/>
<path fill-rule="evenodd" clip-rule="evenodd" d="M40.8556 137.834C40.8556 137.013 41.0994 136.21 41.5562 135.527C42.0129 134.845 42.6622 134.313 43.4218 133.999C44.1814 133.685 45.0172 133.602 45.8236 133.762C46.6299 133.923 47.3706 134.318 47.952 134.898C48.5334 135.479 48.9293 136.219 49.0897 137.024C49.2501 137.829 49.1678 138.664 48.8531 139.422C48.5385 140.18 48.0057 140.829 47.3221 141.285C46.6385 141.741 45.8347 141.984 45.0126 141.984C43.9101 141.984 42.8527 141.547 42.0731 140.769C41.2936 139.99 40.8556 138.934 40.8556 137.834Z" fill="#FFD98E"/>
<path fill-rule="evenodd" clip-rule="evenodd" d="M134.906 270.816H162.704C162.704 270.816 162.834 299.492 162.704 310.775C162.704 315.43 134.915 314.899 134.915 310.775L134.906 270.816Z" fill="#D18C65"/>
<path fill-rule="evenodd" clip-rule="evenodd" d="M120.688 243.398C120.688 222.099 133.65 204.831 149.666 204.831C165.681 204.831 178.649 222.099 178.649 243.398C178.649 264.696 165.686 281.969 149.666 281.969C133.646 281.969 120.688 264.701 120.688 243.398Z" fill="#E49D75"/>
<path fill-rule="evenodd" clip-rule="evenodd" d="M165.315 202.068C157.953 219.149 127.451 235.824 114.604 239.725C112.575 229.526 125.721 186.086 165.315 202.068Z" fill="black"/>
<path fill-rule="evenodd" clip-rule="evenodd" d="M149.013 201.542C143.439 203.662 161.56 232.601 183.275 239.725C192.139 227.125 171.702 200.939 149.013 201.542Z" fill="black"/>
<path fill-rule="evenodd" clip-rule="evenodd" d="M190.449 7.65444C190.448 6.14104 190.897 4.66138 191.738 3.40266C192.58 2.14395 193.776 1.16274 195.176 0.583178C196.577 0.0036155 198.117 -0.148256 199.604 0.146778C201.091 0.441812 202.456 1.17049 203.528 2.24063C204.6 3.31077 205.329 4.67427 205.625 6.15864C205.92 7.64301 205.768 9.18153 205.188 10.5796C204.607 11.9776 203.625 13.1723 202.364 14.0126C201.103 14.8528 199.622 15.3008 198.106 15.3C196.075 15.3 194.128 14.4945 192.692 13.0606C191.256 11.6268 190.449 9.68216 190.449 7.65444Z" fill="#FFD98E"/>
<path d="M58.3865 208.692C58.3865 207.279 58.8059 205.899 59.5918 204.724C60.3776 203.55 61.4946 202.635 62.8014 202.094C64.1082 201.554 65.5462 201.412 66.9335 201.688C68.3208 201.963 69.5952 202.644 70.5954 203.642C71.5956 204.641 72.2767 205.913 72.5527 207.299C72.8286 208.684 72.687 210.12 72.1457 211.425C71.6044 212.729 70.6877 213.845 69.5116 214.629C68.3355 215.414 66.9528 215.833 65.5383 215.833C63.6415 215.833 61.8224 215.081 60.4812 213.741C59.14 212.402 58.3865 210.586 58.3865 208.692Z" stroke="#6BD5E1" stroke-width="3.11" stroke-linecap="round" stroke-linejoin="round"/>
<path d="M216.848 205.684C216.847 204.862 217.091 204.058 217.547 203.374C218.004 202.69 218.654 202.157 219.414 201.841C220.174 201.526 221.011 201.443 221.819 201.603C222.626 201.763 223.368 202.158 223.951 202.739C224.533 203.32 224.93 204.061 225.091 204.867C225.252 205.673 225.169 206.509 224.855 207.268C224.54 208.028 224.006 208.677 223.322 209.134C222.638 209.591 221.833 209.834 221.01 209.834C220.463 209.835 219.922 209.728 219.417 209.52C218.912 209.311 218.454 209.006 218.067 208.62C217.681 208.235 217.374 207.777 217.165 207.273C216.956 206.769 216.848 206.229 216.848 205.684V205.684Z" stroke="#FF8364" stroke-width="3.11" stroke-linecap="round" stroke-linejoin="round"/>
<path d="M278.506 64.1991C301.905 93.0941 317.04 124.801 313.482 153.017C310.009 181.216 287.861 205.96 264.448 240.309C241.048 274.739 216.245 318.826 180.521 329.806C144.718 340.79 97.9985 318.746 61.2025 284.317C24.4064 249.887 -2.46646 203.238 0.179712 159.145C2.82588 115.053 34.9107 73.6121 71.6978 44.7126C108.485 15.8132 150.01 -0.531138 186.641 4.33825C223.271 9.20763 255.021 35.2997 278.506 64.1991Z" fill="#2D7992"/>
<path fill-rule="evenodd" clip-rule="evenodd" d="M149.657 193.802C173.794 193.802 186.757 209.91 189.166 226.264C191.616 242.987 188.822 256.837 189.519 277.06C189.993 290.681 195.996 299.773 199.845 311.917C203.693 324.062 100.98 327.119 101.592 315.76C102.205 304.401 109.553 292.775 109.817 278.631C110.085 264.214 108.029 255.556 108.31 232.101C108.521 213.579 125.511 193.802 149.657 193.802Z" fill="black"/>
<path fill-rule="evenodd" clip-rule="evenodd" d="M50.5507 396.79C49.6255 385.391 54.7167 344.74 70.4551 314.39C129.238 281.884 202.991 297.363 232.153 314.39C242.027 324.406 249.165 390.939 247.006 395.715" fill="#DFDFDF"/>
<path d="M84.4816 395.728C85.4069 388.332 86.873 376.416 89.2644 365.378" stroke="#2D7992" stroke-width="5.73" stroke-linecap="round" stroke-linejoin="round"/>
<path d="M214.855 395.728C213.929 388.332 212.463 376.416 210.072 365.378" stroke="#2D7992" stroke-width="5.73" stroke-linecap="round" stroke-linejoin="round"/>
<path fill-rule="evenodd" clip-rule="evenodd" d="M112.347 246.585C112.346 245.294 112.728 244.031 113.446 242.957C114.163 241.883 115.184 241.045 116.378 240.55C117.572 240.055 118.886 239.924 120.154 240.174C121.423 240.425 122.589 241.045 123.504 241.957C124.42 242.868 125.044 244.031 125.298 245.296C125.552 246.562 125.425 247.875 124.932 249.069C124.439 250.262 123.603 251.283 122.53 252.003C121.456 252.722 120.193 253.107 118.9 253.11C118.04 253.112 117.189 252.944 116.394 252.617C115.599 252.29 114.877 251.81 114.269 251.204C113.66 250.598 113.177 249.878 112.847 249.085C112.517 248.293 112.347 247.443 112.347 246.585Z" fill="#D18C65"/>
<path fill-rule="evenodd" clip-rule="evenodd" d="M172.315 246.585C172.314 245.293 172.697 244.03 173.415 242.956C174.133 241.881 175.154 241.044 176.349 240.549C177.543 240.054 178.858 239.924 180.127 240.175C181.396 240.427 182.562 241.048 183.477 241.961C184.392 242.874 185.015 244.038 185.268 245.305C185.52 246.571 185.391 247.885 184.896 249.078C184.401 250.271 183.563 251.291 182.488 252.009C181.412 252.727 180.148 253.11 178.854 253.11C177.121 253.11 175.458 252.423 174.232 251.199C173.005 249.975 172.316 248.316 172.315 246.585Z" fill="#D18C65"/>
<path fill-rule="evenodd" clip-rule="evenodd" d="M175.698 134.183C169.101 129.041 167.474 134.785 166.441 138.2C165.409 141.614 165.485 147.635 170.656 147.505C175.189 151.567 179.408 146.314 180.705 143.645C182.001 140.976 185.184 135.182 175.698 134.183Z" fill="#FF8364"/>
<path d="M180.061 130.518C177.786 131.317 176.507 132.406 175.783 134.299" stroke="#FFD98E" stroke-width="2.83" stroke-linecap="round" stroke-linejoin="round"/>
<path fill-rule="evenodd" clip-rule="evenodd" d="M132.676 164.666C132.675 163.154 133.123 161.675 133.964 160.417C134.804 159.159 135.999 158.178 137.398 157.597C138.797 157.017 140.337 156.864 141.823 157.157C143.309 157.45 144.674 158.177 145.747 159.245C146.819 160.313 147.551 161.674 147.849 163.157C148.147 164.64 147.998 166.178 147.421 167.576C146.844 168.975 145.865 170.171 144.607 171.014C143.349 171.857 141.87 172.308 140.355 172.312C139.348 172.315 138.35 172.119 137.418 171.736C136.487 171.354 135.64 170.791 134.926 170.081C134.213 169.37 133.647 168.527 133.261 167.597C132.875 166.668 132.676 165.672 132.676 164.666Z" fill="#6BD5E1"/>
<path fill-rule="evenodd" clip-rule="evenodd" d="M79.6229 168.041L100.841 162.662L109.437 196.485L88.2229 201.863L79.6229 168.041Z" fill="#DFDFDF"/>
<path fill-rule="evenodd" clip-rule="evenodd" d="M84.0927 171.767L98.6913 168.067L99.8177 172.499L85.2191 176.199L84.0927 171.767Z" fill="#FF8364"/>
<path d="M86.4439 181.015L101.043 177.311" stroke="#6BD5E1" stroke-width="3.11" stroke-linecap="round" stroke-linejoin="round"/>
<path d="M87.6686 185.827L102.272 182.109" stroke="#6BD5E1" stroke-width="3.11" stroke-linecap="round" stroke-linejoin="round"/>
<path d="M88.9515 190.843L103.563 187.139" stroke="#6BD5E1" stroke-width="3.11" stroke-linecap="round" stroke-linejoin="round"/>
<path d="M90.1763 195.695L95.9066 194.244" stroke="#6BD5E1" stroke-width="3.11" stroke-linecap="round" stroke-linejoin="round"/>
<path d="M102.491 192.571L104.788 191.99" stroke="#6BD5E1" stroke-width="3.11" stroke-linecap="round" stroke-linejoin="round"/>
<path fill-rule="evenodd" clip-rule="evenodd" d="M65.5562 91.2508L120.464 65.1409L137.624 101.123L82.716 127.211L65.5562 91.2508Z" fill="#DFDFDF"/>
<path d="M84.5442 119.271L90.0064 103.31L100.184 105.203L104.18 85.5155L114.014 87.1491L116.875 73.264" stroke="#FF8364" stroke-width="3.11" stroke-linecap="round" stroke-linejoin="round"/>
<path fill-rule="evenodd" clip-rule="evenodd" d="M88.0799 104.355C87.839 103.85 87.7536 103.284 87.8346 102.73C87.9155 102.177 88.159 101.659 88.5344 101.244C88.9098 100.828 89.4001 100.533 89.9435 100.396C90.4868 100.258 91.0587 100.285 91.5869 100.472C92.1151 100.66 92.5758 100.999 92.9108 101.448C93.2458 101.896 93.44 102.434 93.4689 102.993C93.4978 103.552 93.3601 104.107 93.0731 104.588C92.7862 105.068 92.363 105.453 91.8569 105.694C91.178 106.015 90.3993 106.055 89.6912 105.804C88.9832 105.553 88.4038 105.032 88.0799 104.355Z" fill="#FFD98E"/>
<path fill-rule="evenodd" clip-rule="evenodd" d="M101.758 87.2026C101.517 86.6973 101.431 86.132 101.512 85.5782C101.593 85.0244 101.837 84.507 102.212 84.0915C102.588 83.6759 103.078 83.3808 103.621 83.2435C104.165 83.1062 104.737 83.1328 105.265 83.3201C105.793 83.5073 106.254 83.8467 106.589 84.2954C106.924 84.7441 107.118 85.2819 107.147 85.8408C107.176 86.3997 107.038 86.9546 106.751 87.4353C106.464 87.9161 106.041 88.3011 105.535 88.5416C105.199 88.702 104.834 88.7945 104.463 88.814C104.091 88.8334 103.719 88.7794 103.368 88.655C103.017 88.5306 102.694 88.3383 102.418 88.0891C102.141 87.8399 101.917 87.5386 101.758 87.2026Z" fill="#FFD98E"/>
<path fill-rule="evenodd" clip-rule="evenodd" d="M205.767 117.544C205.764 115.627 206.33 113.752 207.394 112.156C208.459 110.561 209.974 109.317 211.747 108.581C213.52 107.846 215.472 107.653 217.355 108.026C219.238 108.399 220.968 109.322 222.326 110.677C223.683 112.033 224.607 113.76 224.981 115.641C225.355 117.521 225.161 119.47 224.425 121.24C223.688 123.011 222.442 124.523 220.845 125.586C219.247 126.649 217.369 127.215 215.449 127.211C212.883 127.206 210.423 126.186 208.608 124.374C206.794 122.562 205.772 120.106 205.767 117.544Z" fill="#FFD98E"/>
<path d="M231.84 115.857C232.122 116.844 232.263 117.865 232.26 118.892C232.261 120.539 231.896 122.165 231.191 123.654C230.486 125.143 229.459 126.458 228.184 127.503C226.909 128.548 225.418 129.298 223.818 129.698C222.218 130.098 220.549 130.139 218.931 129.818" stroke="#FF8364" stroke-width="3.11" stroke-linecap="round" stroke-linejoin="round"/>
<path fill-rule="evenodd" clip-rule="evenodd" d="M209.585 124.899L205.866 131.545L221.22 134.013L219.539 126.251" fill="#FFD98E"/>
<path fill-rule="evenodd" clip-rule="evenodd" d="M213.178 117.544C213.178 117.092 213.313 116.65 213.564 116.274C213.816 115.898 214.173 115.605 214.591 115.432C215.009 115.26 215.469 115.214 215.913 115.302C216.357 115.391 216.765 115.608 217.085 115.928C217.405 116.247 217.623 116.655 217.712 117.098C217.8 117.541 217.755 118.001 217.581 118.418C217.408 118.836 217.115 119.193 216.738 119.444C216.362 119.695 215.92 119.829 215.467 119.829C214.86 119.829 214.278 119.588 213.849 119.16C213.419 118.731 213.178 118.15 213.178 117.544Z" fill="#1B3C87"/>
<path fill-rule="evenodd" clip-rule="evenodd" d="M228.935 115.259C228.935 114.807 229.069 114.365 229.32 113.989C229.572 113.613 229.929 113.32 230.347 113.147C230.766 112.974 231.226 112.929 231.67 113.017C232.114 113.105 232.521 113.323 232.842 113.643C233.162 113.962 233.38 114.369 233.468 114.813C233.556 115.256 233.511 115.715 233.338 116.133C233.164 116.551 232.871 116.907 232.495 117.159C232.118 117.41 231.676 117.544 231.223 117.544C230.616 117.544 230.034 117.303 229.605 116.874C229.176 116.446 228.935 115.865 228.935 115.259Z" fill="#FFD98E"/>
<path fill-rule="evenodd" clip-rule="evenodd" d="M45.1065 44.735L59.4503 48.609L45.3255 100.829L30.9683 96.9592L45.1065 44.735Z" fill="#FF8364"/>
<path d="M35.5409 80.115L43.4392 82.244" stroke="#FFD98E" stroke-width="4.23" stroke-linecap="round" stroke-linejoin="round"/>
<path d="M33.0333 89.3762L40.9361 91.5052" stroke="#FFD98E" stroke-width="4.23" stroke-linecap="round" stroke-linejoin="round"/>
<path d="M38.0441 70.8538L45.9468 72.9828" stroke="#FFD98E" stroke-width="4.23" stroke-linecap="round" stroke-linejoin="round"/>
<path d="M40.5516 61.6015L48.4499 63.7305" stroke="#FFD98E" stroke-width="4.23" stroke-linecap="round" stroke-linejoin="round"/>
<path d="M43.0548 52.3269L50.9575 54.4604" stroke="#FFD98E" stroke-width="4.23" stroke-linecap="round" stroke-linejoin="round"/>
<path fill-rule="evenodd" clip-rule="evenodd" d="M192.845 33.9295L247.006 46.9666L238.067 83.8373L183.927 70.7779L192.845 33.9295Z" fill="#DFDFDF"/>
<path fill-rule="evenodd" clip-rule="evenodd" d="M225.238 73.8844C225.509 72.7637 226.107 71.7484 226.955 70.9669C227.804 70.1854 228.866 69.6728 230.007 69.4939C231.147 69.315 232.316 69.4778 233.363 69.9618C234.411 70.4458 235.292 71.2292 235.894 72.213C236.496 73.1967 236.792 74.3367 236.746 75.4886C236.699 76.6405 236.311 77.7527 235.631 78.6845C234.951 79.6163 234.01 80.3259 232.926 80.7236C231.842 81.1212 230.665 81.189 229.543 80.9184C228.038 80.5556 226.739 79.6107 225.931 78.2915C225.124 76.9724 224.875 75.3871 225.238 73.8844Z" fill="#FF8364"/>
<path fill-rule="evenodd" clip-rule="evenodd" d="M226.963 78.6868L223.07 88.8272L228.506 87.5954L231.997 90.8312L232.698 79.7847" fill="#FF8364"/>
<path d="M196.045 43.4763L238.804 53.7864" stroke="#6BD5E1" stroke-width="3.11" stroke-linecap="round" stroke-linejoin="round"/>
<path d="M193.569 53.5945L219.391 59.8162" stroke="#6BD5E1" stroke-width="3.11" stroke-linecap="round" stroke-linejoin="round"/>
<path fill-rule="evenodd" clip-rule="evenodd" d="M106.894 38.9372L101.083 32.653L109.441 30.7651L117.805 28.8771L115.257 37.0537L112.713 45.2304L106.894 38.9372Z" fill="#6BD5E1"/>
<path fill-rule="evenodd" clip-rule="evenodd" d="M222.346 170.781L214.385 173.963L215.605 165.483L216.826 157.003L223.562 162.292L230.302 167.581L222.346 170.781Z" fill="#FFD98E"/>
<path d="M157.001 68.6356C157.001 67.8146 157.245 67.0121 157.702 66.3295C158.158 65.6469 158.808 65.1149 159.567 64.8008C160.327 64.4866 161.163 64.4044 161.969 64.5646C162.775 64.7247 163.516 65.12 164.097 65.7005C164.679 66.281 165.075 67.0206 165.235 67.8258C165.395 68.631 165.313 69.4656 164.998 70.224C164.684 70.9825 164.151 71.6308 163.467 72.0869C162.784 72.543 161.98 72.7864 161.158 72.7864C160.055 72.7864 158.998 72.3491 158.218 71.5707C157.439 70.7922 157.001 69.7365 157.001 68.6356Z" stroke="#FF8364" stroke-width="3.11" stroke-linecap="round" stroke-linejoin="round"/>
<path fill-rule="evenodd" clip-rule="evenodd" d="M40.8556 138.164C40.8556 137.343 41.0994 136.54 41.5562 135.858C42.0129 135.175 42.6622 134.643 43.4218 134.329C44.1814 134.015 45.0172 133.933 45.8236 134.093C46.6299 134.253 47.3706 134.648 47.952 135.229C48.5334 135.809 48.9293 136.549 49.0897 137.354C49.2501 138.159 49.1678 138.994 48.8531 139.752C48.5385 140.511 48.0057 141.159 47.3221 141.615C46.6385 142.071 45.8347 142.315 45.0126 142.315C43.9101 142.315 42.8527 141.877 42.0731 141.099C41.2936 140.32 40.8556 139.265 40.8556 138.164Z" fill="#FFD98E"/>
<path fill-rule="evenodd" clip-rule="evenodd" d="M134.906 271.146H162.704C162.704 271.146 162.834 299.822 162.704 311.11C162.704 315.765 134.915 315.229 134.915 311.11L134.906 271.146Z" fill="#D18C65"/>
<path fill-rule="evenodd" clip-rule="evenodd" d="M120.688 243.733C120.688 222.43 133.65 205.166 149.666 205.166C165.681 205.166 178.649 222.43 178.649 243.733C178.649 265.036 165.686 282.299 149.666 282.299C133.646 282.299 120.688 265.031 120.688 243.733Z" fill="#E49D75"/>
<path fill-rule="evenodd" clip-rule="evenodd" d="M165.315 202.399C157.953 219.479 127.451 236.159 114.604 240.059C112.575 229.865 125.721 186.42 165.315 202.399Z" fill="black"/>
<path fill-rule="evenodd" clip-rule="evenodd" d="M149.013 201.872C143.439 203.979 161.56 232.932 183.266 240.059C192.139 227.455 171.702 201.274 149.013 201.872Z" fill="black"/>
<path fill-rule="evenodd" clip-rule="evenodd" d="M190.449 7.9892C190.447 6.47561 190.895 4.99551 191.736 3.73621C192.577 2.4769 193.773 1.495 195.173 0.914752C196.573 0.334506 198.114 0.181997 199.601 0.476526C201.088 0.771056 202.454 1.49938 203.526 2.56934C204.598 3.6393 205.329 5.0028 205.624 6.48729C205.92 7.97178 205.768 9.51053 205.188 10.9088C204.608 12.3071 203.625 13.5021 202.365 14.3425C201.104 15.183 199.622 15.6311 198.106 15.6303C196.076 15.6303 194.129 14.8254 192.693 13.3925C191.257 11.9597 190.45 10.0161 190.449 7.9892Z" fill="#FFD98E"/>
<path d="M58.3865 209.022C58.3865 207.61 58.8059 206.229 59.5918 205.055C60.3776 203.88 61.4946 202.965 62.8014 202.425C64.1082 201.884 65.5462 201.743 66.9335 202.018C68.3208 202.294 69.5952 202.974 70.5954 203.973C71.5956 204.971 72.2767 206.244 72.5527 207.629C72.8286 209.014 72.687 210.45 72.1457 211.755C71.6044 213.06 70.6877 214.175 69.5116 214.96C68.3355 215.744 66.9528 216.163 65.5383 216.163C63.6415 216.163 61.8224 215.411 60.4812 214.072C59.14 212.732 58.3865 210.916 58.3865 209.022Z" stroke="#6BD5E1" stroke-width="3.11" stroke-linecap="round" stroke-linejoin="round"/>
<path d="M216.848 206.014C216.847 205.192 217.091 204.388 217.547 203.704C218.004 203.02 218.654 202.487 219.414 202.172C220.174 201.857 221.011 201.774 221.819 201.933C222.626 202.093 223.368 202.489 223.951 203.07C224.533 203.651 224.93 204.391 225.091 205.197C225.252 206.003 225.169 206.839 224.855 207.599C224.54 208.358 224.006 209.007 223.322 209.464C222.638 209.921 221.833 210.165 221.01 210.165C220.463 210.165 219.922 210.058 219.417 209.85C218.912 209.642 218.454 209.336 218.067 208.951C217.681 208.565 217.374 208.107 217.165 207.603C216.956 207.099 216.848 206.559 216.848 206.014V206.014Z" stroke="#FF8364" stroke-width="3.11" stroke-linecap="round" stroke-linejoin="round"/>
</svg>
