<svg width="30" height="30" viewBox="0 0 30 30" fill="none" xmlns="http://www.w3.org/2000/svg">
<circle cx="15" cy="15" r="15" fill="#E8F7F6"/>
<path d="M22.1824 16.3636L19.1991 10.5852C19.0576 10.3115 18.7057 10.0972 18.3977 10.0972H18.3718H17.7396H14.8292C14.821 10.0972 14.8132 10.0993 14.805 10.0997C14.7968 10.0993 14.7892 10.0972 14.7808 10.0972H11.9385C11.8225 10.0972 11.728 10.0027 11.728 9.88669V7.78942H12.1183C12.2505 8.22075 12.6479 8.53756 13.122 8.53756C13.7034 8.53756 14.1764 8.06455 14.1764 7.48313V6.83267C14.1764 6.25125 13.7034 5.77824 13.122 5.77824C12.6479 5.77824 12.2505 6.09484 12.1183 6.52638H9.81007C9.67788 6.09505 9.28044 5.77824 8.80638 5.77824C8.22496 5.77824 7.75195 6.25125 7.75195 6.83267V7.48313C7.75195 8.06455 8.22496 8.53756 8.80638 8.53756C9.28044 8.53756 9.67788 8.22096 9.81007 7.78942H10.2265V11.2024C10.2265 11.5505 10.5098 11.8339 10.858 11.8339H14.1977V17.158L13.0506 19.774C12.9176 20.0775 12.8132 20.5754 12.8132 20.9069V24.1984C12.8132 24.6162 13.1531 24.9562 13.571 24.9562H14.2345C14.6524 24.9562 14.9923 24.6162 14.9923 24.1984V20.9067C14.9923 20.6358 15.0906 20.2002 15.207 19.9554L16.2284 17.8074H16.9521L17.9944 19.9994C18.1108 20.244 18.2091 20.6796 18.2091 20.9505V24.242C18.2091 24.6598 18.549 24.9998 18.9669 24.9998H19.6304C20.0483 24.9998 20.3882 24.6598 20.3882 24.242V20.9505C20.3882 20.6192 20.2849 20.1215 20.1531 19.8173L19.0035 17.1664V14.1278L20.3581 16.8227C20.4834 17.0717 20.7732 17.2456 21.0631 17.2456C21.1052 17.2456 21.1469 17.2418 21.1877 17.2344L21.8134 17.1182C21.9881 17.0858 22.1289 16.9841 22.1994 16.8395C22.2702 16.6949 22.2641 16.5214 22.1824 16.3636Z" fill="#2D7992"/>
<path d="M16.6006 9.56209C17.8584 9.56209 18.8814 8.53882 18.8814 7.28105C18.8814 6.02327 17.8582 5 16.6006 5C15.3428 5 14.3193 6.02327 14.3193 7.28105C14.3193 8.53882 15.3428 9.56209 16.6006 9.56209Z" fill="#2D7992"/>
</svg>
