<svg width="74" height="74" viewBox="0 0 74 74" fill="none" xmlns="http://www.w3.org/2000/svg">
<path d="M63.4287 26.4286H60.7858V23.7857C60.7712 10.6553 50.1305 0.0145564 37.0001 0C23.8696 0.0145564 13.2289 10.6553 13.2144 23.7857V26.4286H10.5716C9.11196 26.4286 7.92871 27.6118 7.92871 29.0715V71.3571C7.92871 72.8168 9.11196 74 10.5716 74H63.4287C64.8883 74 66.0716 72.8168 66.0716 71.3571V29.0714C66.0716 27.6119 64.8883 26.4286 63.4287 26.4286ZM18.5002 23.7857C18.5002 13.5684 26.7829 5.28566 37.0002 5.28566C47.2175 5.28566 55.5001 13.5684 55.5001 23.7857V26.4286H18.5002V23.7857ZM60.7858 68.7142H13.2144V31.7143H60.7858V68.7142Z" fill="#8DAAA5"/>
<path d="M44.4758 44.9251C43.3591 41.7549 40.3611 39.6365 37 39.6428C32.6314 39.6346 29.0832 43.1693 29.075 47.5379C29.0686 50.8991 31.187 53.897 34.3572 55.0137V60.7858C34.3572 62.2454 35.5405 63.4287 37.0001 63.4287C38.4598 63.4287 39.6429 62.2453 39.6429 60.7856V55.0137C43.7634 53.5624 45.9272 49.0454 44.4758 44.9251ZM37 50.2143C35.5403 50.2143 34.3571 49.031 34.3571 47.5714C34.3571 46.1117 35.5403 44.9285 37 44.9285C38.4596 44.9285 39.6429 46.1117 39.6429 47.5714C39.6429 49.031 38.4596 50.2143 37 50.2143Z" fill="#8DAAA5"/>
</svg>
