<svg width="249" height="100" viewBox="0 0 249 100" fill="none" xmlns="http://www.w3.org/2000/svg">
<path d="M13.7417 58.8638V39.1838H28.4717V42.5138H17.2817V48.0638H27.3317V51.2138H17.2817V56.8238H28.8317V58.8638H31.7417V60.1538H10.8317V58.8638H13.7417ZM49.3606 58.8638V60.1538H30.4606V58.8638H34.3006C33.3406 58.3638 32.4606 57.7438 31.6606 57.0038L33.8806 54.3338C36.0006 56.1738 38.2006 57.0938 40.4806 57.0938C41.6206 57.0938 42.5206 56.8538 43.1806 56.3738C43.8606 55.8738 44.2006 55.2238 44.2006 54.4238C44.2006 53.6038 43.8806 52.9738 43.2406 52.5338C42.6206 52.0738 41.5406 51.6638 40.0006 51.3038C38.4606 50.9238 37.2906 50.5838 36.4906 50.2838C35.6906 49.9638 34.9806 49.5538 34.3606 49.0538C33.1206 48.1138 32.5006 46.6738 32.5006 44.7338C32.5006 42.7938 33.2006 41.3038 34.6006 40.2638C36.0206 39.2038 37.7706 38.6738 39.8506 38.6738C41.1906 38.6738 42.5206 38.8938 43.8406 39.3338C45.1606 39.7738 46.3006 40.3938 47.2606 41.1938L45.3706 43.8638C44.7506 43.3038 43.9106 42.8438 42.8506 42.4838C41.7906 42.1238 40.7406 41.9438 39.7006 41.9438C38.6806 41.9438 37.8406 42.1538 37.1806 42.5738C36.5206 42.9938 36.1906 43.6338 36.1906 44.4938C36.1906 45.3338 36.5206 45.9838 37.1806 46.4438C37.8406 46.8838 39.2406 47.3638 41.3806 47.8838C43.5406 48.4038 45.1606 49.1338 46.2406 50.0738C47.3406 51.0138 47.8906 52.3338 47.8906 54.0338C47.8906 56.0938 47.1306 57.7038 45.6106 58.8638H49.3606ZM68.2571 58.8638V60.1538H49.3571V58.8638H53.1971C52.2371 58.3638 51.3571 57.7438 50.5571 57.0038L52.7771 54.3338C54.8971 56.1738 57.0971 57.0938 59.3771 57.0938C60.5171 57.0938 61.4171 56.8538 62.0771 56.3738C62.7571 55.8738 63.0971 55.2238 63.0971 54.4238C63.0971 53.6038 62.7771 52.9738 62.1371 52.5338C61.5171 52.0738 60.4371 51.6638 58.8971 51.3038C57.3571 50.9238 56.1871 50.5838 55.3871 50.2838C54.5871 49.9638 53.8771 49.5538 53.2571 49.0538C52.0171 48.1138 51.3971 46.6738 51.3971 44.7338C51.3971 42.7938 52.0971 41.3038 53.4971 40.2638C54.9171 39.2038 56.6671 38.6738 58.7471 38.6738C60.0871 38.6738 61.4171 38.8938 62.7371 39.3338C64.0571 39.7738 65.1971 40.3938 66.1571 41.1938L64.2671 43.8638C63.6471 43.3038 62.8071 42.8438 61.7471 42.4838C60.6871 42.1238 59.6371 41.9438 58.5971 41.9438C57.5771 41.9438 56.7371 42.1538 56.0771 42.5738C55.4171 42.9938 55.0871 43.6338 55.0871 44.4938C55.0871 45.3338 55.4171 45.9838 56.0771 46.4438C56.7371 46.8838 58.1371 47.3638 60.2771 47.8838C62.4371 48.4038 64.0571 49.1338 65.1371 50.0738C66.2371 51.0138 66.7871 52.3338 66.7871 54.0338C66.7871 56.0938 66.0271 57.7038 64.5071 58.8638H68.2571ZM71.1636 58.8638V39.1838H85.8936V42.5138H74.7036V48.0638H84.7536V51.2138H74.7036V56.8238H86.2536V58.8638H89.1636V60.1538H68.2536V58.8638H71.1636ZM90.7925 58.8638V39.1838H94.3325L106.512 54.8438V39.1838H110.052V58.8638H112.962V60.1538H106.212L94.3325 44.8538V60.1538H87.8825V58.8638H90.7925ZM131.081 58.8638V60.1538H112.961V58.8638H120.251V42.4238H113.891V39.1838H130.151V42.4238H123.791V58.8638H131.081ZM133.976 58.8638V39.1838H137.516V58.8638H140.426V60.1538H131.066V58.8638H133.976ZM165.582 58.8638V60.1538H158.892L156.792 55.3838H146.292L144.192 60.1538H137.502V58.8638H140.982L149.652 39.1838H153.432L162.102 58.8638H165.582ZM155.352 52.1138L151.542 43.4738L147.732 52.1138H155.352ZM181.607 58.8638V60.1538H162.677V58.8638H165.587V39.1838H169.127V56.7938H178.697V58.8638H181.607ZM182.58 58.8638V39.1838H186.12V58.8638H189.03V60.1538H179.67V58.8638H182.58ZM207.915 58.8638V60.1538H189.015V58.8638H192.855C191.895 58.3638 191.015 57.7438 190.215 57.0038L192.435 54.3338C194.555 56.1738 196.755 57.0938 199.035 57.0938C200.175 57.0938 201.075 56.8538 201.735 56.3738C202.415 55.8738 202.755 55.2238 202.755 54.4238C202.755 53.6038 202.435 52.9738 201.795 52.5338C201.175 52.0738 200.095 51.6638 198.555 51.3038C197.015 50.9238 195.845 50.5838 195.045 50.2838C194.245 49.9638 193.535 49.5538 192.915 49.0538C191.675 48.1138 191.055 46.6738 191.055 44.7338C191.055 42.7938 191.755 41.3038 193.155 40.2638C194.575 39.2038 196.325 38.6738 198.405 38.6738C199.745 38.6738 201.075 38.8938 202.395 39.3338C203.715 39.7738 204.855 40.3938 205.815 41.1938L203.925 43.8638C203.305 43.3038 202.465 42.8438 201.405 42.4838C200.345 42.1238 199.295 41.9438 198.255 41.9438C197.235 41.9438 196.395 42.1538 195.735 42.5738C195.075 42.9938 194.745 43.6338 194.745 44.4938C194.745 45.3338 195.075 45.9838 195.735 46.4438C196.395 46.8838 197.795 47.3638 199.935 47.8838C202.095 48.4038 203.715 49.1338 204.795 50.0738C205.895 51.0138 206.445 52.3338 206.445 54.0338C206.445 56.0938 205.685 57.7038 204.165 58.8638H207.915ZM237.402 58.8638V60.1538H230.952V43.7738L223.632 58.3238H221.652L214.362 43.7738V60.1538H207.912V58.8638H210.822V39.1838H216.342L222.672 52.3538L229.002 39.1838H234.492V58.8638H237.402Z" fill="#2D7992"/>
<line x1="197.218" y1="39.1526" x2="225.111" y2="0.706405" stroke="#2D7992"/>
<line x1="32.9036" y1="63.9024" x2="1.24205" y2="99.3331" stroke="#2D7992"/>
</svg>
