<svg width="328" height="132" viewBox="0 0 328 132" fill="none" xmlns="http://www.w3.org/2000/svg">
<rect x="1.5" y="2.5" width="325" height="127" rx="4.5" stroke="#2D7992" stroke-width="3"/>
<path d="M16.3253 78.28V52.04H35.9653V56.48H21.0453V63.88H34.4453V68.08H21.0453V75.56H36.4453V78.28H40.3253V80H12.4453V78.28H16.3253ZM63.8172 78.28V80H38.6172V78.28H43.7372C42.4572 77.6133 41.2839 76.7867 40.2172 75.8L43.1772 72.24C46.0039 74.6933 48.9372 75.92 51.9772 75.92C53.4972 75.92 54.6972 75.6 55.5772 74.96C56.4839 74.2933 56.9372 73.4267 56.9372 72.36C56.9372 71.2667 56.5105 70.4267 55.6572 69.84C54.8305 69.2267 53.3905 68.68 51.3372 68.2C49.2839 67.6933 47.7239 67.24 46.6572 66.84C45.5905 66.4133 44.6439 65.8667 43.8172 65.2C42.1639 63.9467 41.3372 62.0267 41.3372 59.44C41.3372 56.8533 42.2705 54.8667 44.1372 53.48C46.0305 52.0667 48.3639 51.36 51.1372 51.36C52.9239 51.36 54.6972 51.6533 56.4572 52.24C58.2172 52.8267 59.7372 53.6533 61.0172 54.72L58.4972 58.28C57.6705 57.5333 56.5505 56.92 55.1372 56.44C53.7239 55.96 52.3239 55.72 50.9372 55.72C49.5772 55.72 48.4572 56 47.5772 56.56C46.6972 57.12 46.2572 57.9733 46.2572 59.12C46.2572 60.24 46.6972 61.1067 47.5772 61.72C48.4572 62.3067 50.3239 62.9467 53.1772 63.64C56.0572 64.3333 58.2172 65.3067 59.6572 66.56C61.1239 67.8133 61.8572 69.5733 61.8572 71.84C61.8572 74.5867 60.8439 76.7333 58.8172 78.28H63.8172ZM89.0125 78.28V80H63.8125V78.28H68.9325C67.6525 77.6133 66.4792 76.7867 65.4125 75.8L68.3725 72.24C71.1992 74.6933 74.1325 75.92 77.1725 75.92C78.6925 75.92 79.8925 75.6 80.7725 74.96C81.6792 74.2933 82.1325 73.4267 82.1325 72.36C82.1325 71.2667 81.7058 70.4267 80.8525 69.84C80.0258 69.2267 78.5858 68.68 76.5325 68.2C74.4792 67.6933 72.9192 67.24 71.8525 66.84C70.7858 66.4133 69.8392 65.8667 69.0125 65.2C67.3592 63.9467 66.5325 62.0267 66.5325 59.44C66.5325 56.8533 67.4658 54.8667 69.3325 53.48C71.2258 52.0667 73.5592 51.36 76.3325 51.36C78.1192 51.36 79.8925 51.6533 81.6525 52.24C83.4125 52.8267 84.9325 53.6533 86.2125 54.72L83.6925 58.28C82.8658 57.5333 81.7458 56.92 80.3325 56.44C78.9192 55.96 77.5192 55.72 76.1325 55.72C74.7725 55.72 73.6525 56 72.7725 56.56C71.8925 57.12 71.4525 57.9733 71.4525 59.12C71.4525 60.24 71.8925 61.1067 72.7725 61.72C73.6525 62.3067 75.5192 62.9467 78.3725 63.64C81.2525 64.3333 83.4125 65.3067 84.8525 66.56C86.3192 67.8133 87.0525 69.5733 87.0525 71.84C87.0525 74.5867 86.0392 76.7333 84.0125 78.28H89.0125ZM92.8878 78.28V52.04H112.528V56.48H97.6078V63.88H111.008V68.08H97.6078V75.56H113.008V78.28H116.888V80H89.0078V78.28H92.8878ZM119.06 78.28V52.04H123.78L140.02 72.92V52.04H144.74V78.28H148.62V80H139.62L123.78 59.6V80H115.18V78.28H119.06ZM172.777 78.28V80H148.617V78.28H158.337V56.36H149.857V52.04H171.537V56.36H163.057V78.28H172.777ZM176.638 78.28V52.04H181.358V78.28H185.238V80H172.758V78.28H176.638ZM218.779 78.28V80H209.859L207.059 73.64H193.059L190.259 80H181.339V78.28H185.979L197.539 52.04H202.579L214.139 78.28H218.779ZM205.139 69.28L200.059 57.76L194.979 69.28H205.139ZM240.146 78.28V80H214.906V78.28H218.786V52.04H223.506V75.52H236.266V78.28H240.146ZM241.443 78.28V52.04H246.163V78.28H250.043V80H237.562V78.28H241.443ZM275.223 78.28V80H250.023V78.28H255.143C253.863 77.6133 252.69 76.7867 251.623 75.8L254.583 72.24C257.41 74.6933 260.343 75.92 263.383 75.92C264.903 75.92 266.103 75.6 266.983 74.96C267.89 74.2933 268.343 73.4267 268.343 72.36C268.343 71.2667 267.917 70.4267 267.063 69.84C266.237 69.2267 264.797 68.68 262.743 68.2C260.69 67.6933 259.13 67.24 258.063 66.84C256.997 66.4133 256.05 65.8667 255.223 65.2C253.57 63.9467 252.743 62.0267 252.743 59.44C252.743 56.8533 253.677 54.8667 255.543 53.48C257.437 52.0667 259.77 51.36 262.543 51.36C264.33 51.36 266.103 51.6533 267.863 52.24C269.623 52.8267 271.143 53.6533 272.423 54.72L269.903 58.28C269.077 57.5333 267.957 56.92 266.543 56.44C265.13 55.96 263.73 55.72 262.343 55.72C260.983 55.72 259.863 56 258.983 56.56C258.103 57.12 257.663 57.9733 257.663 59.12C257.663 60.24 258.103 61.1067 258.983 61.72C259.863 62.3067 261.73 62.9467 264.583 63.64C267.463 64.3333 269.623 65.3067 271.063 66.56C272.53 67.8133 273.263 69.5733 273.263 71.84C273.263 74.5867 272.25 76.7333 270.223 78.28H275.223ZM314.539 78.28V80H305.939V58.16L296.179 77.56H293.539L283.819 58.16V80H275.219V78.28H279.099V52.04H286.459L294.899 69.6L303.339 52.04H310.659V78.28H314.539Z" fill="#2D7992"/>
<line x1="260.595" y1="51.7064" x2="297.595" y2="0.706388" stroke="#2D7992"/>
<line x1="42.3728" y1="84.3332" x2="0.372827" y2="131.333" stroke="#2D7992"/>
</svg>
