<svg width="30" height="30" viewBox="0 0 30 30" fill="none" xmlns="http://www.w3.org/2000/svg">
<circle cx="15" cy="15" r="15" fill="#E8F7F6"/>
<g clip-path="url(#clip0)">
<path d="M21.499 8.50098C21.383 8.38496 21.1949 8.38496 21.0789 8.50094L11.9352 17.6447C11.8191 17.7607 11.8191 17.9488 11.9352 18.0648C11.9931 18.1227 12.0692 18.1518 12.1452 18.1518C12.2212 18.1518 12.2972 18.1228 12.3552 18.0648L21.499 8.92102C21.615 8.80504 21.615 8.61695 21.499 8.50098Z" fill="#2A4D52"/>
<path d="M24.9279 7.73161C24.7007 6.36783 23.6317 5.29884 22.2679 5.07158C21.3037 4.91095 20.2919 5.02123 19.2607 5.39955C18.9995 5.4954 18.745 5.60626 18.4978 5.73064C18.4871 5.7354 18.4766 5.74072 18.4663 5.74681C16.844 6.57259 15.5468 7.9931 14.8409 9.74798C14.821 9.79739 14.8017 9.84669 14.783 9.89575C14.757 9.69634 14.7349 9.48095 14.7213 9.25689C14.7155 9.162 14.6699 9.07169 14.5908 9.01892C14.4678 8.93673 14.3093 8.957 14.2111 9.0581C13.6655 9.61982 13.1811 10.181 12.7489 10.7381C12.7388 10.7493 12.7295 10.7614 12.721 10.7743C10.4791 13.6775 9.65555 16.4631 9.02668 18.5912C8.56691 20.147 8.20375 21.3759 7.47887 22.1007C7.47883 22.1008 7.47879 22.1008 7.47875 22.1009L5.08652 24.4929C4.97051 24.6089 4.97051 24.797 5.08652 24.9129C5.14449 24.9709 5.22055 24.9999 5.29656 24.9999C5.37258 24.9999 5.44859 24.9709 5.5066 24.9129L7.89914 22.5204C8.62406 21.7957 9.85285 21.4325 11.4085 20.9729C12.9676 20.5121 14.9074 19.9388 16.9589 18.7841C17.0551 18.73 17.1204 18.6293 17.1198 18.5189C17.1189 18.3779 17.0209 18.2596 16.8871 18.2299C16.4812 18.1398 16.135 18.0384 15.8476 17.9394C16.1322 17.8973 16.4616 17.8334 16.8332 17.7374C18.9937 17.1793 20.9201 15.9647 22.4041 14.2248C22.5728 14.027 22.7423 13.8217 22.908 13.6146C23.0499 13.4373 23.1862 13.2584 23.3134 13.0828C23.4093 12.9505 23.3911 12.7615 23.2614 12.6622C23.128 12.56 22.9377 12.5886 22.8398 12.7239C22.7161 12.8952 22.5829 13.0701 22.4441 13.2435C22.1418 13.6213 21.7586 13.9271 21.3225 14.1369C19.177 15.169 17.3756 15.4465 17.3557 15.4495C17.1935 15.4735 17.0815 15.6245 17.1055 15.7867C17.1273 15.9343 17.2541 16.0404 17.3989 16.0404C17.4134 16.0404 17.428 16.0393 17.4427 16.0371C17.5166 16.0262 18.9135 15.8123 20.7402 15.05C19.5581 16.0552 18.1806 16.7758 16.6845 17.1622C15.3839 17.4981 14.6536 17.4101 14.6475 17.4093C14.5107 17.3907 14.3793 17.4685 14.3299 17.5973C14.2805 17.7261 14.3264 17.872 14.4405 17.9494C14.466 17.9667 14.9748 18.3063 16.0134 18.6169C14.2602 19.5106 12.6021 20.0006 11.24 20.4032C10.5858 20.5965 9.9866 20.7737 9.44973 20.9698L11.4042 19.0153C11.5223 18.8972 11.5202 18.7042 11.3977 18.5889C11.2793 18.4774 11.0903 18.4891 10.9753 18.6041L9.02965 20.5497C9.22574 20.0129 9.40285 19.4138 9.59617 18.7595C9.97738 17.4697 10.4094 16.0077 11.1636 14.4287C11.3738 13.9887 11.5998 13.561 11.8413 13.1436C11.5109 14.2205 11.3422 15.1091 11.34 15.7894C11.3395 15.9425 11.4484 16.0795 11.6004 16.0976C11.7807 16.1191 11.934 15.9788 11.934 15.8027C11.934 14.8177 12.3403 13.4553 12.6997 12.443C13.0254 11.5254 13.5246 10.6781 14.1799 9.95798C14.1833 9.95427 14.1867 9.95048 14.1902 9.94677C14.2846 10.6868 14.432 11.2207 14.4398 11.2491C14.477 11.3824 14.6014 11.472 14.7396 11.4659C14.8779 11.4595 14.9934 11.3585 15.0182 11.2224C15.0895 10.8303 15.2152 10.4088 15.3918 9.96974C15.7997 8.95564 16.4209 8.06294 17.1946 7.35005C16.6689 8.22853 16.3913 9.1079 16.3893 9.91294C16.3889 10.0644 16.4996 10.1988 16.6499 10.2167C16.8302 10.2381 16.9834 10.0978 16.9834 9.92181C16.9834 8.66056 17.7655 7.4688 18.3097 6.79228C18.6115 6.4172 19.0065 6.12619 19.4582 5.95986C19.4605 5.95904 19.4629 5.95814 19.4651 5.95732C20.3984 5.6149 21.3086 5.51408 22.17 5.65763C23.2834 5.84318 24.1562 6.71591 24.3417 7.82931C24.5507 9.08325 24.2416 10.4298 23.423 11.8316C23.3333 11.9853 23.3971 12.1863 23.5678 12.2567C23.7061 12.3138 23.8647 12.2536 23.94 12.1243C24.8277 10.6018 25.1599 9.124 24.9279 7.73161Z" fill="#2A4D52"/>
</g>
<defs>
<clipPath id="clip0">
<rect width="20" height="20" fill="white" transform="translate(5 5)"/>
</clipPath>
</defs>
</svg>
