<svg width="300" height="152" viewBox="0 0 300 152" fill="none" xmlns="http://www.w3.org/2000/svg">
<g clip-path="url(#clip0)">
<path d="M292.122 152C319.606 111.154 266.89 90.2344 260.105 133.367C259.761 127.801 259.397 122.145 257.197 116.887C253.854 105.979 235.694 98.0743 227.02 109.116C222.434 115.958 228.515 125.556 223.242 132.039C219.916 115.722 191.718 119.55 194.687 135.922C196.916 143.787 206.807 148.365 214.702 151.923L292.122 152Z" fill="#F2F2F2"/>
<path d="M198.726 126.038C212.677 129.842 230.112 136.249 231.527 150.253C231.567 150.808 232.601 150.812 232.561 150.252C232.199 145.308 229.331 140.783 225.359 137.204C221.005 133.28 215.362 130.6 209.536 128.521C208.398 128.3 196.541 123.587 198.726 126.038Z" fill="white"/>
<path d="M233.974 105.556C243.629 119.102 248.223 134.771 247.161 150.534C247.123 151.093 248.157 151.091 248.195 150.534C249.018 138.144 246.392 125.763 240.525 114.375C239.866 113.356 234.55 102.622 233.974 105.556V105.556Z" fill="white"/>
<path d="M284.571 110.545C277.764 123.403 273.551 137.122 272.104 151.141C272.046 151.698 273.08 151.695 273.138 151.141C274.264 140.331 277.044 129.688 281.411 119.476C281.399 118.338 287.357 109.106 284.571 110.545V110.545Z" fill="white"/>
<path d="M164.823 151.297C172.691 139.605 157.6 133.616 155.658 145.964C155.559 144.37 155.455 142.751 154.825 141.246C153.869 138.123 148.67 135.861 146.187 139.022C144.874 140.98 146.615 143.728 145.105 145.583C144.153 140.913 136.081 142.008 136.931 146.695C137.569 148.947 140.401 150.257 142.661 151.275L164.823 151.297Z" fill="#F2F2F2"/>
<path d="M138.087 143.866C142.081 144.954 147.072 146.789 147.477 150.797C147.489 150.956 147.785 150.957 147.773 150.797C147.621 149.389 146.892 148.069 145.712 147.062C144.425 145.977 142.882 145.13 141.182 144.576C140.856 144.513 137.462 143.164 138.087 143.866Z" fill="white"/>
<path d="M148.178 138.002C150.942 141.88 152.257 146.365 151.953 150.878C151.942 151.038 152.238 151.037 152.249 150.878C152.484 147.331 151.733 143.787 150.053 140.527C149.864 140.235 148.343 137.163 148.178 138.002V138.002Z" fill="white"/>
<path d="M162.662 139.431C160.713 143.111 159.507 147.038 159.093 151.052C159.076 151.211 159.372 151.21 159.389 151.052C159.711 147.957 160.507 144.911 161.757 141.987C161.754 141.661 163.459 139.019 162.662 139.431V139.431Z" fill="white"/>
<path d="M114.393 6.43005H0.402793C0.295966 6.43005 0.193513 6.3944 0.117975 6.33093C0.0424367 6.26746 0 6.18138 0 6.09163C0 6.00187 0.0424367 5.91579 0.117975 5.85233C0.193513 5.78886 0.295966 5.7532 0.402793 5.7532H114.393C114.5 5.7532 114.603 5.78886 114.678 5.85233C114.754 5.91579 114.796 6.00187 114.796 6.09163C114.796 6.18138 114.754 6.26746 114.678 6.33093C114.603 6.3944 114.5 6.43005 114.393 6.43005Z" fill="#3F3D56"/>
<path d="M90.9505 11.5064C94.7323 11.5064 97.798 8.93061 97.798 5.7532C97.798 2.5758 94.7323 0 90.9505 0C87.1687 0 84.103 2.5758 84.103 5.7532C84.103 8.93061 87.1687 11.5064 90.9505 11.5064Z" fill="#2D7992"/>
<path d="M114.393 28.0892H0.402793C0.295966 28.0892 0.193513 28.0535 0.117975 27.9901C0.0424367 27.9266 0 27.8405 0 27.7507C0 27.661 0.0424367 27.5749 0.117975 27.5114C0.193513 27.448 0.295966 27.4123 0.402793 27.4123H114.393C114.5 27.4123 114.603 27.448 114.678 27.5114C114.754 27.5749 114.796 27.661 114.796 27.7507C114.796 27.8405 114.754 27.9266 114.678 27.9901C114.603 28.0535 114.5 28.0892 114.393 28.0892Z" fill="#3F3D56"/>
<path d="M27.3089 33.1655C31.0907 33.1655 34.1564 30.5897 34.1564 27.4123C34.1564 24.2349 31.0907 21.6591 27.3089 21.6591C23.5271 21.6591 20.4614 24.2349 20.4614 27.4123C20.4614 30.5897 23.5271 33.1655 27.3089 33.1655Z" fill="#2D7992"/>
<path d="M114.393 49.7483H0.402793C0.295966 49.7483 0.193513 49.7126 0.117975 49.6492C0.0424367 49.5857 0 49.4996 0 49.4099C0 49.3201 0.0424367 49.234 0.117975 49.1706C0.193513 49.1071 0.295966 49.0714 0.402793 49.0714H114.393C114.5 49.0714 114.603 49.1071 114.678 49.1706C114.754 49.234 114.796 49.3201 114.796 49.4099C114.796 49.4996 114.754 49.5857 114.678 49.6492C114.603 49.7126 114.5 49.7483 114.393 49.7483Z" fill="#3F3D56"/>
<path d="M54.2962 54.8246C58.078 54.8246 61.1437 52.2489 61.1437 49.0714C61.1437 45.894 58.078 43.3182 54.2962 43.3182C50.5145 43.3182 47.4487 45.894 47.4487 49.0714C47.4487 52.2489 50.5145 54.8246 54.2962 54.8246Z" fill="#2D7992"/>
<path d="M166.581 53.1889C166.722 53.3501 166.849 53.5205 166.958 53.6984L188.188 55.704L191.276 52.199L198.18 55.4228L192.102 63.9366L166.093 58.2015C165.431 58.7361 164.591 59.0887 163.685 59.2125C162.779 59.3363 161.849 59.2253 161.02 58.8944C160.19 58.5635 159.501 58.0283 159.042 57.36C158.584 56.6917 158.378 55.9219 158.453 55.1531C158.528 54.3843 158.88 53.6528 159.461 53.056C160.043 52.4592 160.827 52.0254 161.71 51.8121C162.592 51.5989 163.531 51.6164 164.401 51.8624C165.271 52.1083 166.031 52.571 166.581 53.1889V53.1889Z" fill="#FFB8B8"/>
<path d="M196.672 58.4719C196.501 58.4088 196.341 58.3253 196.199 58.224L187.666 52.1849C187.461 52.0398 187.294 51.8605 187.176 51.6583C187.057 51.4561 186.99 51.2356 186.978 51.0105C186.967 50.7854 187.011 50.5607 187.108 50.3506C187.205 50.1405 187.352 49.9497 187.542 49.79L195.284 43.2578C195.609 42.9812 196.042 42.812 196.503 42.7811C196.965 42.7503 197.424 42.8598 197.797 43.0897L203.652 46.6621C204.018 46.8852 204.279 47.2085 204.391 47.5762C204.503 47.9439 204.458 48.3329 204.266 48.6761L199.2 57.6746C198.984 58.0574 198.6 58.3547 198.128 58.5035C197.656 58.6523 197.134 58.641 196.672 58.4719H196.672Z" fill="#6C63FF"/>
<path d="M229.951 143.883L224.855 145.048L217.082 129.088L224.603 127.368L229.951 143.883Z" fill="#FFB8B8"/>
<path d="M220.417 144.748L230.647 142.409L232.331 147.608L216.315 151.27L216.206 150.932C215.788 149.643 215.997 148.267 216.787 147.107C217.577 145.947 218.883 145.099 220.417 144.748V144.748Z" fill="#2F2E41"/>
<path d="M186.386 147.15L181.105 147.15L178.593 130.035L186.388 130.035L186.386 147.15Z" fill="#FFB8B8"/>
<path d="M176.916 145.882H187.518V151.27H170.92V150.92C170.92 149.584 171.552 148.303 172.676 147.358C173.801 146.413 175.326 145.882 176.916 145.882V145.882Z" fill="#2F2E41"/>
<path d="M201.824 31.5433C205.956 28.0717 205.956 22.4432 201.824 18.9716C197.692 15.5001 190.993 15.5001 186.861 18.9716C182.729 22.4432 182.729 28.0717 186.861 31.5433C190.993 35.0149 197.692 35.0149 201.824 31.5433Z" fill="#FFB8B8"/>
<path d="M186.063 134.947H178.846C178.353 134.947 177.878 134.788 177.518 134.504C177.159 134.221 176.941 133.833 176.909 133.419C174.759 104.695 176.017 84.091 180.868 68.5769C180.889 68.509 180.916 68.4423 180.947 68.3772L181.333 67.5653C181.476 67.2624 181.724 67.0027 182.045 66.82C182.366 66.6374 182.745 66.5403 183.133 66.5413H197.974C198.254 66.5411 198.53 66.5919 198.784 66.6901C199.038 66.7882 199.264 66.9315 199.446 67.11L201.462 69.0862C201.501 69.1247 201.538 69.164 201.573 69.2053C210.663 79.8556 218.809 100.677 228.244 128.664C228.383 129.07 228.328 129.507 228.09 129.88C227.852 130.253 227.45 130.533 226.97 130.66L219.213 132.746C218.768 132.863 218.287 132.843 217.858 132.688C217.43 132.533 217.081 132.254 216.876 131.902L196.749 96.8273C196.609 96.5822 196.378 96.3817 196.091 96.2554C195.804 96.1292 195.476 96.084 195.156 96.1264C194.836 96.1689 194.541 96.2968 194.314 96.4912C194.087 96.6856 193.941 96.9362 193.897 97.2059L187.984 133.539C187.919 133.929 187.689 134.286 187.336 134.544C186.983 134.803 186.531 134.946 186.063 134.947V134.947Z" fill="#2F2E41"/>
<path d="M200.648 69.2307C200.628 69.2307 200.608 69.2304 200.587 69.23L182.56 68.7518C182.096 68.7409 181.653 68.5904 181.311 68.3276C180.968 68.0649 180.75 67.7075 180.695 67.3207C178.41 51.7786 184.677 47.6149 187.478 46.5464C187.712 46.4577 187.915 46.3197 188.067 46.1457C188.219 45.9718 188.314 45.7678 188.345 45.5536L188.587 43.9245C188.629 43.6368 188.761 43.3637 188.97 43.1335C193.361 38.3541 199.358 36.8236 202.541 36.3369C202.799 36.2979 203.064 36.3035 203.32 36.3531C203.575 36.4028 203.816 36.4956 204.028 36.626C204.239 36.7563 204.417 36.9214 204.55 37.1112C204.684 37.301 204.77 37.5116 204.803 37.7302L205.166 40.0694C205.203 40.2925 205.309 40.5036 205.473 40.6816C214.631 50.7405 204.429 65.5926 202.291 68.4676C202.116 68.7011 201.874 68.8935 201.586 69.027C201.299 69.1604 200.976 69.2305 200.648 69.2307Z" fill="#009DE9"/>
<path d="M198.967 91.3217C199.521 90.9953 199.983 90.5708 200.321 90.0782C200.658 89.5856 200.863 89.0367 200.921 88.4704C200.979 87.904 200.888 87.3339 200.655 86.8002C200.422 86.2665 200.053 85.7822 199.573 85.3814L202.922 51.4059L192.952 52.5583L192.762 85.5686C192.014 86.2903 191.607 87.2175 191.618 88.1745C191.63 89.1314 192.058 90.0517 192.823 90.7608C193.588 91.47 194.636 91.9187 195.768 92.0221C196.901 92.1255 198.039 91.8763 198.967 91.3217H198.967Z" fill="#FFB8B8"/>
<path d="M203.573 56.2982C203.386 56.2982 203.2 56.2756 203.021 56.2311L192.318 53.5862C192.061 53.5226 191.822 53.4149 191.617 53.2699C191.412 53.1248 191.245 52.9456 191.126 52.7435C191.008 52.5413 190.94 52.3208 190.929 52.0957C190.917 51.8706 190.961 51.6459 191.058 51.4358L195.018 42.8384C195.184 42.4753 195.499 42.1742 195.906 41.99C196.314 41.8059 196.786 41.7509 197.238 41.8353L204.309 43.1268C204.751 43.2076 205.145 43.4153 205.423 43.714C205.702 44.0128 205.847 44.3839 205.835 44.7633L205.506 54.7137C205.492 55.1371 205.282 55.5392 204.922 55.835C204.561 56.1307 204.077 56.2969 203.573 56.2983V56.2982Z" fill="#009DE9"/>
<path d="M292.837 151.952H139.373C139.266 151.952 139.164 151.917 139.088 151.853C139.013 151.79 138.97 151.704 138.97 151.614C138.97 151.524 139.013 151.438 139.088 151.375C139.164 151.311 139.266 151.275 139.373 151.275H292.837C292.944 151.275 293.046 151.311 293.122 151.375C293.198 151.438 293.24 151.524 293.24 151.614C293.24 151.704 293.198 151.79 293.122 151.853C293.046 151.917 292.944 151.952 292.837 151.952Z" fill="#3F3D56"/>
<path d="M205.983 19.7289C205.197 17.7273 204.617 15.6729 204.249 13.588C204.134 12.3743 204.504 11.0683 205.556 10.2308C207.525 8.66353 210.87 9.41001 212.929 10.8933C215.905 13.0369 217.389 16.3313 217.95 19.5908C218.51 22.8502 218.264 26.1648 218.399 29.4562C218.534 32.7476 219.094 36.1319 221.091 38.9657C223.088 41.7995 226.794 43.9747 230.704 43.7336C232.282 43.6619 233.78 43.1284 234.939 42.2257C235.507 41.7711 235.938 41.2085 236.195 40.5852C236.451 39.9618 236.526 39.2958 236.413 38.6431C238.411 41.6491 237.398 45.7233 234.418 48.0864C231.438 50.4495 226.854 51.1175 222.936 50.1086C219.018 49.0997 215.793 46.5698 213.867 43.5308C211.941 40.4918 211.235 36.9812 211.337 33.5393C211.416 30.8962 211.951 28.2314 211.419 25.6254C210.887 23.0195 208.946 20.3735 205.885 19.7598L205.983 19.7289Z" fill="#2F2E41"/>
<path d="M192.237 23.155C191.716 24.6197 189.719 25.523 187.924 25.2752C186.128 25.0275 184.651 23.785 184.106 22.3264C183.612 20.8366 183.814 19.2449 184.67 17.8759C185.142 17.0554 185.802 16.3211 186.612 15.715C187.421 15.1089 188.366 14.643 189.39 14.3438C190.42 14.057 191.517 13.9824 192.589 14.1262C193.661 14.2701 194.676 14.6283 195.548 15.1706C195.641 14.8416 195.837 14.5393 196.115 14.2948C196.393 14.0504 196.744 13.8727 197.131 13.78C197.91 13.6035 198.733 13.6137 199.506 13.8094C201.733 14.3427 203.663 15.5223 204.953 17.1386C206.226 18.7499 207.068 20.5739 207.421 22.485C208.029 25.351 207.805 28.4827 205.889 30.9083C203.973 33.3339 200.054 34.7662 196.874 33.6097C196.676 32.7581 197.146 31.9006 197.689 31.1627C198.232 30.4247 198.876 29.7059 199.085 28.856C199.294 28.0062 198.894 26.9666 197.915 26.6887C197.081 26.4516 196.191 26.8357 195.311 26.8821C194.812 26.9085 194.313 26.824 193.865 26.6372C193.417 26.4505 193.035 26.1679 192.757 25.818C192.48 25.468 192.317 25.063 192.285 24.6434C192.253 24.2239 192.353 23.8046 192.574 23.4277L192.237 23.155Z" fill="#2F2E41"/>
</g>
<defs>
<clipPath id="clip0">
<rect width="300" height="152" fill="white"/>
</clipPath>
</defs>
</svg>
