<svg width="321" height="194" viewBox="0 0 321 194" fill="none" xmlns="http://www.w3.org/2000/svg">
<g clip-path="url(#clip0)">
<path d="M312.57 194C341.978 141.867 285.573 115.168 278.313 170.219C277.945 163.114 277.555 155.896 275.2 149.185C271.624 135.262 252.192 125.174 242.911 139.267C238.004 147.999 244.511 160.249 238.869 168.524C235.31 147.698 205.138 152.584 208.315 173.479C210.7 183.518 221.283 189.36 229.731 193.902L312.57 194Z" fill="#F2F2F2"/>
<path d="M212.636 160.865C227.564 165.719 246.22 173.896 247.733 191.77C247.777 192.478 248.883 192.483 248.839 191.77C248.453 185.458 245.384 179.683 241.134 175.115C236.475 170.108 230.437 166.687 224.204 164.034C222.985 163.751 210.299 157.736 212.636 160.865Z" fill="white"/>
<path d="M250.352 134.723C260.683 152.011 265.598 172.01 264.462 192.13C264.421 192.842 265.528 192.84 265.568 192.13C266.449 176.316 263.639 160.514 257.361 145.978C256.656 144.677 250.968 130.978 250.352 134.723V134.723Z" fill="white"/>
<path d="M304.491 141.091C297.208 157.501 292.7 175.011 291.151 192.904C291.09 193.615 292.196 193.61 292.258 192.904C293.462 179.107 296.438 165.523 301.11 152.489C301.097 151.037 307.473 139.254 304.491 141.091V141.091Z" fill="white"/>
<path d="M176.361 193.103C184.779 178.18 168.632 170.537 166.554 186.296C166.449 184.262 166.337 182.196 165.663 180.274C164.64 176.289 159.077 173.401 156.42 177.435C155.016 179.935 156.878 183.442 155.263 185.811C154.244 179.849 145.607 181.247 146.517 187.229C147.199 190.103 150.229 191.775 152.647 193.075L176.361 193.103Z" fill="#F2F2F2"/>
<path d="M147.753 183.618C152.027 185.008 157.367 187.348 157.8 192.465C157.813 192.668 158.129 192.669 158.117 192.465C157.954 190.668 157.174 188.983 155.911 187.697C154.535 186.312 152.884 185.231 151.065 184.525C150.716 184.444 147.084 182.723 147.753 183.618Z" fill="white"/>
<path d="M158.55 176.135C161.507 181.084 162.914 186.808 162.589 192.568C162.577 192.772 162.894 192.771 162.906 192.568C163.158 188.041 162.353 183.518 160.556 179.357C160.355 178.984 158.726 175.063 158.55 176.135V176.135Z" fill="white"/>
<path d="M174.048 177.958C171.963 182.655 170.673 187.668 170.229 192.79C170.212 192.993 170.528 192.992 170.546 192.79C170.891 188.84 171.743 184.952 173.08 181.22C173.076 180.805 174.901 177.432 174.048 177.958V177.958Z" fill="white"/>
<path d="M122.401 8.20677H0.430989C0.316683 8.20677 0.207059 8.16126 0.126233 8.08026C0.0454073 7.99925 0 7.88939 0 7.77483C0 7.66027 0.0454073 7.55041 0.126233 7.46941C0.207059 7.3884 0.316683 7.3429 0.430989 7.3429H122.401C122.515 7.3429 122.625 7.3884 122.706 7.46941C122.786 7.55041 122.832 7.66027 122.832 7.77483C122.832 7.88939 122.786 7.99925 122.706 8.08026C122.625 8.16126 122.515 8.20677 122.401 8.20677Z" fill="#3F3D56"/>
<path d="M97.317 14.6858C101.364 14.6858 104.644 11.3983 104.644 7.34291C104.644 3.28753 101.364 0 97.317 0C93.2706 0 89.9902 3.28753 89.9902 7.34291C89.9902 11.3983 93.2706 14.6858 97.317 14.6858Z" fill="#2D7992"/>
<path d="M122.401 35.8507H0.430989C0.316683 35.8507 0.207059 35.8052 0.126233 35.7242C0.0454073 35.6431 0 35.5333 0 35.4187C0 35.3042 0.0454073 35.1943 0.126233 35.1133C0.207059 35.0323 0.316683 34.9868 0.430989 34.9868H122.401C122.515 34.9868 122.625 35.0323 122.706 35.1133C122.786 35.1943 122.832 35.3042 122.832 35.4187C122.832 35.5333 122.786 35.6431 122.706 35.7242C122.625 35.8052 122.515 35.8507 122.401 35.8507Z" fill="#3F3D56"/>
<path d="M29.2208 42.3297C33.2673 42.3297 36.5477 39.0422 36.5477 34.9868C36.5477 30.9314 33.2673 27.6439 29.2208 27.6439C25.1744 27.6439 21.894 30.9314 21.894 34.9868C21.894 39.0422 25.1744 42.3297 29.2208 42.3297Z" fill="#2D7992"/>
<path d="M122.401 63.4945H0.430989C0.316683 63.4945 0.207059 63.449 0.126233 63.368C0.0454073 63.287 0 63.1772 0 63.0626C0 62.9481 0.0454073 62.8382 0.126233 62.7572C0.207059 62.6762 0.316683 62.6307 0.430989 62.6307H122.401C122.515 62.6307 122.625 62.6762 122.706 62.7572C122.786 62.8382 122.832 62.9481 122.832 63.0626C122.832 63.1772 122.786 63.287 122.706 63.368C122.625 63.449 122.515 63.4945 122.401 63.4945Z" fill="#3F3D56"/>
<path d="M58.0968 69.9736C62.1433 69.9736 65.4236 66.686 65.4236 62.6307C65.4236 58.5753 62.1433 55.2878 58.0968 55.2878C54.0503 55.2878 50.77 58.5753 50.77 62.6307C50.77 66.686 54.0503 69.9736 58.0968 69.9736Z" fill="#2D7992"/>
<path d="M178.241 67.8858C178.393 68.0916 178.528 68.3091 178.645 68.5361L201.361 71.096L204.665 66.6225L212.053 70.737L205.549 81.6033L177.719 74.2835C177.011 74.9658 176.112 75.4159 175.142 75.5739C174.173 75.7319 173.178 75.5903 172.291 75.1679C171.403 74.7455 170.665 74.0625 170.175 73.2095C169.684 72.3565 169.464 71.374 169.544 70.3928C169.625 69.4115 170.001 68.4779 170.623 67.7162C171.246 66.9545 172.085 66.4008 173.029 66.1287C173.973 65.8565 174.977 65.8789 175.909 66.1928C176.84 66.5066 177.653 67.0972 178.241 67.8858V67.8858Z" fill="#FFB8B8"/>
<path d="M210.439 74.6286C210.256 74.548 210.085 74.4415 209.933 74.3122L200.803 66.6044C200.583 66.4192 200.405 66.1903 200.278 65.9323C200.151 65.6743 200.079 65.3928 200.067 65.1055C200.054 64.8182 200.101 64.5314 200.205 64.2633C200.309 63.9952 200.467 63.7515 200.67 63.5478L208.954 55.2106C209.302 54.8576 209.765 54.6417 210.259 54.6023C210.752 54.5629 211.243 54.7026 211.643 54.996L217.908 59.5556C218.299 59.8403 218.578 60.253 218.698 60.7223C218.818 61.1915 218.771 61.688 218.564 62.126L213.144 73.611C212.913 74.0996 212.502 74.4791 211.997 74.669C211.492 74.8589 210.933 74.8444 210.439 74.6286H210.439Z" fill="#6C63FF"/>
<path d="M246.048 183.64L240.595 185.127L232.278 164.757L240.325 162.562L246.048 183.64Z" fill="#FFB8B8"/>
<path d="M235.846 184.744L246.792 181.759L248.594 188.395L231.457 193.068L231.34 192.637C230.893 190.991 231.117 189.235 231.962 187.755C232.807 186.275 234.204 185.192 235.846 184.744V184.744Z" fill="#2F2E41"/>
<path d="M199.434 187.81L193.783 187.81L191.095 165.966L199.435 165.966L199.434 187.81Z" fill="#FFB8B8"/>
<path d="M189.3 186.192H200.644V193.069H182.884V192.622C182.884 190.917 183.56 189.281 184.764 188.075C185.967 186.869 187.599 186.192 189.3 186.192V186.192Z" fill="#2F2E41"/>
<path d="M215.951 40.2592C220.373 35.8284 220.373 28.6446 215.951 24.2138C211.53 19.783 204.362 19.783 199.941 24.2138C195.52 28.6446 195.52 35.8284 199.941 40.2592C204.362 44.6901 211.53 44.6901 215.951 40.2592Z" fill="#FFB8B8"/>
<path d="M199.088 172.235H191.365C190.837 172.234 190.33 172.032 189.945 171.67C189.56 171.308 189.327 170.813 189.293 170.285C186.992 133.624 188.338 107.327 193.529 87.5257C193.552 87.4391 193.58 87.354 193.613 87.2708L194.027 86.2346C194.179 85.8481 194.445 85.5166 194.788 85.2835C195.132 85.0504 195.538 84.9264 195.953 84.9277H211.833C212.132 84.9275 212.428 84.9923 212.699 85.1176C212.971 85.2429 213.213 85.4257 213.407 85.6536L215.564 88.1758C215.606 88.225 215.646 88.275 215.684 88.3278C225.41 101.921 234.126 128.496 244.221 164.215C244.37 164.735 244.311 165.291 244.056 165.767C243.802 166.243 243.371 166.601 242.858 166.764L234.559 169.425C234.082 169.576 233.568 169.55 233.109 169.352C232.65 169.154 232.277 168.798 232.058 168.348L210.522 123.582C210.371 123.269 210.124 123.013 209.817 122.852C209.51 122.691 209.159 122.633 208.817 122.688C208.475 122.742 208.159 122.905 207.916 123.153C207.674 123.401 207.517 123.721 207.47 124.065L201.143 170.438C201.073 170.935 200.827 171.391 200.45 171.721C200.072 172.051 199.589 172.234 199.088 172.235V172.235Z" fill="#2F2E41"/>
<path d="M214.694 88.3603C214.672 88.3603 214.651 88.3598 214.629 88.3594L195.34 87.749C194.844 87.7351 194.369 87.543 194.003 87.2076C193.637 86.8723 193.403 86.4162 193.344 85.9224C190.899 66.0859 197.605 60.7717 200.602 59.408C200.852 59.2947 201.069 59.1185 201.232 58.8965C201.394 58.6745 201.497 58.4142 201.53 58.1408L201.789 56.0616C201.833 55.6944 201.975 55.3458 202.199 55.052C206.897 48.9519 213.313 46.9986 216.719 46.3774C216.996 46.3276 217.279 46.3347 217.552 46.3981C217.826 46.4615 218.084 46.58 218.31 46.7463C218.536 46.9126 218.727 47.1233 218.869 47.3656C219.012 47.6079 219.104 47.8767 219.14 48.1557L219.528 51.1412C219.568 51.426 219.681 51.6954 219.857 51.9226C229.656 64.7609 218.739 83.7169 216.452 87.3863C216.265 87.6843 216.005 87.9299 215.698 88.1002C215.391 88.2705 215.045 88.36 214.694 88.3603Z" fill="#009DE9"/>
<path d="M212.895 116.555C213.487 116.139 213.982 115.597 214.343 114.968C214.704 114.339 214.923 113.639 214.985 112.916C215.047 112.193 214.95 111.466 214.701 110.784C214.452 110.103 214.056 109.485 213.543 108.974L217.126 65.6102L206.458 67.081L206.255 109.212C205.455 110.134 205.019 111.317 205.031 112.538C205.044 113.76 205.502 114.934 206.321 115.839C207.139 116.745 208.26 117.317 209.472 117.449C210.684 117.581 211.901 117.263 212.895 116.555H212.895Z" fill="#FFB8B8"/>
<path d="M217.823 71.8543C217.623 71.8543 217.424 71.8254 217.233 71.7686L205.78 68.3929C205.505 68.3118 205.25 68.1743 205.03 67.9892C204.811 67.804 204.632 67.5753 204.505 67.3173C204.378 67.0593 204.306 66.7778 204.294 66.4905C204.281 66.2032 204.328 65.9164 204.431 65.6483L208.67 54.6753C208.846 54.2118 209.184 53.8275 209.62 53.5925C210.056 53.3575 210.561 53.2874 211.045 53.395L218.611 55.0434C219.083 55.1465 219.505 55.4116 219.803 55.7929C220.101 56.1742 220.257 56.6479 220.243 57.1321L219.891 69.832C219.876 70.3723 219.652 70.8856 219.266 71.263C218.88 71.6405 218.362 71.8526 217.823 71.8543V71.8543Z" fill="#009DE9"/>
<path d="M313.335 193.939H149.129C149.014 193.939 148.905 193.894 148.824 193.813C148.743 193.732 148.698 193.622 148.698 193.507C148.698 193.393 148.743 193.283 148.824 193.202C148.905 193.121 149.014 193.075 149.129 193.075H313.335C313.45 193.075 313.559 193.121 313.64 193.202C313.721 193.283 313.766 193.393 313.766 193.507C313.766 193.622 313.721 193.732 313.64 193.813C313.559 193.894 313.45 193.939 313.335 193.939Z" fill="#3F3D56"/>
<path d="M220.402 25.1802C219.562 22.6257 218.941 20.0035 218.547 17.3426C218.423 15.7935 218.819 14.1266 219.945 13.0577C222.052 11.0574 225.631 12.0101 227.834 13.9033C231.018 16.6392 232.606 20.8439 233.206 25.004C233.806 29.1641 233.542 33.3945 233.687 37.5954C233.831 41.7963 234.431 46.1157 236.568 49.7326C238.705 53.3494 242.67 56.1256 246.853 55.8178C248.542 55.7264 250.145 55.0455 251.385 53.8933C251.993 53.3131 252.454 52.595 252.729 51.7995C253.003 51.0039 253.083 50.1539 252.963 49.3208C255.1 53.1575 254.017 58.3573 250.828 61.3734C247.639 64.3895 242.734 65.2421 238.542 63.9544C234.349 62.6666 230.899 59.4378 228.838 55.5591C226.777 51.6804 226.022 47.1997 226.131 42.8067C226.215 39.4332 226.788 36.0322 226.219 32.7061C225.65 29.3801 223.573 26.003 220.298 25.2197L220.402 25.1802Z" fill="#2F2E41"/>
<path d="M205.694 29.5531C205.136 31.4226 203 32.5753 201.079 32.2592C199.157 31.943 197.577 30.3572 196.993 28.4955C196.466 26.5941 196.682 24.5625 197.597 22.8153C198.102 21.7681 198.808 20.8309 199.675 20.0573C200.541 19.2838 201.551 18.6891 202.648 18.3073C203.75 17.9412 204.924 17.8459 206.071 18.0296C207.217 18.2132 208.303 18.6703 209.237 19.3625C209.336 18.9425 209.546 18.5567 209.843 18.2447C210.141 17.9327 210.516 17.7059 210.93 17.5876C211.764 17.3623 212.645 17.3753 213.472 17.6252C215.855 18.3058 217.92 19.8114 219.3 21.8743C220.662 23.9308 221.563 26.2588 221.941 28.698C222.591 32.3558 222.351 36.3529 220.302 39.4487C218.252 42.5446 214.058 44.3726 210.656 42.8966C210.443 41.8097 210.946 40.7153 211.527 39.7734C212.109 38.8316 212.798 37.9141 213.021 36.8294C213.245 35.7447 212.817 34.4179 211.77 34.0632C210.877 33.7606 209.924 34.2509 208.983 34.3101C208.449 34.3437 207.915 34.2359 207.436 33.9975C206.956 33.7591 206.547 33.3985 206.251 32.9519C205.954 32.5052 205.78 31.9882 205.745 31.4528C205.711 30.9173 205.818 30.3822 206.055 29.9011L205.694 29.5531Z" fill="#2F2E41"/>
</g>
<defs>
<clipPath id="clip0">
<rect width="321" height="194" fill="white"/>
</clipPath>
</defs>
</svg>
