<svg width="292" height="152" viewBox="0 0 292 152" fill="none" xmlns="http://www.w3.org/2000/svg">
<g clip-path="url(#clip0)">
<path d="M283.758 81.5168C283.309 81.2592 282.924 80.9069 282.627 80.4848C282.331 80.0627 282.131 79.5811 282.041 79.0739C281.952 78.5667 281.976 78.0462 282.111 77.549C282.246 77.0519 282.489 76.5902 282.822 76.1965L279.13 49.3505L286.821 49.7261L288.029 75.9116C288.657 76.513 289.041 77.3227 289.109 78.1872C289.177 79.0517 288.923 79.9109 288.397 80.602C287.87 81.293 287.107 81.7678 286.252 81.9365C285.397 82.1051 284.509 81.9558 283.758 81.5168V81.5168Z" fill="#A0616A"/>
<path d="M287.876 50.0819C287.719 50.2666 287.517 50.4087 287.289 50.495L280.378 53.1191C280.03 53.2509 279.646 53.2453 279.303 53.1035C278.959 52.9617 278.684 52.6944 278.533 52.3567L272.41 38.6693C271.823 37.3996 271.723 35.9597 272.129 34.6217C272.43 33.6667 272.984 32.8101 273.733 32.1421C274.482 31.4741 275.398 31.0194 276.385 30.8261C277.144 30.6706 277.928 30.6817 278.683 30.8584C279.587 31.0588 280.426 31.4804 281.125 32.0848C281.824 32.6892 282.361 33.4575 282.686 34.3201L288.13 48.6354C288.221 48.8771 288.245 49.1386 288.201 49.393C288.156 49.6473 288.044 49.8852 287.876 50.0819V50.0819Z" fill="#009DE9"/>
<path d="M251.86 147.042H247.078L245.343 128.607L251.86 128.694V147.042Z" fill="#A0616A"/>
<path d="M243.662 145.683H252.883V151.46H237.854C237.854 149.928 238.466 148.458 239.555 147.375C240.644 146.292 242.121 145.683 243.661 145.683H243.662Z" fill="#2F2E41"/>
<path d="M274.093 147.042H269.311L267.036 128.694H274.094L274.093 147.042Z" fill="#A0616A"/>
<path d="M265.896 145.683H275.117V151.46H260.088C260.088 149.928 260.7 148.458 261.789 147.375C262.878 146.292 264.355 145.683 265.895 145.683H265.896Z" fill="#2F2E41"/>
<path d="M274.694 140.514L267.185 139.961C266.757 139.929 266.356 139.744 266.057 139.439C265.757 139.134 265.58 138.73 265.559 138.304L263.884 103.875C263.868 103.545 263.732 103.232 263.5 102.994C263.268 102.757 262.958 102.612 262.626 102.587C262.295 102.561 261.965 102.657 261.7 102.856C261.434 103.054 261.251 103.343 261.183 103.667L254.198 137.583C254.111 138 253.875 138.371 253.532 138.627C253.19 138.883 252.765 139.006 252.338 138.972L245.549 138.432C245.319 138.414 245.095 138.351 244.89 138.246C244.685 138.142 244.502 137.999 244.353 137.824C244.203 137.649 244.09 137.447 244.019 137.229C243.948 137.011 243.921 136.781 243.939 136.553C243.94 136.541 243.941 136.53 243.942 136.518L250.241 73.8623C250.265 73.6175 250.342 73.3805 250.465 73.1671C250.588 72.9536 250.755 72.7685 250.955 72.6238C251.156 72.4791 251.384 72.3781 251.626 72.3275C251.868 72.2769 252.119 72.2777 252.36 72.3301L276.312 77.5096C276.708 77.5962 277.062 77.8165 277.314 78.1331C277.566 78.4497 277.7 78.8432 277.694 79.2469L276.579 138.806C276.57 139.262 276.382 139.697 276.054 140.018C275.727 140.338 275.287 140.518 274.828 140.519C274.783 140.519 274.739 140.517 274.694 140.514Z" fill="#2F2E41"/>
<path d="M268.124 21.4749C273.415 21.4749 277.704 17.2081 277.704 11.9448C277.704 6.68145 273.415 2.41467 268.124 2.41467C262.833 2.41467 258.544 6.68145 258.544 11.9448C258.544 17.2081 262.833 21.4749 268.124 21.4749Z" fill="#A0616A"/>
<path d="M253.26 78.6948C252.339 77.8731 251.607 76.8626 251.116 75.7328C250.625 74.6031 250.386 73.3809 250.415 72.1504C250.415 58.4529 262.333 27.8494 262.707 26.8963C262.742 26.6663 263.056 26.5669 264.708 25.4582C266.359 24.3494 268.739 24.1781 271.783 24.9516C272.092 25.0304 272.374 25.1921 272.598 25.4191C272.821 25.6462 272.978 25.9298 273.05 26.2393L273.617 27.053C273.666 27.2595 273.764 27.4516 273.901 27.6138C274.039 27.776 274.213 27.9037 274.41 27.9866C276.864 29.0154 284.667 33.7597 282.008 51.6138C279.538 68.1991 278.536 77.9513 278.22 81.3769C278.183 81.7832 278.003 82.1636 277.713 82.4519C277.423 82.7401 277.04 82.9179 276.632 82.9543C275.428 83.0613 273.362 83.2042 270.903 83.2042C265.198 83.2024 257.375 82.438 253.26 78.6948Z" fill="#009DE9"/>
<path d="M241.812 73.6202C241.584 73.1578 241.461 72.6513 241.451 72.1364C241.442 71.6216 241.545 71.1108 241.755 70.6402C241.966 70.1695 242.277 69.7504 242.667 69.4124C243.058 69.0744 243.518 68.8257 244.016 68.6838L255.988 44.3453L262.164 48.9203L248.499 71.3332C248.684 72.1807 248.55 73.0662 248.122 73.8217C247.694 74.5772 247.002 75.1503 246.178 75.4323C245.353 75.7142 244.454 75.6855 243.649 75.3515C242.845 75.0175 242.191 74.4014 241.813 73.6202H241.812Z" fill="#A0616A"/>
<path d="M262.839 49.8022C262.605 49.8682 262.358 49.8743 262.121 49.8199L254.911 48.1677C254.549 48.0848 254.233 47.867 254.028 47.5591C253.822 47.2512 253.743 46.8766 253.807 46.5124L256.391 31.7531C256.614 30.3729 257.338 29.1218 258.425 28.2361C259.209 27.6098 260.149 27.2056 261.145 27.0661C262.142 26.9266 263.157 27.057 264.085 27.4435C264.802 27.7352 265.447 28.1789 265.975 28.7437C266.613 29.4113 267.074 30.2266 267.316 31.1159C267.557 32.0053 267.572 32.9405 267.359 33.8371L263.861 48.7403C263.801 48.9919 263.675 49.2231 263.496 49.4098C263.316 49.5965 263.089 49.732 262.839 49.8022H262.839Z" fill="#009DE9"/>
<path d="M265.881 20.5555C265.415 20.0823 265.07 19.504 264.878 18.8698C264.685 18.2356 264.649 17.5644 264.773 16.9134C265.107 15.1761 265.304 14.0382 265.341 13.6244C265.468 12.2092 264.03 11.0633 262.607 10.8795C262.552 10.8722 262.505 10.8677 262.467 10.8645C262.502 10.8993 262.542 10.9361 262.576 10.9688C262.847 11.2214 263.183 11.5358 263.103 11.8603C263.055 12.0556 262.875 12.1943 262.554 12.2836C260.329 12.9031 258.615 12.3343 257.16 10.4924C256.751 9.96899 256.47 9.35819 256.339 8.70819C255.817 6.16479 257.206 3.99665 258.463 2.62592C259.499 1.49564 261.179 0.124215 263.297 0.00607895C264.944 -0.0853028 266.903 0.8577 267.488 2.55712C267.765 2.14988 268.133 1.81228 268.563 1.57105C268.994 1.32982 269.475 1.19158 269.968 1.16729C271.093 1.14303 272.2 1.44929 273.15 2.04775C277.796 4.6947 279.792 11.0004 277.51 15.8176C276.074 18.8477 272.964 21.1034 269.393 21.7046C269.169 21.7423 268.943 21.7614 268.716 21.7615C268.186 21.7606 267.662 21.6535 267.174 21.4465C266.687 21.2396 266.246 20.937 265.878 20.5569L265.881 20.5555Z" fill="#2F2E41"/>
<path d="M127.019 67.9524C126.818 67.4765 126.48 67.0698 126.049 66.7826C125.618 66.4954 125.111 66.3404 124.592 66.3367H76.1378C75.4413 66.3371 74.7734 66.6125 74.2809 67.1024C73.7884 67.5924 73.5116 68.2568 73.5112 68.9496V129.929C73.5116 130.622 73.7884 131.286 74.2809 131.776C74.7734 132.266 75.4413 132.541 76.1378 132.542H124.594C125.29 132.541 125.957 132.265 126.45 131.775C126.942 131.285 127.219 130.621 127.22 129.929V68.9496C127.221 68.6073 127.154 68.2683 127.021 67.9524H127.019ZM126.635 129.929C126.634 130.468 126.419 130.984 126.036 131.365C125.653 131.746 125.133 131.961 124.592 131.961H76.1378C75.596 131.961 75.0764 131.747 74.6932 131.366C74.3101 130.985 74.0947 130.468 74.0945 129.929V68.95C74.0953 68.4111 74.3108 67.8945 74.6938 67.5135C75.0768 67.1325 75.5961 66.9181 76.1378 66.9173H124.594C125.002 66.9189 125.4 67.0413 125.738 67.2691C126.076 67.4968 126.337 67.8195 126.49 68.196C126.52 68.271 126.545 68.3475 126.567 68.4253C126.613 68.5964 126.637 68.7728 126.637 68.95L126.635 129.929Z" fill="#3F3D56"/>
<path d="M116.908 80.7337H102.313C102.003 80.7337 101.706 80.6113 101.487 80.3935C101.268 80.1757 101.145 79.8802 101.145 79.5721C101.145 79.2641 101.268 78.9686 101.487 78.7508C101.706 78.533 102.003 78.4106 102.313 78.4106H116.908C117.217 78.4106 117.514 78.533 117.733 78.7508C117.952 78.9686 118.075 79.2641 118.075 79.5721C118.075 79.8802 117.952 80.1757 117.733 80.3935C117.514 80.6113 117.217 80.7337 116.908 80.7337V80.7337Z" fill="#3F3D56"/>
<path d="M116.908 86.8316H102.313C102.003 86.8316 101.706 86.7093 101.487 86.4914C101.268 86.2736 101.145 85.9781 101.145 85.6701C101.145 85.362 101.268 85.0666 101.487 84.8487C101.706 84.6309 102.003 84.5085 102.313 84.5085H116.908C117.217 84.5085 117.514 84.6309 117.733 84.8487C117.952 85.0666 118.075 85.362 118.075 85.6701C118.075 85.9781 117.952 86.2736 117.733 86.4914C117.514 86.7093 117.217 86.8316 116.908 86.8316V86.8316Z" fill="#3F3D56"/>
<path d="M94.8239 90.3037H84.1579C83.8096 90.3034 83.4757 90.1656 83.2294 89.9206C82.9831 89.6756 82.8446 89.3434 82.8442 88.997V76.4759C82.8446 76.1294 82.9831 75.7973 83.2294 75.5523C83.4757 75.3073 83.8096 75.1695 84.1579 75.1691H94.8239C95.1721 75.1695 95.506 75.3073 95.7523 75.5523C95.9986 75.7973 96.1371 76.1294 96.1375 76.4759V88.997C96.1371 89.3434 95.9986 89.6756 95.7523 89.9206C95.506 90.1656 95.1721 90.3034 94.8239 90.3037Z" fill="#2D7992"/>
<path d="M116.806 99.3179H83.8215C83.5118 99.3179 83.2148 99.1955 82.9958 98.9777C82.7768 98.7598 82.6538 98.4644 82.6538 98.1563C82.6538 97.8483 82.7768 97.5528 82.9958 97.335C83.2148 97.1172 83.5118 96.9948 83.8215 96.9948H116.806C116.959 96.9948 117.111 97.0248 117.253 97.0832C117.395 97.1416 117.523 97.2271 117.632 97.335C117.74 97.4429 117.826 97.5709 117.885 97.7118C117.944 97.8528 117.974 98.0038 117.974 98.1563C117.974 98.3089 117.944 98.4599 117.885 98.6008C117.826 98.7418 117.74 98.8698 117.632 98.9777C117.523 99.0855 117.395 99.1711 117.253 99.2295C117.111 99.2878 116.959 99.3179 116.806 99.3179V99.3179Z" fill="#CCCCCC"/>
<path d="M116.806 105.416H83.8215C83.5118 105.416 83.2148 105.293 82.9958 105.076C82.7768 104.858 82.6538 104.562 82.6538 104.254C82.6538 103.946 82.7768 103.651 82.9958 103.433C83.2148 103.215 83.5118 103.093 83.8215 103.093H116.806C117.116 103.093 117.413 103.215 117.632 103.433C117.851 103.651 117.974 103.946 117.974 104.254C117.974 104.562 117.851 104.858 117.632 105.076C117.413 105.293 117.116 105.416 116.806 105.416V105.416Z" fill="#CCCCCC"/>
<path d="M116.806 111.514H83.8215C83.5118 111.514 83.2148 111.391 82.9958 111.174C82.7768 110.956 82.6538 110.66 82.6538 110.352C82.6538 110.044 82.7768 109.749 82.9958 109.531C83.2148 109.313 83.5118 109.191 83.8215 109.191H116.806C117.116 109.191 117.413 109.313 117.632 109.531C117.851 109.749 117.974 110.044 117.974 110.352C117.974 110.66 117.851 110.956 117.632 111.174C117.413 111.391 117.116 111.514 116.806 111.514V111.514Z" fill="#CCCCCC"/>
<path d="M116.806 117.612H83.8215C83.5118 117.612 83.2148 117.489 82.9958 117.271C82.7768 117.054 82.6538 116.758 82.6538 116.45C82.6538 116.142 82.7768 115.847 82.9958 115.629C83.2148 115.411 83.5118 115.289 83.8215 115.289H116.806C117.116 115.289 117.413 115.411 117.632 115.629C117.851 115.847 117.974 116.142 117.974 116.45C117.974 116.758 117.851 117.054 117.632 117.271C117.413 117.489 117.116 117.612 116.806 117.612V117.612Z" fill="#CCCCCC"/>
<path d="M116.806 123.71H83.8215C83.5118 123.71 83.2148 123.587 82.9958 123.369C82.7768 123.151 82.6538 122.856 82.6538 122.548C82.6538 122.24 82.7768 121.944 82.9958 121.727C83.2148 121.509 83.5118 121.386 83.8215 121.386H116.806C117.116 121.386 117.413 121.509 117.632 121.727C117.851 121.944 117.974 122.24 117.974 122.548C117.974 122.856 117.851 123.151 117.632 123.369C117.413 123.587 117.116 123.71 116.806 123.71V123.71Z" fill="#CCCCCC"/>
<path d="M223.541 152H291.651C291.743 152 291.832 151.963 291.898 151.898C291.963 151.833 292 151.745 292 151.653C292 151.56 291.963 151.472 291.898 151.407C291.832 151.342 291.743 151.305 291.651 151.305H223.541C223.449 151.305 223.36 151.342 223.294 151.407C223.229 151.472 223.192 151.56 223.192 151.653C223.192 151.745 223.229 151.833 223.294 151.898C223.36 151.963 223.449 152 223.541 152Z" fill="#3F3D56"/>
<path d="M101.185 51.6444C107.409 51.6444 112.454 46.6257 112.454 40.4347C112.454 34.2437 107.409 29.225 101.185 29.225C94.9621 29.225 89.917 34.2437 89.917 40.4347C89.917 46.6257 94.9621 51.6444 101.185 51.6444Z" fill="#2D7992"/>
<path d="M100.068 44.7109C99.8149 44.7113 99.5682 44.6297 99.3653 44.4784L99.3528 44.4691L96.7045 42.4538C96.5817 42.3603 96.4786 42.2437 96.4011 42.1105C96.3236 41.9774 96.2732 41.8304 96.2529 41.6779C96.2326 41.5253 96.2426 41.3703 96.2826 41.2217C96.3225 41.0731 96.3915 40.9337 96.4856 40.8116C96.5797 40.6895 96.697 40.5871 96.8309 40.5101C96.9649 40.4332 97.1127 40.3833 97.266 40.3632C97.4194 40.3431 97.5752 40.3533 97.7246 40.3932C97.8739 40.4331 98.0139 40.5018 98.1366 40.5956L99.8519 41.9041L103.905 36.6436C104.095 36.3973 104.376 36.2361 104.685 36.1954C104.994 36.1548 105.307 36.238 105.555 36.4268L105.555 36.4271L105.53 36.4619L105.556 36.4271C105.803 36.6162 105.965 36.8952 106.006 37.2029C106.046 37.5105 105.963 37.8217 105.773 38.0682L101.006 44.2529C100.895 44.3954 100.753 44.5108 100.591 44.5899C100.429 44.6691 100.25 44.71 100.069 44.7095L100.068 44.7109Z" fill="white"/>
<path d="M26.9983 35.3139C31.2155 35.3139 34.6342 31.9129 34.6342 27.7177C34.6342 23.5225 31.2155 20.1216 26.9983 20.1216C22.781 20.1216 19.3623 23.5225 19.3623 27.7177C19.3623 31.9129 22.781 35.3139 26.9983 35.3139Z" fill="#CCCCCC"/>
<path d="M26.2411 30.6152C26.0694 30.6155 25.9022 30.5602 25.7647 30.4578L25.7563 30.4515L23.9617 29.0846C23.7987 28.955 23.6933 28.7671 23.668 28.561C23.6427 28.355 23.6996 28.1473 23.8265 27.9825C23.9534 27.8178 24.1401 27.709 24.3467 27.6797C24.5532 27.6503 24.7631 27.7026 24.9313 27.8254L26.0937 28.7121L28.8405 25.1486C28.9691 24.9817 29.1591 24.8725 29.3687 24.845C29.5782 24.8174 29.7902 24.8739 29.958 25.0018L29.9582 25.002L29.9411 25.0249L29.9585 25.0023C30.1261 25.1305 30.2357 25.3195 30.2633 25.5279C30.2909 25.7364 30.2343 25.9472 30.1059 26.1142L26.8751 30.3059C26.8004 30.4025 26.7043 30.4807 26.5943 30.5344C26.4843 30.5881 26.3633 30.6158 26.2408 30.6155L26.2411 30.6152Z" fill="white"/>
<path d="M48.4559 45.5285C48.2973 45.1541 48.0319 44.8341 47.6925 44.6081C47.353 44.3822 46.9545 44.2601 46.5461 44.2571H8.41826C7.87022 44.2574 7.34471 44.4741 6.95719 44.8596C6.56967 45.2451 6.35184 45.7678 6.35156 46.313V94.2947C6.35184 94.8399 6.56967 95.3626 6.95719 95.7481C7.34471 96.1336 7.87022 96.3503 8.41826 96.3506H46.5461C47.094 96.3499 47.6192 96.133 48.0066 95.7476C48.394 95.3622 48.612 94.8397 48.6128 94.2947V46.313C48.6136 46.0437 48.5603 45.777 48.4559 45.5285ZM48.1538 94.295C48.153 94.7187 47.9834 95.1247 47.6823 95.4243C47.3812 95.7239 46.973 95.8925 46.5471 95.8934H8.41826C7.99214 95.8934 7.58347 95.725 7.28216 95.4252C6.98085 95.1255 6.81157 94.7189 6.81157 94.295V46.313C6.8124 45.8894 6.98194 45.4833 7.28307 45.1838C7.58421 44.8842 7.99239 44.7155 8.41826 44.7147H46.5461C46.8674 44.716 47.181 44.8126 47.4468 44.9921C47.7126 45.1716 47.9187 45.4258 48.0385 45.7223C48.0619 45.7813 48.0821 45.8415 48.099 45.9027C48.1355 46.0373 48.1541 46.176 48.1542 46.3155L48.1538 94.295Z" fill="#CCCCCC"/>
<path d="M40.4983 55.5856H29.014C28.7703 55.5856 28.5366 55.4893 28.3643 55.3179C28.192 55.1465 28.0952 54.9141 28.0952 54.6716C28.0952 54.4292 28.192 54.1968 28.3643 54.0254C28.5366 53.854 28.7703 53.7577 29.014 53.7577H40.498C40.7417 53.7577 40.9754 53.854 41.1477 54.0254C41.32 54.1968 41.4168 54.4292 41.4168 54.6716C41.4168 54.9141 41.32 55.1465 41.1477 55.3179C40.9754 55.4893 40.7417 55.5856 40.498 55.5856H40.4983Z" fill="#CCCCCC"/>
<path d="M40.4983 60.3841H29.014C28.7703 60.3841 28.5366 60.2878 28.3643 60.1164C28.192 59.945 28.0952 59.7125 28.0952 59.4701C28.0952 59.2277 28.192 58.9952 28.3643 58.8238C28.5366 58.6524 28.7703 58.5561 29.014 58.5561H40.498C40.7417 58.5561 40.9754 58.6524 41.1477 58.8238C41.32 58.9952 41.4168 59.2277 41.4168 59.4701C41.4168 59.7125 41.32 59.945 41.1477 60.1164C40.9754 60.2878 40.7417 60.3841 40.498 60.3841H40.4983Z" fill="#CCCCCC"/>
<path d="M23.1213 63.1161H14.7288C14.4548 63.1159 14.1921 63.0075 13.9983 62.8147C13.8046 62.622 13.6956 62.3606 13.6953 62.088V52.2358C13.6956 51.9632 13.8046 51.7019 13.9983 51.5091C14.1921 51.3164 14.4548 51.2079 14.7288 51.2077H23.1213C23.3953 51.208 23.658 51.3165 23.8517 51.5092C24.0455 51.7019 24.1545 51.9632 24.1549 52.2358V62.088C24.1546 62.3606 24.0456 62.622 23.8518 62.8147C23.6581 63.0075 23.3954 63.1159 23.1213 63.1161V63.1161Z" fill="#CCCCCC"/>
<path d="M40.4182 70.2088H14.4642C14.2205 70.2088 13.9868 70.1125 13.8145 69.9411C13.6422 69.7697 13.5454 69.5372 13.5454 69.2948C13.5454 69.0524 13.6422 68.8199 13.8145 68.6485C13.9868 68.4771 14.2205 68.3808 14.4642 68.3808H40.4182C40.6618 68.3808 40.8955 68.4771 41.0679 68.6485C41.2402 68.8199 41.337 69.0524 41.337 69.2948C41.337 69.5372 41.2402 69.7697 41.0679 69.9411C40.8955 70.1125 40.6618 70.2088 40.4182 70.2088V70.2088Z" fill="#CCCCCC"/>
<path d="M40.4182 75.0087H14.4642C14.2205 75.0087 13.9868 74.9123 13.8145 74.7409C13.6422 74.5695 13.5454 74.3371 13.5454 74.0947C13.5454 73.8522 13.6422 73.6198 13.8145 73.4484C13.9868 73.277 14.2205 73.1807 14.4642 73.1807H40.4182C40.6618 73.1807 40.8955 73.277 41.0679 73.4484C41.2402 73.6198 41.337 73.8522 41.337 74.0947C41.337 74.3371 41.2402 74.5695 41.0679 74.7409C40.8955 74.9123 40.6618 75.0087 40.4182 75.0087Z" fill="#CCCCCC"/>
<path d="M40.4182 79.8053H14.4642C14.2205 79.8053 13.9868 79.709 13.8145 79.5376C13.6422 79.3662 13.5454 79.1337 13.5454 78.8913C13.5454 78.6489 13.6422 78.4164 13.8145 78.245C13.9868 78.0736 14.2205 77.9773 14.4642 77.9773H40.4182C40.6618 77.9773 40.8955 78.0736 41.0679 78.245C41.2402 78.4164 41.337 78.6489 41.337 78.8913C41.337 79.1337 41.2402 79.3662 41.0679 79.5376C40.8955 79.709 40.6618 79.8053 40.4182 79.8053V79.8053Z" fill="#CCCCCC"/>
<path d="M40.4182 84.6048H14.4642C14.2205 84.6048 13.9868 84.5085 13.8145 84.3371C13.6422 84.1656 13.5454 83.9332 13.5454 83.6908C13.5454 83.4484 13.6422 83.2159 13.8145 83.0445C13.9868 82.8731 14.2205 82.7768 14.4642 82.7768H40.4182C40.6618 82.7768 40.8955 82.8731 41.0679 83.0445C41.2402 83.2159 41.337 83.4484 41.337 83.6908C41.337 83.9332 41.2402 84.1656 41.0679 84.3371C40.8955 84.5085 40.6618 84.6048 40.4182 84.6048Z" fill="#CCCCCC"/>
<path d="M40.4182 89.4018H14.4642C14.2205 89.4018 13.9868 89.3055 13.8145 89.1341C13.6422 88.9627 13.5454 88.7302 13.5454 88.4878C13.5454 88.2454 13.6422 88.0129 13.8145 87.8415C13.9868 87.6701 14.2205 87.5738 14.4642 87.5738H40.4182C40.6618 87.5738 40.8955 87.6701 41.0679 87.8415C41.2402 88.0129 41.337 88.2454 41.337 88.4878C41.337 88.7302 41.2402 88.9627 41.0679 89.1341C40.8955 89.3055 40.6618 89.4018 40.4182 89.4018Z" fill="#CCCCCC"/>
<path d="M0.276451 96.5511H53.8679C53.9408 96.5511 54.0108 96.5223 54.0623 96.471C54.1139 96.4197 54.1428 96.3502 54.1428 96.2776C54.1428 96.2051 54.1139 96.1356 54.0623 96.0843C54.0108 96.033 53.9408 96.0042 53.8679 96.0042H0.276451C0.240352 96.004 0.204567 96.0109 0.171138 96.0244C0.137709 96.038 0.107292 96.0579 0.0816219 96.0832C0.0559516 96.1084 0.0355343 96.1385 0.0215307 96.1716C0.00752705 96.2047 0.000209465 96.2402 4.43405e-06 96.2761C-0.000200597 96.312 0.00670674 96.3476 0.0203315 96.3808C0.0339563 96.4141 0.0540351 96.4444 0.0794154 96.4699C0.104796 96.4954 0.134982 96.5157 0.168254 96.5297C0.201526 96.5436 0.237229 96.5509 0.273327 96.5511H0.276451Z" fill="#CCCCCC"/>
<path d="M173.696 35.3139C177.913 35.3139 181.332 31.9129 181.332 27.7177C181.332 23.5225 177.913 20.1216 173.696 20.1216C169.479 20.1216 166.06 23.5225 166.06 27.7177C166.06 31.9129 169.479 35.3139 173.696 35.3139Z" fill="#CCCCCC"/>
<path d="M172.939 30.6152C172.767 30.6155 172.6 30.5602 172.462 30.4578L172.454 30.4515L170.659 29.0846C170.496 28.955 170.391 28.7671 170.366 28.561C170.34 28.355 170.397 28.1473 170.524 27.9825C170.651 27.8178 170.838 27.709 171.044 27.6797C171.251 27.6503 171.461 27.7026 171.629 27.8254L172.791 28.7121L175.538 25.1486C175.667 24.9817 175.857 24.8725 176.066 24.845C176.276 24.8174 176.488 24.8739 176.656 25.0018L176.656 25.002L176.639 25.0249L176.656 25.0023C176.824 25.1305 176.933 25.3195 176.961 25.5279C176.989 25.7364 176.932 25.9472 176.804 26.1142L173.573 30.3059C173.498 30.4025 173.402 30.4807 173.292 30.5344C173.182 30.5881 173.061 30.6158 172.939 30.6155L172.939 30.6152Z" fill="white"/>
<path d="M195.154 45.5285C194.995 45.1541 194.73 44.8341 194.39 44.6081C194.051 44.3822 193.652 44.2601 193.244 44.2571H155.116C154.568 44.2574 154.042 44.4741 153.655 44.8596C153.267 45.2451 153.05 45.7678 153.049 46.313V94.2947C153.05 94.8399 153.267 95.3626 153.655 95.7481C154.042 96.1336 154.568 96.3503 155.116 96.3506H193.244C193.792 96.3499 194.317 96.133 194.704 95.7476C195.092 95.3622 195.31 94.8397 195.311 94.2947V46.313C195.311 46.0437 195.258 45.777 195.154 45.5285ZM194.852 94.295C194.851 94.7187 194.681 95.1247 194.38 95.4243C194.079 95.7239 193.671 95.8925 193.245 95.8934H155.116C154.905 95.8934 154.696 95.852 154.501 95.7717C154.306 95.6914 154.129 95.5736 153.98 95.4252C153.831 95.2768 153.712 95.1006 153.632 94.9067C153.551 94.7128 153.509 94.5049 153.509 94.295V94.295V46.313C153.51 45.8894 153.68 45.4833 153.981 45.1838C154.282 44.8842 154.69 44.7155 155.116 44.7147H193.244C193.565 44.716 193.879 44.8126 194.145 44.9921C194.41 45.1716 194.616 45.4258 194.736 45.7223C194.76 45.7813 194.78 45.8415 194.797 45.9027C194.833 46.0373 194.852 46.176 194.852 46.3155L194.852 94.295Z" fill="#CCCCCC"/>
<path d="M187.197 55.5856H175.712C175.469 55.5856 175.235 55.4893 175.063 55.3179C174.89 55.1465 174.793 54.9141 174.793 54.6716C174.793 54.4292 174.89 54.1968 175.063 54.0254C175.235 53.854 175.469 53.7577 175.712 53.7577H187.196C187.44 53.7577 187.674 53.854 187.846 54.0254C188.018 54.1968 188.115 54.4292 188.115 54.6716C188.115 54.9141 188.018 55.1465 187.846 55.3179C187.674 55.4893 187.44 55.5856 187.196 55.5856H187.197Z" fill="#CCCCCC"/>
<path d="M187.197 60.3841H175.712C175.469 60.3841 175.235 60.2878 175.063 60.1164C174.89 59.945 174.793 59.7125 174.793 59.4701C174.793 59.2277 174.89 58.9952 175.063 58.8238C175.235 58.6524 175.469 58.5561 175.712 58.5561H187.196C187.44 58.5561 187.674 58.6524 187.846 58.8238C188.018 58.9952 188.115 59.2277 188.115 59.4701C188.115 59.7125 188.018 59.945 187.846 60.1164C187.674 60.2878 187.44 60.3841 187.196 60.3841H187.197Z" fill="#CCCCCC"/>
<path d="M169.819 63.1161H161.427C161.153 63.1159 160.89 63.0075 160.696 62.8147C160.502 62.622 160.393 62.3606 160.393 62.088V52.2358C160.393 51.9632 160.502 51.7019 160.696 51.5091C160.89 51.3164 161.153 51.2079 161.427 51.2077H169.819C170.093 51.208 170.356 51.3165 170.549 51.5092C170.743 51.7019 170.852 51.9632 170.853 52.2358V62.088C170.852 62.3606 170.743 62.622 170.55 62.8147C170.356 63.0075 170.093 63.1159 169.819 63.1161V63.1161Z" fill="#CCCCCC"/>
<path d="M187.116 70.2088H161.162C160.919 70.2088 160.685 70.1125 160.513 69.9411C160.34 69.7697 160.244 69.5372 160.244 69.2948C160.244 69.0524 160.34 68.8199 160.513 68.6485C160.685 68.4771 160.919 68.3808 161.162 68.3808H187.116C187.36 68.3808 187.594 68.4771 187.766 68.6485C187.938 68.8199 188.035 69.0524 188.035 69.2948C188.035 69.5372 187.938 69.7697 187.766 69.9411C187.594 70.1125 187.36 70.2088 187.116 70.2088V70.2088Z" fill="#CCCCCC"/>
<path d="M187.116 75.0087H161.162C160.919 75.0087 160.685 74.9123 160.513 74.7409C160.34 74.5695 160.244 74.3371 160.244 74.0947C160.244 73.8522 160.34 73.6198 160.513 73.4484C160.685 73.277 160.919 73.1807 161.162 73.1807H187.116C187.36 73.1807 187.594 73.277 187.766 73.4484C187.938 73.6198 188.035 73.8522 188.035 74.0947C188.035 74.3371 187.938 74.5695 187.766 74.7409C187.594 74.9123 187.36 75.0087 187.116 75.0087Z" fill="#CCCCCC"/>
<path d="M187.116 79.8053H161.162C160.919 79.8053 160.685 79.709 160.513 79.5376C160.34 79.3662 160.244 79.1337 160.244 78.8913C160.244 78.6489 160.34 78.4164 160.513 78.245C160.685 78.0736 160.919 77.9773 161.162 77.9773H187.116C187.36 77.9773 187.594 78.0736 187.766 78.245C187.938 78.4164 188.035 78.6489 188.035 78.8913C188.035 79.1337 187.938 79.3662 187.766 79.5376C187.594 79.709 187.36 79.8053 187.116 79.8053V79.8053Z" fill="#CCCCCC"/>
<path d="M187.116 84.6048H161.162C160.919 84.6048 160.685 84.5085 160.513 84.3371C160.34 84.1656 160.244 83.9332 160.244 83.6908C160.244 83.4484 160.34 83.2159 160.513 83.0445C160.685 82.8731 160.919 82.7768 161.162 82.7768H187.116C187.36 82.7768 187.594 82.8731 187.766 83.0445C187.938 83.2159 188.035 83.4484 188.035 83.6908C188.035 83.9332 187.938 84.1656 187.766 84.3371C187.594 84.5085 187.36 84.6048 187.116 84.6048Z" fill="#CCCCCC"/>
<path d="M187.116 89.4018H161.162C160.919 89.4018 160.685 89.3055 160.513 89.1341C160.34 88.9627 160.244 88.7302 160.244 88.4878C160.244 88.2454 160.34 88.0129 160.513 87.8415C160.685 87.6701 160.919 87.5738 161.162 87.5738H187.116C187.36 87.5738 187.594 87.6701 187.766 87.8415C187.938 88.0129 188.035 88.2454 188.035 88.4878C188.035 88.7302 187.938 88.9627 187.766 89.1341C187.594 89.3055 187.36 89.4018 187.116 89.4018Z" fill="#CCCCCC"/>
<path d="M146.974 96.5511H200.566C200.639 96.5511 200.709 96.5223 200.76 96.471C200.812 96.4197 200.841 96.3502 200.841 96.2776C200.841 96.2051 200.812 96.1356 200.76 96.0843C200.709 96.033 200.639 96.0042 200.566 96.0042H146.974C146.938 96.004 146.902 96.0109 146.869 96.0244C146.835 96.038 146.805 96.0579 146.779 96.0832C146.754 96.1084 146.733 96.1385 146.719 96.1716C146.705 96.2047 146.698 96.2402 146.698 96.2761C146.698 96.312 146.704 96.3476 146.718 96.3808C146.732 96.4141 146.752 96.4444 146.777 96.4699C146.803 96.4954 146.833 96.5157 146.866 96.5297C146.899 96.5436 146.935 96.5509 146.971 96.5511H146.974Z" fill="#CCCCCC"/>
<path d="M66.0158 132.75H134.125C134.218 132.75 134.307 132.713 134.372 132.648C134.438 132.583 134.475 132.495 134.475 132.402C134.475 132.31 134.438 132.222 134.372 132.157C134.307 132.092 134.218 132.055 134.125 132.055H66.0158C65.9231 132.055 65.8343 132.092 65.7688 132.157C65.7033 132.222 65.6665 132.31 65.6665 132.402C65.6665 132.495 65.7033 132.583 65.7688 132.648C65.8343 132.713 65.9231 132.75 66.0158 132.75Z" fill="#3F3D56"/>
</g>
<defs>
<clipPath id="clip0">
<rect width="292" height="152" fill="white"/>
</clipPath>
</defs>
</svg>
